STARTFONT 2.1
FONT -FontForge-Fira Sans-Bold-R-Normal-Sans--14-100-100-100-P-78-ISO10646-1
SIZE 10 100 100
FONTBOUNDINGBOX 30 22 -11 -5
COMMENT "Generated by fontforge, http://fontforge.sourceforge.net"
COMMENT "Digitized data copyright 2012-2016, The Mozilla Foundation and Telefonica S.A."
STARTPROPERTIES 39
FOUNDRY "FontForge"
FAMILY_NAME "Fira Sans"
WEIGHT_NAME "Bold"
SLANT "R"
SETWIDTH_NAME "Normal"
ADD_STYLE_NAME "Sans"
PIXEL_SIZE 14
POINT_SIZE 100
RESOLUTION_X 100
RESOLUTION_Y 100
SPACING "P"
AVERAGE_WIDTH 78
CHARSET_REGISTRY "ISO10646"
CHARSET_ENCODING "1"
FONTNAME_REGISTRY ""
CHARSET_COLLECTIONS "ISO8859-2 ISO8859-5 ISO8859-7 ISO8859-9 ISO8859-4 ISO10646-1"
FONT_NAME "FiraSans-Bold"
FACE_NAME "Fira Sans Bold"
COPYRIGHT "Digitized data copyright 2012-2016, The Mozilla Foundation and Telefonica S.A."
FONT_VERSION "4.203"
FONT_ASCENT 11
FONT_DESCENT 3
UNDERLINE_POSITION -1
UNDERLINE_THICKNESS 1
X_HEIGHT 7
CAP_HEIGHT 9
RAW_ASCENT 800
RAW_DESCENT 200
NORM_SPACE 3
RELATIVE_WEIGHT 70
RELATIVE_SETWIDTH 50
SUPERSCRIPT_X 0
SUPERSCRIPT_Y 4
SUPERSCRIPT_SIZE 8
SUBSCRIPT_X 0
SUBSCRIPT_Y 1
SUBSCRIPT_SIZE 8
AVG_LOWERCASE_WIDTH 77
AVG_UPPERCASE_WIDTH 91
ENDPROPERTIES
CHARS 2677
STARTCHAR nonmarkingreturn
ENCODING 13
SWIDTH 237 0
DWIDTH 3 0
BBX 1 1 0 0
BITMAP
00
ENDCHAR
STARTCHAR space
ENCODING 32
SWIDTH 237 0
DWIDTH 3 0
BBX 1 1 0 0
BITMAP
00
ENDCHAR
STARTCHAR exclam
ENCODING 33
SWIDTH 240 0
DWIDTH 3 0
BBX 3 10 0 0
BITMAP
E0
60
60
60
60
60
00
60
E0
60
ENDCHAR
STARTCHAR quotedbl
ENCODING 34
SWIDTH 439 0
DWIDTH 6 0
BBX 4 4 1 6
BITMAP
F0
D0
90
90
ENDCHAR
STARTCHAR numbersign
ENCODING 35
SWIDTH 557 0
DWIDTH 8 0
BBX 8 10 0 0
BITMAP
36
36
7F
7F
66
64
FE
FE
6C
6C
ENDCHAR
STARTCHAR dollar
ENCODING 36
SWIDTH 549 0
DWIDTH 8 0
BBX 7 15 0 -2
BITMAP
18
18
3C
7E
64
60
78
3E
0E
06
46
FE
38
18
18
ENDCHAR
STARTCHAR percent
ENCODING 37
SWIDTH 859 0
DWIDTH 12 0
BBX 12 10 0 0
BITMAP
70C0
7980
C980
7B00
7600
06E0
0DE0
1930
19E0
30E0
ENDCHAR
STARTCHAR ampersand
ENCODING 38
SWIDTH 760 0
DWIDTH 11 0
BBX 9 10 1 0
BITMAP
7800
7C00
EC00
6C00
7800
7980
CF00
C700
FF80
7900
ENDCHAR
STARTCHAR quotesingle
ENCODING 39
SWIDTH 238 0
DWIDTH 3 0
BBX 2 4 1 6
BITMAP
C0
C0
80
80
ENDCHAR
STARTCHAR parenleft
ENCODING 40
SWIDTH 325 0
DWIDTH 5 0
BBX 4 15 0 -2
BITMAP
10
30
30
60
60
E0
E0
C0
C0
E0
60
60
60
30
30
ENDCHAR
STARTCHAR parenright
ENCODING 41
SWIDTH 325 0
DWIDTH 5 0
BBX 4 15 0 -2
BITMAP
40
C0
60
60
30
30
30
30
30
30
30
30
60
60
C0
ENDCHAR
STARTCHAR asterisk
ENCODING 42
SWIDTH 449 0
DWIDTH 6 0
BBX 6 6 0 5
BITMAP
30
B4
FC
30
7C
48
ENDCHAR
STARTCHAR plus
ENCODING 43
SWIDTH 531 0
DWIDTH 7 0
BBX 6 6 1 2
BITMAP
30
30
FC
FC
30
30
ENDCHAR
STARTCHAR comma
ENCODING 44
SWIDTH 240 0
DWIDTH 3 0
BBX 3 5 0 -3
BITMAP
60
E0
60
40
C0
ENDCHAR
STARTCHAR hyphen
ENCODING 45
SWIDTH 407 0
DWIDTH 6 0
BBX 4 2 1 4
BITMAP
F0
F0
ENDCHAR
STARTCHAR period
ENCODING 46
SWIDTH 240 0
DWIDTH 3 0
BBX 3 3 0 0
BITMAP
60
E0
60
ENDCHAR
STARTCHAR slash
ENCODING 47
SWIDTH 520 0
DWIDTH 7 0
BBX 5 14 1 -2
BITMAP
18
18
18
30
30
30
30
60
60
60
60
E0
C0
40
ENDCHAR
STARTCHAR zero
ENCODING 48
SWIDTH 585 0
DWIDTH 8 0
BBX 7 10 1 0
BITMAP
78
FC
CC
CE
CE
CE
CE
CC
FC
78
ENDCHAR
STARTCHAR one
ENCODING 49
SWIDTH 464 0
DWIDTH 7 0
BBX 5 10 0 0
BITMAP
18
78
F8
58
18
18
18
18
18
18
ENDCHAR
STARTCHAR two
ENCODING 50
SWIDTH 517 0
DWIDTH 7 0
BBX 7 10 0 0
BITMAP
78
FC
4E
0E
0C
1C
38
70
FE
FE
ENDCHAR
STARTCHAR three
ENCODING 51
SWIDTH 520 0
DWIDTH 7 0
BBX 7 10 0 0
BITMAP
78
FC
4E
0C
38
3C
0E
4E
FC
78
ENDCHAR
STARTCHAR four
ENCODING 52
SWIDTH 565 0
DWIDTH 8 0
BBX 8 10 0 0
BITMAP
10
38
30
30
66
6E
FF
FF
0E
0E
ENDCHAR
STARTCHAR five
ENCODING 53
SWIDTH 536 0
DWIDTH 8 0
BBX 7 10 0 0
BITMAP
7E
7C
60
78
7E
06
06
46
FC
78
ENDCHAR
STARTCHAR six
ENCODING 54
SWIDTH 564 0
DWIDTH 8 0
BBX 7 10 1 0
BITMAP
3C
78
C0
F8
FC
CC
CE
CC
FC
78
ENDCHAR
STARTCHAR seven
ENCODING 55
SWIDTH 468 0
DWIDTH 7 0
BBX 6 10 0 0
BITMAP
FC
FC
0C
18
18
38
30
30
60
60
ENDCHAR
STARTCHAR eight
ENCODING 56
SWIDTH 581 0
DWIDTH 8 0
BBX 8 10 0 0
BITMAP
3C
7E
66
66
3C
7E
67
E7
7E
3C
ENDCHAR
STARTCHAR nine
ENCODING 57
SWIDTH 560 0
DWIDTH 8 0
BBX 7 11 0 -1
BITMAP
3C
7E
E6
E6
E6
7E
36
0E
3C
70
40
ENDCHAR
STARTCHAR colon
ENCODING 58
SWIDTH 240 0
DWIDTH 3 0
BBX 3 8 0 0
BITMAP
60
E0
60
00
00
60
E0
60
ENDCHAR
STARTCHAR semicolon
ENCODING 59
SWIDTH 240 0
DWIDTH 3 0
BBX 3 11 0 -3
BITMAP
60
E0
60
00
00
00
60
E0
60
40
C0
ENDCHAR
STARTCHAR less
ENCODING 60
SWIDTH 519 0
DWIDTH 7 0
BBX 7 8 0 1
BITMAP
02
0E
3C
F0
E0
7C
0E
04
ENDCHAR
STARTCHAR equal
ENCODING 61
SWIDTH 519 0
DWIDTH 7 0
BBX 6 4 1 3
BITMAP
FC
FC
FC
FC
ENDCHAR
STARTCHAR greater
ENCODING 62
SWIDTH 519 0
DWIDTH 7 0
BBX 7 8 0 1
BITMAP
40
60
FC
0E
0E
3C
F0
40
ENDCHAR
STARTCHAR question
ENCODING 63
SWIDTH 481 0
DWIDTH 7 0
BBX 7 10 0 0
BITMAP
7C
FC
4E
1C
38
30
00
30
30
30
ENDCHAR
STARTCHAR at
ENCODING 64
SWIDTH 1020 0
DWIDTH 14 0
BBX 13 13 1 -3
BITMAP
0F80
3FE0
7770
EFB0
D998
D998
D998
D9B0
DFF0
CEE0
6000
3F80
1FC0
ENDCHAR
STARTCHAR A
ENCODING 65
SWIDTH 590 0
DWIDTH 8 0
BBX 8 10 0 0
BITMAP
1C
3C
3C
36
66
66
7E
7F
E3
C3
ENDCHAR
STARTCHAR B
ENCODING 66
SWIDTH 617 0
DWIDTH 9 0
BBX 7 10 1 0
BITMAP
FC
FE
CE
CE
FC
FE
C6
C6
FE
FC
ENDCHAR
STARTCHAR C
ENCODING 67
SWIDTH 575 0
DWIDTH 8 0
BBX 8 10 0 0
BITMAP
1E
3F
60
60
E0
E0
60
60
3F
1E
ENDCHAR
STARTCHAR D
ENCODING 68
SWIDTH 651 0
DWIDTH 9 0
BBX 8 10 1 0
BITMAP
F8
FE
C6
C7
C7
C7
C7
C6
FE
F8
ENDCHAR
STARTCHAR E
ENCODING 69
SWIDTH 526 0
DWIDTH 7 0
BBX 6 10 1 0
BITMAP
FC
FC
C0
C0
F8
F8
C0
C0
FC
FC
ENDCHAR
STARTCHAR F
ENCODING 70
SWIDTH 487 0
DWIDTH 7 0
BBX 6 10 1 0
BITMAP
FC
F8
C0
C0
F8
F8
C0
C0
C0
C0
ENDCHAR
STARTCHAR G
ENCODING 71
SWIDTH 645 0
DWIDTH 9 0
BBX 8 10 0 0
BITMAP
1E
3F
60
60
E7
E7
63
63
7F
1E
ENDCHAR
STARTCHAR H
ENCODING 72
SWIDTH 666 0
DWIDTH 9 0
BBX 7 10 1 0
BITMAP
C6
C6
C6
C6
FE
FE
C6
C6
C6
C6
ENDCHAR
STARTCHAR I
ENCODING 73
SWIDTH 293 0
DWIDTH 4 0
BBX 2 10 1 0
BITMAP
C0
C0
C0
C0
C0
C0
C0
C0
C0
C0
ENDCHAR
STARTCHAR J
ENCODING 74
SWIDTH 317 0
DWIDTH 4 0
BBX 4 13 0 -3
BITMAP
70
70
70
70
70
70
70
70
70
70
60
C0
80
ENDCHAR
STARTCHAR K
ENCODING 75
SWIDTH 633 0
DWIDTH 9 0
BBX 8 10 1 0
BITMAP
C7
CE
CC
D8
F8
D8
DC
CE
C6
C7
ENDCHAR
STARTCHAR L
ENCODING 76
SWIDTH 513 0
DWIDTH 7 0
BBX 6 10 1 0
BITMAP
C0
C0
C0
C0
C0
C0
C0
C0
FC
FC
ENDCHAR
STARTCHAR M
ENCODING 77
SWIDTH 786 0
DWIDTH 11 0
BBX 11 10 0 0
BITMAP
71C0
71C0
7BC0
7BC0
7BC0
6AC0
6AC0
6EC0
6EC0
E0E0
ENDCHAR
STARTCHAR N
ENCODING 78
SWIDTH 663 0
DWIDTH 9 0
BBX 7 10 1 0
BITMAP
E6
E6
F6
F6
F6
DE
DE
CE
CE
CE
ENDCHAR
STARTCHAR O
ENCODING 79
SWIDTH 691 0
DWIDTH 10 0
BBX 9 10 0 0
BITMAP
1E00
7F00
6380
6180
E180
E180
6180
6380
7F00
1E00
ENDCHAR
STARTCHAR P
ENCODING 80
SWIDTH 600 0
DWIDTH 8 0
BBX 7 10 1 0
BITMAP
FC
FE
C6
C6
CE
FC
F8
C0
C0
C0
ENDCHAR
STARTCHAR Q
ENCODING 81
SWIDTH 690 0
DWIDTH 10 0
BBX 10 12 0 -2
BITMAP
1E00
7F00
6380
6180
E180
E180
6180
6380
7F00
1F80
01C0
0080
ENDCHAR
STARTCHAR R
ENCODING 82
SWIDTH 617 0
DWIDTH 9 0
BBX 8 10 1 0
BITMAP
FC
FE
C6
C6
FE
F8
DC
CC
CE
C7
ENDCHAR
STARTCHAR S
ENCODING 83
SWIDTH 572 0
DWIDTH 8 0
BBX 8 10 0 0
BITMAP
3C
7E
62
70
7C
1E
07
47
FE
7C
ENDCHAR
STARTCHAR T
ENCODING 84
SWIDTH 540 0
DWIDTH 8 0
BBX 8 10 0 0
BITMAP
FF
FE
18
18
18
18
18
18
18
18
ENDCHAR
STARTCHAR U
ENCODING 85
SWIDTH 651 0
DWIDTH 9 0
BBX 7 10 1 0
BITMAP
C6
C6
C6
C6
C6
C6
C6
C6
FE
7C
ENDCHAR
STARTCHAR V
ENCODING 86
SWIDTH 570 0
DWIDTH 8 0
BBX 8 10 0 0
BITMAP
C3
E3
66
66
66
66
3C
3C
3C
3C
ENDCHAR
STARTCHAR W
ENCODING 87
SWIDTH 847 0
DWIDTH 12 0
BBX 12 10 0 0
BITMAP
C670
EE60
6F60
6F60
6F60
6B60
6960
6960
79C0
39C0
ENDCHAR
STARTCHAR X
ENCODING 88
SWIDTH 581 0
DWIDTH 8 0
BBX 8 10 0 0
BITMAP
E7
66
7E
3C
18
3C
3C
66
66
E7
ENDCHAR
STARTCHAR Y
ENCODING 89
SWIDTH 594 0
DWIDTH 8 0
BBX 8 10 0 0
BITMAP
E3
67
66
36
3C
1C
18
18
18
18
ENDCHAR
STARTCHAR Z
ENCODING 90
SWIDTH 544 0
DWIDTH 8 0
BBX 7 10 0 0
BITMAP
7E
7E
0E
1C
18
38
70
60
FE
FE
ENDCHAR
STARTCHAR bracketleft
ENCODING 91
SWIDTH 324 0
DWIDTH 5 0
BBX 4 14 0 -2
BITMAP
F0
F0
E0
E0
E0
E0
E0
E0
E0
E0
E0
E0
F0
F0
ENDCHAR
STARTCHAR backslash
ENCODING 92
SWIDTH 520 0
DWIDTH 7 0
BBX 5 14 1 -2
BITMAP
C0
C0
60
60
60
60
30
30
30
30
18
18
18
10
ENDCHAR
STARTCHAR bracketright
ENCODING 93
SWIDTH 324 0
DWIDTH 5 0
BBX 4 14 0 -2
BITMAP
F0
F0
30
30
30
30
30
30
30
30
30
30
F0
F0
ENDCHAR
STARTCHAR asciicircum
ENCODING 94
SWIDTH 559 0
DWIDTH 8 0
BBX 8 5 0 8
BITMAP
18
38
3C
66
E7
ENDCHAR
STARTCHAR underscore
ENCODING 95
SWIDTH 520 0
DWIDTH 7 0
BBX 7 2 0 -2
BITMAP
FE
FE
ENDCHAR
STARTCHAR grave
ENCODING 96
SWIDTH 340 0
DWIDTH 5 0
BBX 4 3 0 9
BITMAP
60
F0
10
ENDCHAR
STARTCHAR a
ENCODING 97
SWIDTH 548 0
DWIDTH 8 0
BBX 7 8 0 0
BITMAP
7C
7E
06
3E
7E
E6
7E
76
ENDCHAR
STARTCHAR b
ENCODING 98
SWIDTH 597 0
DWIDTH 8 0
BBX 7 11 1 0
BITMAP
C0
C0
C0
DC
FC
CE
C6
C6
CE
FC
F8
ENDCHAR
STARTCHAR c
ENCODING 99
SWIDTH 479 0
DWIDTH 7 0
BBX 7 8 0 0
BITMAP
3E
7C
60
E0
E0
60
7C
3E
ENDCHAR
STARTCHAR d
ENCODING 100
SWIDTH 600 0
DWIDTH 8 0
BBX 7 11 1 0
BITMAP
0E
0E
0E
7E
FE
CE
CE
CE
CE
FE
76
ENDCHAR
STARTCHAR e
ENCODING 101
SWIDTH 552 0
DWIDTH 8 0
BBX 7 8 0 0
BITMAP
3C
7E
66
FE
FE
60
7E
3C
ENDCHAR
STARTCHAR f
ENCODING 102
SWIDTH 356 0
DWIDTH 5 0
BBX 6 11 0 0
BITMAP
3C
7C
60
F8
F8
60
60
60
60
60
60
ENDCHAR
STARTCHAR g
ENCODING 103
SWIDTH 551 0
DWIDTH 8 0
BBX 8 12 0 -3
BITMAP
02
3F
7C
E6
66
7E
78
7C
7E
07
FE
7C
ENDCHAR
STARTCHAR h
ENCODING 104
SWIDTH 577 0
DWIDTH 8 0
BBX 6 11 1 0
BITMAP
C0
C0
C0
DC
FC
CC
CC
CC
CC
CC
CC
ENDCHAR
STARTCHAR i
ENCODING 105
SWIDTH 282 0
DWIDTH 4 0
BBX 2 12 1 0
BITMAP
C0
C0
C0
00
C0
C0
C0
C0
C0
C0
C0
C0
ENDCHAR
STARTCHAR j
ENCODING 106
SWIDTH 281 0
DWIDTH 4 0
BBX 4 15 -1 -3
BITMAP
30
30
30
00
30
30
30
30
30
30
30
30
70
E0
40
ENDCHAR
STARTCHAR k
ENCODING 107
SWIDTH 552 0
DWIDTH 8 0
BBX 7 11 1 0
BITMAP
C0
C0
C0
CE
DC
D8
F0
D8
DC
CC
CE
ENDCHAR
STARTCHAR l
ENCODING 108
SWIDTH 297 0
DWIDTH 4 0
BBX 3 11 1 0
BITMAP
C0
C0
C0
C0
C0
C0
C0
C0
C0
E0
E0
ENDCHAR
STARTCHAR m
ENCODING 109
SWIDTH 845 0
DWIDTH 12 0
BBX 10 8 1 0
BITMAP
D980
FFC0
CCC0
CCC0
CCC0
CCC0
CCC0
CCC0
ENDCHAR
STARTCHAR n
ENCODING 110
SWIDTH 577 0
DWIDTH 8 0
BBX 6 8 1 0
BITMAP
DC
FC
CC
CC
CC
CC
CC
CC
ENDCHAR
STARTCHAR o
ENCODING 111
SWIDTH 584 0
DWIDTH 8 0
BBX 8 8 0 0
BITMAP
3C
7E
67
E7
E7
67
7E
3C
ENDCHAR
STARTCHAR p
ENCODING 112
SWIDTH 597 0
DWIDTH 8 0
BBX 7 11 1 -3
BITMAP
FC
FC
CE
C6
C6
CE
FC
F8
C0
C0
C0
ENDCHAR
STARTCHAR q
ENCODING 113
SWIDTH 600 0
DWIDTH 8 0
BBX 7 11 1 -3
BITMAP
76
FE
CE
CE
CE
CE
FE
7E
0E
0E
0E
ENDCHAR
STARTCHAR r
ENCODING 114
SWIDTH 401 0
DWIDTH 6 0
BBX 5 8 1 0
BITMAP
D8
F0
C0
C0
C0
C0
C0
C0
ENDCHAR
STARTCHAR s
ENCODING 115
SWIDTH 483 0
DWIDTH 7 0
BBX 7 8 0 0
BITMAP
7C
7C
E0
78
3C
0E
FC
78
ENDCHAR
STARTCHAR t
ENCODING 116
SWIDTH 386 0
DWIDTH 5 0
BBX 6 10 0 0
BITMAP
60
60
F8
F8
60
60
60
60
78
3C
ENDCHAR
STARTCHAR u
ENCODING 117
SWIDTH 572 0
DWIDTH 8 0
BBX 6 8 1 0
BITMAP
CC
CC
CC
CC
CC
CC
FC
FC
ENDCHAR
STARTCHAR v
ENCODING 118
SWIDTH 513 0
DWIDTH 7 0
BBX 7 8 0 0
BITMAP
C6
E6
6E
6C
6C
2C
38
38
ENDCHAR
STARTCHAR w
ENCODING 119
SWIDTH 749 0
DWIDTH 10 0
BBX 10 8 0 0
BITMAP
CCC0
CEC0
6EC0
6EC0
7AC0
7A80
7B80
3380
ENDCHAR
STARTCHAR x
ENCODING 120
SWIDTH 512 0
DWIDTH 7 0
BBX 7 8 0 0
BITMAP
EE
6C
7C
38
38
6C
6C
C6
ENDCHAR
STARTCHAR y
ENCODING 121
SWIDTH 518 0
DWIDTH 7 0
BBX 7 11 0 -3
BITMAP
C6
E6
6E
6C
6C
6C
38
38
18
70
60
ENDCHAR
STARTCHAR z
ENCODING 122
SWIDTH 459 0
DWIDTH 6 0
BBX 6 8 0 0
BITMAP
FC
FC
18
38
30
60
FC
FC
ENDCHAR
STARTCHAR braceleft
ENCODING 123
SWIDTH 324 0
DWIDTH 5 0
BBX 4 14 0 -2
BITMAP
30
70
60
60
60
60
C0
E0
60
60
60
60
70
30
ENDCHAR
STARTCHAR bar
ENCODING 124
SWIDTH 376 0
DWIDTH 5 0
BBX 2 13 2 -1
BITMAP
C0
C0
C0
C0
C0
C0
C0
C0
C0
C0
C0
C0
C0
ENDCHAR
STARTCHAR braceright
ENCODING 125
SWIDTH 324 0
DWIDTH 5 0
BBX 4 14 0 -2
BITMAP
E0
E0
60
60
60
70
30
30
70
60
60
60
E0
E0
ENDCHAR
STARTCHAR asciitilde
ENCODING 126
SWIDTH 514 0
DWIDTH 7 0
BBX 7 3 0 3
BITMAP
24
FE
5C
ENDCHAR
STARTCHAR uni00A0
ENCODING 160
SWIDTH 237 0
DWIDTH 3 0
BBX 1 1 0 0
BITMAP
00
ENDCHAR
STARTCHAR exclamdown
ENCODING 161
SWIDTH 240 0
DWIDTH 3 0
BBX 3 11 0 -3
BITMAP
60
E0
60
00
00
60
60
60
60
60
60
ENDCHAR
STARTCHAR cent
ENCODING 162
SWIDTH 479 0
DWIDTH 7 0
BBX 7 13 0 -3
BITMAP
18
18
1C
7E
64
60
E0
60
64
7E
3C
18
18
ENDCHAR
STARTCHAR sterling
ENCODING 163
SWIDTH 539 0
DWIDTH 8 0
BBX 7 10 0 0
BITMAP
1C
3E
30
30
7C
7C
30
70
FE
FE
ENDCHAR
STARTCHAR currency
ENCODING 164
SWIDTH 560 0
DWIDTH 8 0
BBX 8 8 0 1
BITMAP
42
FF
7E
66
66
66
7E
DB
ENDCHAR
STARTCHAR yen
ENCODING 165
SWIDTH 568 0
DWIDTH 8 0
BBX 8 10 0 0
BITMAP
C3
66
66
3C
3C
7E
18
7E
7E
18
ENDCHAR
STARTCHAR brokenbar
ENCODING 166
SWIDTH 376 0
DWIDTH 5 0
BBX 2 13 2 -1
BITMAP
C0
C0
C0
C0
C0
00
00
00
C0
C0
C0
C0
C0
ENDCHAR
STARTCHAR section
ENCODING 167
SWIDTH 550 0
DWIDTH 8 0
BBX 6 12 1 -2
BITMAP
78
FC
C0
F0
FC
CC
CC
F8
1C
9C
F8
70
ENDCHAR
STARTCHAR dieresis
ENCODING 168
SWIDTH 453 0
DWIDTH 6 0
BBX 6 2 0 9
BITMAP
EC
6C
ENDCHAR
STARTCHAR copyright
ENCODING 169
SWIDTH 810 0
DWIDTH 11 0
BBX 9 10 1 2
BITMAP
1E00
6300
5F80
9C80
B080
B080
BE80
5D80
6300
1E00
ENDCHAR
STARTCHAR ordfeminine
ENCODING 170
SWIDTH 500 0
DWIDTH 7 0
BBX 5 11 1 0
BITMAP
70
F8
18
F8
D8
F8
E8
00
00
F8
F8
ENDCHAR
STARTCHAR guillemotleft
ENCODING 171
SWIDTH 628 0
DWIDTH 9 0
BBX 8 8 0 0
BITMAP
1B
33
66
EE
EE
76
3B
11
ENDCHAR
STARTCHAR logicalnot
ENCODING 172
SWIDTH 531 0
DWIDTH 7 0
BBX 6 4 1 2
BITMAP
FC
FC
0C
0C
ENDCHAR
STARTCHAR uni00AD
ENCODING 173
SWIDTH 407 0
DWIDTH 6 0
BBX 4 2 1 4
BITMAP
F0
F0
ENDCHAR
STARTCHAR registered
ENCODING 174
SWIDTH 637 0
DWIDTH 9 0
BBX 7 8 1 3
BITMAP
38
C6
BA
AA
BA
AA
C6
38
ENDCHAR
STARTCHAR macron
ENCODING 175
SWIDTH 365 0
DWIDTH 5 0
BBX 5 2 0 10
BITMAP
F8
F8
ENDCHAR
STARTCHAR degree
ENCODING 176
SWIDTH 521 0
DWIDTH 7 0
BBX 5 5 1 5
BITMAP
70
F0
98
F0
70
ENDCHAR
STARTCHAR plusminus
ENCODING 177
SWIDTH 531 0
DWIDTH 7 0
BBX 6 9 1 0
BITMAP
30
30
FC
FC
30
30
00
FC
FC
ENDCHAR
STARTCHAR uni00B2
ENCODING 178
SWIDTH 400 0
DWIDTH 6 0
BBX 5 7 0 5
BITMAP
30
F8
58
10
30
78
78
ENDCHAR
STARTCHAR uni00B3
ENCODING 179
SWIDTH 400 0
DWIDTH 6 0
BBX 5 7 0 5
BITMAP
30
78
18
30
18
58
F0
ENDCHAR
STARTCHAR acute
ENCODING 180
SWIDTH 340 0
DWIDTH 5 0
BBX 4 3 0 9
BITMAP
30
F0
40
ENDCHAR
STARTCHAR uni00B5
ENCODING 181
SWIDTH 582 0
DWIDTH 8 0
BBX 7 11 1 -3
BITMAP
CC
CC
CC
CC
CC
CC
FC
FE
C0
C0
C0
ENDCHAR
STARTCHAR paragraph
ENCODING 182
SWIDTH 788 0
DWIDTH 11 0
BBX 8 13 1 -3
BITMAP
7F
FF
FB
FB
FB
7B
1B
1B
1B
1B
1B
1B
1B
ENDCHAR
STARTCHAR periodcentered
ENCODING 183
SWIDTH 240 0
DWIDTH 3 0
BBX 3 3 0 3
BITMAP
60
E0
60
ENDCHAR
STARTCHAR cedilla
ENCODING 184
SWIDTH 321 0
DWIDTH 5 0
BBX 4 4 0 -4
BITMAP
60
70
70
F0
ENDCHAR
STARTCHAR uni00B9
ENCODING 185
SWIDTH 400 0
DWIDTH 6 0
BBX 3 6 1 5
BITMAP
60
E0
20
20
20
20
ENDCHAR
STARTCHAR ordmasculine
ENCODING 186
SWIDTH 500 0
DWIDTH 7 0
BBX 6 11 1 0
BITMAP
70
F8
D8
DC
D8
F8
70
00
00
F8
F8
ENDCHAR
STARTCHAR guillemotright
ENCODING 187
SWIDTH 625 0
DWIDTH 9 0
BBX 8 8 0 0
BITMAP
CC
66
37
3B
3B
76
EE
44
ENDCHAR
STARTCHAR onequarter
ENCODING 188
SWIDTH 969 0
DWIDTH 14 0
BBX 12 12 1 -1
BITMAP
0080
6180
E100
2300
2200
2640
24C0
0CB0
09F0
19F0
1030
3000
ENDCHAR
STARTCHAR onehalf
ENCODING 189
SWIDTH 969 0
DWIDTH 14 0
BBX 12 12 1 -1
BITMAP
0080
6180
E100
2300
2260
27F0
24B0
0C20
0860
18F0
10F0
3000
ENDCHAR
STARTCHAR threequarters
ENCODING 190
SWIDTH 969 0
DWIDTH 14 0
BBX 13 12 0 -1
BITMAP
0040
78C0
7880
3180
1900
5B20
FA60
0658
04F8
0CF8
0818
1800
ENDCHAR
STARTCHAR questiondown
ENCODING 191
SWIDTH 481 0
DWIDTH 7 0
BBX 7 11 0 -3
BITMAP
18
38
18
00
18
38
70
E0
E4
FE
78
ENDCHAR
STARTCHAR Agrave
ENCODING 192
SWIDTH 590 0
DWIDTH 8 0
BBX 8 14 0 0
BITMAP
10
3C
04
00
1C
3C
3C
36
66
66
7E
7F
E3
C3
ENDCHAR
STARTCHAR Aacute
ENCODING 193
SWIDTH 590 0
DWIDTH 8 0
BBX 8 14 0 0
BITMAP
0C
3C
10
00
1C
3C
3C
36
66
66
7E
7F
E3
C3
ENDCHAR
STARTCHAR Acircumflex
ENCODING 194
SWIDTH 590 0
DWIDTH 8 0
BBX 8 14 0 0
BITMAP
18
7E
24
00
1C
3C
3C
36
66
66
7E
7F
E3
C3
ENDCHAR
STARTCHAR Atilde
ENCODING 195
SWIDTH 590 0
DWIDTH 8 0
BBX 8 13 0 0
BITMAP
3E
3C
00
1C
3C
3C
36
66
66
7E
7F
E3
C3
ENDCHAR
STARTCHAR Adieresis
ENCODING 196
SWIDTH 590 0
DWIDTH 8 0
BBX 8 13 0 0
BITMAP
76
26
00
1C
3C
3C
36
66
66
7E
7F
E3
C3
ENDCHAR
STARTCHAR Aring
ENCODING 197
SWIDTH 590 0
DWIDTH 8 0
BBX 8 15 0 0
BITMAP
18
34
34
18
00
1C
3C
3C
36
66
66
7E
7F
E3
C3
ENDCHAR
STARTCHAR AE
ENCODING 198
SWIDTH 845 0
DWIDTH 12 0
BBX 11 10 0 0
BITMAP
1FE0
1FE0
1E00
3600
37E0
77E0
7F00
7F00
E3E0
C3E0
ENDCHAR
STARTCHAR Ccedilla
ENCODING 199
SWIDTH 575 0
DWIDTH 8 0
BBX 8 14 0 -4
BITMAP
1E
3F
60
60
60
E0
60
60
72
3F
0C
0C
0E
1C
ENDCHAR
STARTCHAR Egrave
ENCODING 200
SWIDTH 526 0
DWIDTH 7 0
BBX 6 14 1 0
BITMAP
60
78
10
00
FC
FC
C0
C0
F8
F8
C0
C0
FC
FC
ENDCHAR
STARTCHAR Eacute
ENCODING 201
SWIDTH 526 0
DWIDTH 7 0
BBX 6 14 1 0
BITMAP
10
78
40
00
FC
FC
C0
C0
F8
F8
C0
C0
FC
FC
ENDCHAR
STARTCHAR Ecircumflex
ENCODING 202
SWIDTH 526 0
DWIDTH 7 0
BBX 6 14 1 0
BITMAP
30
FC
48
00
FC
FC
C0
C0
F8
F8
C0
C0
FC
FC
ENDCHAR
STARTCHAR Edieresis
ENCODING 203
SWIDTH 526 0
DWIDTH 7 0
BBX 6 13 1 0
BITMAP
DC
C8
00
FC
FC
C0
C0
F8
F8
C0
C0
FC
FC
ENDCHAR
STARTCHAR Igrave
ENCODING 204
SWIDTH 293 0
DWIDTH 4 0
BBX 4 14 0 0
BITMAP
40
F0
30
00
60
60
60
60
60
60
60
60
60
60
ENDCHAR
STARTCHAR Iacute
ENCODING 205
SWIDTH 293 0
DWIDTH 4 0
BBX 4 14 0 0
BITMAP
30
F0
C0
00
60
60
60
60
60
60
60
60
60
60
ENDCHAR
STARTCHAR Icircumflex
ENCODING 206
SWIDTH 293 0
DWIDTH 4 0
BBX 6 14 -1 0
BITMAP
30
FC
48
00
30
30
30
30
30
30
30
30
30
30
ENDCHAR
STARTCHAR Idieresis
ENCODING 207
SWIDTH 293 0
DWIDTH 4 0
BBX 6 13 -1 0
BITMAP
EC
CC
00
30
30
30
30
30
30
30
30
30
30
ENDCHAR
STARTCHAR Eth
ENCODING 208
SWIDTH 665 0
DWIDTH 9 0
BBX 9 10 0 0
BITMAP
7E00
7F00
6300
6380
FB80
FB80
6380
6300
7F00
7E00
ENDCHAR
STARTCHAR Ntilde
ENCODING 209
SWIDTH 663 0
DWIDTH 9 0
BBX 7 13 1 0
BITMAP
3C
7C
00
E6
E6
F6
F6
F6
DE
DE
CE
CE
CE
ENDCHAR
STARTCHAR Ograve
ENCODING 210
SWIDTH 691 0
DWIDTH 10 0
BBX 9 14 0 0
BITMAP
1800
1E00
0400
0000
1E00
7F00
6380
6180
E180
E180
6180
6380
7F00
1E00
ENDCHAR
STARTCHAR Oacute
ENCODING 211
SWIDTH 691 0
DWIDTH 10 0
BBX 9 14 0 0
BITMAP
0400
1E00
1000
0000
1E00
7F00
6380
6180
E180
E180
6180
6380
7F00
1E00
ENDCHAR
STARTCHAR Ocircumflex
ENCODING 212
SWIDTH 691 0
DWIDTH 10 0
BBX 9 14 0 0
BITMAP
0C00
3E00
1200
0000
1E00
7F00
6380
6180
E180
E180
6180
6380
7F00
1E00
ENDCHAR
STARTCHAR Otilde
ENCODING 213
SWIDTH 691 0
DWIDTH 10 0
BBX 9 13 0 0
BITMAP
1E00
3E00
0000
1E00
7F00
6380
6180
E180
E180
6180
6380
7F00
1E00
ENDCHAR
STARTCHAR Odieresis
ENCODING 214
SWIDTH 691 0
DWIDTH 10 0
BBX 9 13 0 0
BITMAP
3700
3600
0000
1E00
7F00
6380
6180
E180
E180
6180
6380
7F00
1E00
ENDCHAR
STARTCHAR multiply
ENCODING 215
SWIDTH 519 0
DWIDTH 7 0
BBX 5 6 1 2
BITMAP
88
D8
F8
70
F8
D8
ENDCHAR
STARTCHAR Oslash
ENCODING 216
SWIDTH 691 0
DWIDTH 10 0
BBX 9 14 0 -2
BITMAP
0200
0300
1E00
7F00
6780
6580
ED80
E980
6980
7B80
7F00
3E00
3000
1000
ENDCHAR
STARTCHAR Ugrave
ENCODING 217
SWIDTH 651 0
DWIDTH 9 0
BBX 7 14 1 0
BITMAP
30
38
08
00
C6
C6
C6
C6
C6
C6
C6
C6
FE
7C
ENDCHAR
STARTCHAR Uacute
ENCODING 218
SWIDTH 651 0
DWIDTH 9 0
BBX 7 14 1 0
BITMAP
08
3C
20
00
C6
C6
C6
C6
C6
C6
C6
C6
FE
7C
ENDCHAR
STARTCHAR Ucircumflex
ENCODING 219
SWIDTH 651 0
DWIDTH 9 0
BBX 7 14 1 0
BITMAP
38
7C
44
00
C6
C6
C6
C6
C6
C6
C6
C6
FE
7C
ENDCHAR
STARTCHAR Udieresis
ENCODING 220
SWIDTH 651 0
DWIDTH 9 0
BBX 7 13 1 0
BITMAP
6C
6C
00
C6
C6
C6
C6
C6
C6
C6
C6
FE
7C
ENDCHAR
STARTCHAR Yacute
ENCODING 221
SWIDTH 594 0
DWIDTH 8 0
BBX 8 14 0 0
BITMAP
0C
3C
10
00
E3
67
66
36
3C
1C
18
18
18
18
ENDCHAR
STARTCHAR Thorn
ENCODING 222
SWIDTH 600 0
DWIDTH 8 0
BBX 7 10 1 0
BITMAP
C0
F8
FC
CE
C6
C6
FE
FC
C0
C0
ENDCHAR
STARTCHAR germandbls
ENCODING 223
SWIDTH 606 0
DWIDTH 8 0
BBX 7 11 1 0
BITMAP
78
FC
CC
C8
D8
D8
DE
C6
C6
DE
DC
ENDCHAR
STARTCHAR agrave
ENCODING 224
SWIDTH 548 0
DWIDTH 8 0
BBX 7 12 0 0
BITMAP
30
3C
04
00
7C
7E
06
3E
7E
E6
7E
76
ENDCHAR
STARTCHAR aacute
ENCODING 225
SWIDTH 548 0
DWIDTH 8 0
BBX 7 12 0 0
BITMAP
18
3C
20
00
7C
7E
06
3E
7E
E6
7E
76
ENDCHAR
STARTCHAR acircumflex
ENCODING 226
SWIDTH 548 0
DWIDTH 8 0
BBX 7 12 0 0
BITMAP
18
3C
64
00
7C
7E
06
3E
7E
E6
7E
76
ENDCHAR
STARTCHAR atilde
ENCODING 227
SWIDTH 548 0
DWIDTH 8 0
BBX 7 11 0 0
BITMAP
3C
7C
00
7C
7E
06
3E
7E
E6
7E
76
ENDCHAR
STARTCHAR adieresis
ENCODING 228
SWIDTH 548 0
DWIDTH 8 0
BBX 7 11 0 0
BITMAP
6E
6C
00
7C
7E
06
3E
7E
E6
7E
76
ENDCHAR
STARTCHAR aring
ENCODING 229
SWIDTH 548 0
DWIDTH 8 0
BBX 7 13 0 0
BITMAP
38
2C
2C
38
00
7C
7E
06
3E
7E
E6
7E
76
ENDCHAR
STARTCHAR ae
ENCODING 230
SWIDTH 855 0
DWIDTH 12 0
BBX 12 8 0 0
BITMAP
7DC0
7FE0
0660
3FF0
7FF0
E600
7FE0
7BC0
ENDCHAR
STARTCHAR ccedilla
ENCODING 231
SWIDTH 479 0
DWIDTH 7 0
BBX 7 12 0 -4
BITMAP
3E
7C
60
E0
E0
60
7E
18
18
0C
1C
38
ENDCHAR
STARTCHAR egrave
ENCODING 232
SWIDTH 552 0
DWIDTH 8 0
BBX 7 12 0 0
BITMAP
10
3C
04
00
3C
7E
66
FE
FE
60
7E
3C
ENDCHAR
STARTCHAR eacute
ENCODING 233
SWIDTH 552 0
DWIDTH 8 0
BBX 7 12 0 0
BITMAP
08
3C
20
00
3C
7E
66
FE
FE
60
7E
3C
ENDCHAR
STARTCHAR ecircumflex
ENCODING 234
SWIDTH 552 0
DWIDTH 8 0
BBX 7 12 0 0
BITMAP
18
3C
66
00
3C
7E
66
FE
FE
60
7E
3C
ENDCHAR
STARTCHAR edieresis
ENCODING 235
SWIDTH 552 0
DWIDTH 8 0
BBX 7 11 0 0
BITMAP
6E
66
00
3C
7E
66
FE
FE
60
7E
3C
ENDCHAR
STARTCHAR igrave
ENCODING 236
SWIDTH 282 0
DWIDTH 4 0
BBX 4 12 0 0
BITMAP
40
F0
10
00
60
60
60
60
60
60
60
60
ENDCHAR
STARTCHAR iacute
ENCODING 237
SWIDTH 282 0
DWIDTH 4 0
BBX 4 12 0 0
BITMAP
20
F0
80
00
60
60
60
60
60
60
60
60
ENDCHAR
STARTCHAR icircumflex
ENCODING 238
SWIDTH 282 0
DWIDTH 4 0
BBX 6 12 -1 0
BITMAP
30
78
CC
00
30
30
30
30
30
30
30
30
ENDCHAR
STARTCHAR idieresis
ENCODING 239
SWIDTH 282 0
DWIDTH 4 0
BBX 6 11 -1 0
BITMAP
DC
CC
00
30
30
30
30
30
30
30
30
ENDCHAR
STARTCHAR eth
ENCODING 240
SWIDTH 579 0
DWIDTH 8 0
BBX 8 12 0 0
BITMAP
08
7C
78
3C
06
3E
7F
67
E7
66
7E
3C
ENDCHAR
STARTCHAR ntilde
ENCODING 241
SWIDTH 577 0
DWIDTH 8 0
BBX 6 11 1 0
BITMAP
7C
F8
00
DC
FC
CC
CC
CC
CC
CC
CC
ENDCHAR
STARTCHAR ograve
ENCODING 242
SWIDTH 584 0
DWIDTH 8 0
BBX 8 12 0 0
BITMAP
18
3C
04
00
3C
7E
67
E7
E7
67
7E
3C
ENDCHAR
STARTCHAR oacute
ENCODING 243
SWIDTH 584 0
DWIDTH 8 0
BBX 8 12 0 0
BITMAP
0C
3C
20
00
3C
7E
67
E7
E7
67
7E
3C
ENDCHAR
STARTCHAR ocircumflex
ENCODING 244
SWIDTH 584 0
DWIDTH 8 0
BBX 8 12 0 0
BITMAP
18
3C
66
00
3C
7E
67
E7
E7
67
7E
3C
ENDCHAR
STARTCHAR otilde
ENCODING 245
SWIDTH 584 0
DWIDTH 8 0
BBX 8 11 0 0
BITMAP
3E
7C
00
3C
7E
67
E7
E7
67
7E
3C
ENDCHAR
STARTCHAR odieresis
ENCODING 246
SWIDTH 584 0
DWIDTH 8 0
BBX 8 11 0 0
BITMAP
76
66
00
3C
7E
67
E7
E7
67
7E
3C
ENDCHAR
STARTCHAR divide
ENCODING 247
SWIDTH 519 0
DWIDTH 7 0
BBX 6 10 1 0
BITMAP
20
70
30
00
FC
FC
00
20
70
30
ENDCHAR
STARTCHAR oslash
ENCODING 248
SWIDTH 584 0
DWIDTH 8 0
BBX 8 12 0 -2
BITMAP
04
06
3C
7E
6F
EB
F3
77
7E
3C
20
60
ENDCHAR
STARTCHAR ugrave
ENCODING 249
SWIDTH 572 0
DWIDTH 8 0
BBX 6 12 1 0
BITMAP
20
78
08
00
CC
CC
CC
CC
CC
CC
FC
FC
ENDCHAR
STARTCHAR uacute
ENCODING 250
SWIDTH 572 0
DWIDTH 8 0
BBX 6 12 1 0
BITMAP
10
78
40
00
CC
CC
CC
CC
CC
CC
FC
FC
ENDCHAR
STARTCHAR ucircumflex
ENCODING 251
SWIDTH 572 0
DWIDTH 8 0
BBX 6 12 1 0
BITMAP
30
78
CC
00
CC
CC
CC
CC
CC
CC
FC
FC
ENDCHAR
STARTCHAR udieresis
ENCODING 252
SWIDTH 572 0
DWIDTH 8 0
BBX 6 11 1 0
BITMAP
DC
CC
00
CC
CC
CC
CC
CC
CC
FC
FC
ENDCHAR
STARTCHAR yacute
ENCODING 253
SWIDTH 518 0
DWIDTH 7 0
BBX 7 15 0 -3
BITMAP
18
3C
20
00
C6
E6
6E
6C
6C
6C
38
38
18
70
60
ENDCHAR
STARTCHAR thorn
ENCODING 254
SWIDTH 597 0
DWIDTH 8 0
BBX 7 14 1 -3
BITMAP
C0
C0
C0
DC
FC
CE
C6
C6
CE
FC
F8
C0
C0
C0
ENDCHAR
STARTCHAR ydieresis
ENCODING 255
SWIDTH 518 0
DWIDTH 7 0
BBX 7 14 0 -3
BITMAP
6C
6C
00
C6
E6
6E
6C
6C
6C
38
38
18
70
60
ENDCHAR
STARTCHAR Amacron
ENCODING 256
SWIDTH 590 0
DWIDTH 8 0
BBX 8 13 0 0
BITMAP
3C
3C
00
1C
3C
3C
36
66
66
7E
7F
E3
C3
ENDCHAR
STARTCHAR amacron
ENCODING 257
SWIDTH 548 0
DWIDTH 8 0
BBX 7 12 0 0
BITMAP
3C
3C
00
00
7C
7E
06
3E
7E
E6
7E
76
ENDCHAR
STARTCHAR Abreve
ENCODING 258
SWIDTH 590 0
DWIDTH 8 0
BBX 8 14 0 0
BITMAP
26
3C
1C
00
1C
3C
3C
36
66
66
7E
7F
E3
C3
ENDCHAR
STARTCHAR abreve
ENCODING 259
SWIDTH 548 0
DWIDTH 8 0
BBX 7 12 0 0
BITMAP
64
3C
38
00
7C
7E
06
3E
7E
E6
7E
76
ENDCHAR
STARTCHAR Aogonek
ENCODING 260
SWIDTH 590 0
DWIDTH 8 0
BBX 8 13 0 -3
BITMAP
1C
3C
3C
36
66
7E
7E
63
C3
C3
0C
0E
0E
ENDCHAR
STARTCHAR aogonek
ENCODING 261
SWIDTH 548 0
DWIDTH 8 0
BBX 7 12 0 -4
BITMAP
7C
7E
06
3E
7E
E6
7E
76
0C
08
0E
06
ENDCHAR
STARTCHAR Cacute
ENCODING 262
SWIDTH 575 0
DWIDTH 8 0
BBX 8 14 0 0
BITMAP
04
1E
10
00
1E
3F
60
60
E0
E0
60
60
3F
1E
ENDCHAR
STARTCHAR cacute
ENCODING 263
SWIDTH 479 0
DWIDTH 7 0
BBX 7 12 0 0
BITMAP
0C
3C
20
00
3E
7C
60
E0
E0
60
7C
3E
ENDCHAR
STARTCHAR Ccircumflex
ENCODING 264
SWIDTH 575 0
DWIDTH 8 0
BBX 8 14 0 0
BITMAP
0C
3F
12
00
1E
3F
60
60
E0
E0
60
60
3F
1E
ENDCHAR
STARTCHAR ccircumflex
ENCODING 265
SWIDTH 479 0
DWIDTH 7 0
BBX 7 12 0 0
BITMAP
18
3C
66
00
3E
7C
60
E0
E0
60
7C
3E
ENDCHAR
STARTCHAR Cdotaccent
ENCODING 266
SWIDTH 575 0
DWIDTH 8 0
BBX 8 14 0 0
BITMAP
0C
0C
0C
00
1E
3F
60
60
E0
E0
60
60
3F
1E
ENDCHAR
STARTCHAR cdotaccent
ENCODING 267
SWIDTH 479 0
DWIDTH 7 0
BBX 7 12 0 0
BITMAP
18
18
18
00
3E
7C
60
E0
E0
60
7C
3E
ENDCHAR
STARTCHAR Ccaron
ENCODING 268
SWIDTH 575 0
DWIDTH 8 0
BBX 8 14 0 0
BITMAP
12
3F
0C
00
1E
3F
60
60
E0
E0
60
60
3F
1E
ENDCHAR
STARTCHAR ccaron
ENCODING 269
SWIDTH 479 0
DWIDTH 7 0
BBX 7 12 0 0
BITMAP
26
7C
18
00
3E
7C
60
E0
E0
60
7C
3E
ENDCHAR
STARTCHAR Dcaron
ENCODING 270
SWIDTH 651 0
DWIDTH 9 0
BBX 8 14 1 0
BITMAP
48
FC
30
00
F8
FE
C6
C7
C7
C7
C7
C6
FE
F8
ENDCHAR
STARTCHAR dcaron
ENCODING 271
SWIDTH 686 0
DWIDTH 10 0
BBX 9 12 1 0
BITMAP
0100
0F80
0F80
0F00
7E00
FE00
CE00
CE00
CE00
CE00
FE00
7600
ENDCHAR
STARTCHAR Dcroat
ENCODING 272
SWIDTH 665 0
DWIDTH 9 0
BBX 9 10 0 0
BITMAP
7E00
7F00
6300
6380
FB80
FB80
6380
6300
7F00
7E00
ENDCHAR
STARTCHAR dcroat
ENCODING 273
SWIDTH 608 0
DWIDTH 9 0
BBX 7 11 1 0
BITMAP
0E
3E
3E
7E
FE
CE
CE
CE
CE
FE
76
ENDCHAR
STARTCHAR Emacron
ENCODING 274
SWIDTH 526 0
DWIDTH 7 0
BBX 6 13 1 0
BITMAP
78
78
00
FC
FC
C0
C0
F8
F8
C0
C0
FC
FC
ENDCHAR
STARTCHAR emacron
ENCODING 275
SWIDTH 552 0
DWIDTH 8 0
BBX 7 12 0 0
BITMAP
3C
3C
00
00
3C
7E
66
FE
FE
60
7E
3C
ENDCHAR
STARTCHAR Ebreve
ENCODING 276
SWIDTH 526 0
DWIDTH 7 0
BBX 6 14 1 0
BITMAP
C8
78
70
00
FC
FC
C0
C0
F8
F8
C0
C0
FC
FC
ENDCHAR
STARTCHAR ebreve
ENCODING 277
SWIDTH 552 0
DWIDTH 8 0
BBX 7 12 0 0
BITMAP
24
3C
38
00
3C
7E
66
FE
FE
60
7E
3C
ENDCHAR
STARTCHAR Edotaccent
ENCODING 278
SWIDTH 526 0
DWIDTH 7 0
BBX 6 14 1 0
BITMAP
30
30
30
00
FC
FC
C0
C0
F8
F8
C0
C0
FC
FC
ENDCHAR
STARTCHAR edotaccent
ENCODING 279
SWIDTH 552 0
DWIDTH 8 0
BBX 7 12 0 0
BITMAP
18
18
18
00
3C
7E
66
FE
FE
60
7E
3C
ENDCHAR
STARTCHAR Eogonek
ENCODING 280
SWIDTH 526 0
DWIDTH 7 0
BBX 6 13 1 -3
BITMAP
FC
FC
C0
F8
F8
C0
C0
C0
FC
FC
30
38
38
ENDCHAR
STARTCHAR eogonek
ENCODING 281
SWIDTH 552 0
DWIDTH 8 0
BBX 7 11 0 -3
BITMAP
3C
7E
66
FE
FE
60
7E
3C
10
1C
1C
ENDCHAR
STARTCHAR Ecaron
ENCODING 282
SWIDTH 526 0
DWIDTH 7 0
BBX 6 14 1 0
BITMAP
48
FC
30
00
FC
FC
C0
C0
F8
F8
C0
C0
FC
FC
ENDCHAR
STARTCHAR ecaron
ENCODING 283
SWIDTH 552 0
DWIDTH 8 0
BBX 7 12 0 0
BITMAP
66
3C
18
00
3C
7E
66
FE
FE
60
7E
3C
ENDCHAR
STARTCHAR Gcircumflex
ENCODING 284
SWIDTH 645 0
DWIDTH 9 0
BBX 8 14 0 0
BITMAP
0C
3F
12
00
1E
3F
60
60
E7
E7
63
63
7F
1E
ENDCHAR
STARTCHAR gcircumflex
ENCODING 285
SWIDTH 551 0
DWIDTH 8 0
BBX 8 15 0 -3
BITMAP
18
3C
66
02
3F
7C
E6
66
7E
78
7C
7E
07
FE
7C
ENDCHAR
STARTCHAR Gbreve
ENCODING 286
SWIDTH 645 0
DWIDTH 9 0
BBX 8 14 0 0
BITMAP
32
1E
1C
00
1E
3F
60
60
E7
E7
63
63
7F
1E
ENDCHAR
STARTCHAR gbreve
ENCODING 287
SWIDTH 551 0
DWIDTH 8 0
BBX 8 15 0 -3
BITMAP
64
3C
38
02
3F
7C
E6
66
7E
78
7C
7E
07
FE
7C
ENDCHAR
STARTCHAR Gdotaccent
ENCODING 288
SWIDTH 645 0
DWIDTH 9 0
BBX 8 14 0 0
BITMAP
0C
0C
0C
00
1E
3F
60
60
E7
E7
63
63
7F
1E
ENDCHAR
STARTCHAR gdotaccent
ENCODING 289
SWIDTH 551 0
DWIDTH 8 0
BBX 8 15 0 -3
BITMAP
18
18
18
02
3F
7C
E6
66
7E
78
7C
7E
07
FE
7C
ENDCHAR
STARTCHAR Gcommaaccent
ENCODING 290
SWIDTH 645 0
DWIDTH 9 0
BBX 8 15 0 -5
BITMAP
1E
3F
60
60
E7
E7
63
63
7F
1E
00
0C
0C
0C
08
ENDCHAR
STARTCHAR gcommaaccent
ENCODING 291
SWIDTH 551 0
DWIDTH 8 0
BBX 8 15 0 -3
BITMAP
08
18
18
1A
3F
7C
E6
66
7E
78
7C
7E
07
FE
7C
ENDCHAR
STARTCHAR Hcircumflex
ENCODING 292
SWIDTH 666 0
DWIDTH 9 0
BBX 7 14 1 0
BITMAP
38
7C
44
00
C6
C6
C6
C6
FE
FE
C6
C6
C6
C6
ENDCHAR
STARTCHAR hcircumflex
ENCODING 293
SWIDTH 577 0
DWIDTH 8 0
BBX 6 15 1 0
BITMAP
30
FC
48
00
C0
C0
C0
DC
FC
CC
CC
CC
CC
CC
CC
ENDCHAR
STARTCHAR Hbar
ENCODING 294
SWIDTH 677 0
DWIDTH 9 0
BBX 9 10 0 0
BITMAP
6380
FF80
FF80
6380
7F80
7F80
6380
6380
6380
6380
ENDCHAR
STARTCHAR hbar
ENCODING 295
SWIDTH 586 0
DWIDTH 8 0
BBX 7 11 0 0
BITMAP
60
F8
F8
6E
7E
66
66
66
66
66
66
ENDCHAR
STARTCHAR Itilde
ENCODING 296
SWIDTH 293 0
DWIDTH 4 0
BBX 6 13 -1 0
BITMAP
7C
F8
00
30
30
30
30
30
30
30
30
30
30
ENDCHAR
STARTCHAR itilde
ENCODING 297
SWIDTH 282 0
DWIDTH 4 0
BBX 6 11 -1 0
BITMAP
7C
F8
00
30
30
30
30
30
30
30
30
ENDCHAR
STARTCHAR Imacron
ENCODING 298
SWIDTH 293 0
DWIDTH 4 0
BBX 4 13 0 0
BITMAP
F0
F0
00
60
60
60
60
60
60
60
60
60
60
ENDCHAR
STARTCHAR imacron
ENCODING 299
SWIDTH 282 0
DWIDTH 4 0
BBX 4 12 0 0
BITMAP
F0
F0
00
00
60
60
60
60
60
60
60
60
ENDCHAR
STARTCHAR Ibreve
ENCODING 300
SWIDTH 293 0
DWIDTH 4 0
BBX 4 14 0 0
BITMAP
90
F0
70
00
60
60
60
60
60
60
60
60
60
60
ENDCHAR
STARTCHAR ibreve
ENCODING 301
SWIDTH 282 0
DWIDTH 4 0
BBX 4 12 0 0
BITMAP
90
F0
E0
00
60
60
60
60
60
60
60
60
ENDCHAR
STARTCHAR Iogonek
ENCODING 302
SWIDTH 293 0
DWIDTH 4 0
BBX 3 13 0 -3
BITMAP
60
60
60
60
60
60
60
60
60
60
80
E0
E0
ENDCHAR
STARTCHAR iogonek
ENCODING 303
SWIDTH 282 0
DWIDTH 4 0
BBX 4 16 -1 -3
BITMAP
30
30
30
00
00
30
30
30
30
30
30
30
30
40
F0
70
ENDCHAR
STARTCHAR Idotaccent
ENCODING 304
SWIDTH 293 0
DWIDTH 4 0
BBX 2 14 1 0
BITMAP
C0
C0
C0
00
C0
C0
C0
C0
C0
C0
C0
C0
C0
C0
ENDCHAR
STARTCHAR dotlessi
ENCODING 305
SWIDTH 282 0
DWIDTH 4 0
BBX 2 8 1 0
BITMAP
C0
C0
C0
C0
C0
C0
C0
C0
ENDCHAR
STARTCHAR IJ
ENCODING 306
SWIDTH 610 0
DWIDTH 9 0
BBX 7 13 1 -3
BITMAP
CE
CE
CE
CE
CE
CE
CE
CE
CE
CE
0C
1C
10
ENDCHAR
STARTCHAR ij
ENCODING 307
SWIDTH 563 0
DWIDTH 8 0
BBX 6 15 1 -3
BITMAP
CC
CC
CC
00
CC
CC
CC
CC
CC
CC
CC
CC
1C
38
10
ENDCHAR
STARTCHAR Jcircumflex
ENCODING 308
SWIDTH 317 0
DWIDTH 4 0
BBX 5 17 0 -3
BITMAP
70
F8
88
00
70
70
70
70
70
70
70
70
70
70
60
C0
80
ENDCHAR
STARTCHAR jcircumflex
ENCODING 309
SWIDTH 281 0
DWIDTH 4 0
BBX 6 15 -1 -3
BITMAP
30
78
CC
00
30
30
30
30
30
30
30
30
70
E0
40
ENDCHAR
STARTCHAR Kcommaaccent
ENCODING 310
SWIDTH 633 0
DWIDTH 9 0
BBX 8 15 1 -5
BITMAP
C7
CE
CC
D8
F8
D8
DC
CE
C6
C7
00
10
38
10
10
ENDCHAR
STARTCHAR kcommaaccent
ENCODING 311
SWIDTH 552 0
DWIDTH 8 0
BBX 7 16 1 -5
BITMAP
C0
C0
C0
CE
DC
D8
F0
D8
DC
CC
CE
00
30
30
30
20
ENDCHAR
STARTCHAR kgreenlandic
ENCODING 312
SWIDTH 551 0
DWIDTH 8 0
BBX 7 8 1 0
BITMAP
CE
CC
D8
F8
D8
D8
CC
CE
ENDCHAR
STARTCHAR Lacute
ENCODING 313
SWIDTH 513 0
DWIDTH 7 0
BBX 7 14 0 0
BITMAP
30
F0
C0
00
60
60
60
60
60
60
60
60
7E
7E
ENDCHAR
STARTCHAR lacute
ENCODING 314
SWIDTH 297 0
DWIDTH 4 0
BBX 4 15 0 0
BITMAP
20
F0
80
00
60
60
60
60
60
60
60
60
60
70
70
ENDCHAR
STARTCHAR Lcommaaccent
ENCODING 315
SWIDTH 513 0
DWIDTH 7 0
BBX 6 15 1 -5
BITMAP
C0
C0
C0
C0
C0
C0
C0
C0
FC
FC
00
30
30
30
20
ENDCHAR
STARTCHAR lcommaaccent
ENCODING 316
SWIDTH 297 0
DWIDTH 4 0
BBX 3 16 1 -5
BITMAP
C0
C0
C0
C0
C0
C0
C0
C0
C0
E0
E0
00
40
E0
40
40
ENDCHAR
STARTCHAR Lcaron
ENCODING 317
SWIDTH 513 0
DWIDTH 7 0
BBX 6 11 1 0
BITMAP
10
D8
D0
D0
C0
C0
C0
C0
C0
FC
FC
ENDCHAR
STARTCHAR lcaron
ENCODING 318
SWIDTH 369 0
DWIDTH 5 0
BBX 5 12 1 0
BITMAP
28
D0
D0
D0
C0
C0
C0
C0
C0
C0
E0
E0
ENDCHAR
STARTCHAR Ldot
ENCODING 319
SWIDTH 513 0
DWIDTH 7 0
BBX 6 10 1 0
BITMAP
C0
C0
C8
DC
CC
C0
C0
C0
FC
FC
ENDCHAR
STARTCHAR ldot
ENCODING 320
SWIDTH 442 0
DWIDTH 6 0
BBX 5 11 1 0
BITMAP
C0
C0
C0
C0
D8
D8
D8
C0
C0
E0
E0
ENDCHAR
STARTCHAR Lslash
ENCODING 321
SWIDTH 553 0
DWIDTH 8 0
BBX 8 10 0 0
BITMAP
70
70
74
7C
78
70
F0
70
7F
7E
ENDCHAR
STARTCHAR lslash
ENCODING 322
SWIDTH 358 0
DWIDTH 5 0
BBX 5 11 0 0
BITMAP
60
60
60
68
78
70
E0
60
60
70
38
ENDCHAR
STARTCHAR Nacute
ENCODING 323
SWIDTH 663 0
DWIDTH 9 0
BBX 7 14 1 0
BITMAP
08
3C
20
00
E6
E6
F6
F6
F6
DE
DE
CE
CE
CE
ENDCHAR
STARTCHAR nacute
ENCODING 324
SWIDTH 577 0
DWIDTH 8 0
BBX 6 12 1 0
BITMAP
18
78
40
00
DC
FC
CC
CC
CC
CC
CC
CC
ENDCHAR
STARTCHAR Ncommaaccent
ENCODING 325
SWIDTH 663 0
DWIDTH 9 0
BBX 7 15 1 -5
BITMAP
E6
E6
F6
F6
F6
DE
DE
CE
CE
CE
00
18
18
10
10
ENDCHAR
STARTCHAR ncommaaccent
ENCODING 326
SWIDTH 577 0
DWIDTH 8 0
BBX 6 13 1 -5
BITMAP
DC
FC
CC
CC
CC
CC
CC
CC
00
30
30
30
20
ENDCHAR
STARTCHAR Ncaron
ENCODING 327
SWIDTH 663 0
DWIDTH 9 0
BBX 7 14 1 0
BITMAP
44
7C
18
00
E6
E6
F6
F6
F6
DE
DE
CE
CE
CE
ENDCHAR
STARTCHAR ncaron
ENCODING 328
SWIDTH 577 0
DWIDTH 8 0
BBX 6 12 1 0
BITMAP
4C
F8
30
00
DC
FC
CC
CC
CC
CC
CC
CC
ENDCHAR
STARTCHAR napostrophe
ENCODING 329
SWIDTH 702 0
DWIDTH 10 0
BBX 9 11 0 0
BITMAP
C000
4000
4000
1F00
1F80
1980
1980
1980
1980
1980
1980
ENDCHAR
STARTCHAR Eng
ENCODING 330
SWIDTH 663 0
DWIDTH 9 0
BBX 7 13 1 -3
BITMAP
E6
E6
F6
F6
F6
DE
DE
CE
CE
CE
06
1E
1C
ENDCHAR
STARTCHAR eng
ENCODING 331
SWIDTH 577 0
DWIDTH 8 0
BBX 6 11 1 -3
BITMAP
DC
FC
CC
CC
CC
CC
CC
CC
0C
3C
38
ENDCHAR
STARTCHAR Omacron
ENCODING 332
SWIDTH 691 0
DWIDTH 10 0
BBX 9 13 0 0
BITMAP
1E00
1E00
0000
1E00
7F00
6380
6180
E180
E180
6180
6380
7F00
1E00
ENDCHAR
STARTCHAR omacron
ENCODING 333
SWIDTH 584 0
DWIDTH 8 0
BBX 8 12 0 0
BITMAP
3C
3C
00
00
3C
7E
67
E7
E7
67
7E
3C
ENDCHAR
STARTCHAR Obreve
ENCODING 334
SWIDTH 691 0
DWIDTH 10 0
BBX 9 14 0 0
BITMAP
3200
1E00
1C00
0000
1E00
7F00
6380
6180
E180
E180
6180
6380
7F00
1E00
ENDCHAR
STARTCHAR obreve
ENCODING 335
SWIDTH 584 0
DWIDTH 8 0
BBX 8 12 0 0
BITMAP
26
3C
1C
00
3C
7E
67
E7
E7
67
7E
3C
ENDCHAR
STARTCHAR Ohungarumlaut
ENCODING 336
SWIDTH 691 0
DWIDTH 10 0
BBX 9 15 0 0
BITMAP
0A00
0F00
1A00
1600
0000
1E00
7F00
6380
6180
E180
E180
6180
6380
7F00
1E00
ENDCHAR
STARTCHAR ohungarumlaut
ENCODING 337
SWIDTH 584 0
DWIDTH 8 0
BBX 8 13 0 0
BITMAP
12
1E
34
1C
00
3C
7E
67
E7
E7
67
7E
3C
ENDCHAR
STARTCHAR OE
ENCODING 338
SWIDTH 905 0
DWIDTH 13 0
BBX 12 10 0 0
BITMAP
1FF0
7FF0
6300
6380
E1F0
E1F0
6380
6300
7FF0
1FF0
ENDCHAR
STARTCHAR oe
ENCODING 339
SWIDTH 907 0
DWIDTH 13 0
BBX 12 8 0 0
BITMAP
3DE0
7FF0
6730
E7F0
E7F0
6700
7FF0
3DE0
ENDCHAR
STARTCHAR Racute
ENCODING 340
SWIDTH 617 0
DWIDTH 9 0
BBX 8 14 1 0
BITMAP
18
78
20
00
FC
FE
C6
C6
FE
F8
DC
CC
CE
C7
ENDCHAR
STARTCHAR racute
ENCODING 341
SWIDTH 401 0
DWIDTH 6 0
BBX 5 12 1 0
BITMAP
30
F0
40
00
D8
F0
C0
C0
C0
C0
C0
C0
ENDCHAR
STARTCHAR Rcommaaccent
ENCODING 342
SWIDTH 617 0
DWIDTH 9 0
BBX 8 15 1 -5
BITMAP
FC
FE
C6
C6
FE
F8
DC
CC
CE
C7
00
30
30
10
30
ENDCHAR
STARTCHAR rcommaaccent
ENCODING 343
SWIDTH 401 0
DWIDTH 6 0
BBX 5 13 1 -5
BITMAP
D8
F0
C0
C0
C0
C0
C0
C0
00
C0
C0
C0
80
ENDCHAR
STARTCHAR Rcaron
ENCODING 344
SWIDTH 617 0
DWIDTH 9 0
BBX 8 14 1 0
BITMAP
48
7C
30
00
FC
FE
C6
C6
FE
F8
DC
CC
CE
C7
ENDCHAR
STARTCHAR rcaron
ENCODING 345
SWIDTH 401 0
DWIDTH 6 0
BBX 5 12 1 0
BITMAP
88
F0
60
00
D8
F0
C0
C0
C0
C0
C0
C0
ENDCHAR
STARTCHAR Sacute
ENCODING 346
SWIDTH 572 0
DWIDTH 8 0
BBX 8 14 0 0
BITMAP
0C
3C
10
00
3C
7E
62
70
7C
1E
07
47
FE
7C
ENDCHAR
STARTCHAR sacute
ENCODING 347
SWIDTH 483 0
DWIDTH 7 0
BBX 7 12 0 0
BITMAP
18
78
20
00
7C
7C
E0
78
3C
0E
FC
78
ENDCHAR
STARTCHAR Scircumflex
ENCODING 348
SWIDTH 572 0
DWIDTH 8 0
BBX 8 14 0 0
BITMAP
18
7E
24
00
3C
7E
62
70
7C
1E
07
47
FE
7C
ENDCHAR
STARTCHAR scircumflex
ENCODING 349
SWIDTH 483 0
DWIDTH 7 0
BBX 7 12 0 0
BITMAP
38
7C
44
00
7C
7C
E0
78
3C
0E
FC
78
ENDCHAR
STARTCHAR Scedilla
ENCODING 350
SWIDTH 572 0
DWIDTH 8 0
BBX 8 14 0 -4
BITMAP
3C
7E
62
60
7C
3E
0F
07
46
FE
38
1C
1C
3C
ENDCHAR
STARTCHAR scedilla
ENCODING 351
SWIDTH 483 0
DWIDTH 7 0
BBX 7 12 0 -4
BITMAP
3C
7C
E0
78
7C
0E
4C
FC
30
18
38
38
ENDCHAR
STARTCHAR Scaron
ENCODING 352
SWIDTH 572 0
DWIDTH 8 0
BBX 8 14 0 0
BITMAP
24
7E
18
00
3C
7E
62
70
7C
1E
07
47
FE
7C
ENDCHAR
STARTCHAR scaron
ENCODING 353
SWIDTH 483 0
DWIDTH 7 0
BBX 7 12 0 0
BITMAP
44
7C
38
00
7C
7C
E0
78
3C
0E
FC
78
ENDCHAR
STARTCHAR uni0162
ENCODING 354
SWIDTH 540 0
DWIDTH 8 0
BBX 8 14 0 -4
BITMAP
FF
FE
18
18
18
18
18
18
18
18
08
0C
1C
1C
ENDCHAR
STARTCHAR uni0163
ENCODING 355
SWIDTH 386 0
DWIDTH 5 0
BBX 6 13 0 -3
BITMAP
60
60
F8
F8
60
60
60
60
78
3C
38
08
38
ENDCHAR
STARTCHAR Tcaron
ENCODING 356
SWIDTH 540 0
DWIDTH 8 0
BBX 8 14 0 0
BITMAP
24
7C
18
00
FF
FE
18
18
18
18
18
18
18
18
ENDCHAR
STARTCHAR tcaron
ENCODING 357
SWIDTH 386 0
DWIDTH 5 0
BBX 6 12 0 0
BITMAP
0C
08
68
68
F8
F8
60
60
60
60
78
3C
ENDCHAR
STARTCHAR Tbar
ENCODING 358
SWIDTH 540 0
DWIDTH 8 0
BBX 8 10 0 0
BITMAP
FF
FE
18
18
7E
7E
18
18
18
18
ENDCHAR
STARTCHAR tbar
ENCODING 359
SWIDTH 386 0
DWIDTH 5 0
BBX 6 10 0 0
BITMAP
60
60
F8
F8
F8
F8
60
60
78
3C
ENDCHAR
STARTCHAR Utilde
ENCODING 360
SWIDTH 651 0
DWIDTH 9 0
BBX 7 13 1 0
BITMAP
3C
78
00
C6
C6
C6
C6
C6
C6
C6
C6
FE
7C
ENDCHAR
STARTCHAR utilde
ENCODING 361
SWIDTH 572 0
DWIDTH 8 0
BBX 6 11 1 0
BITMAP
7C
F8
00
CC
CC
CC
CC
CC
CC
FC
FC
ENDCHAR
STARTCHAR Umacron
ENCODING 362
SWIDTH 651 0
DWIDTH 9 0
BBX 7 13 1 0
BITMAP
7C
7C
00
C6
C6
C6
C6
C6
C6
C6
C6
FE
7C
ENDCHAR
STARTCHAR umacron
ENCODING 363
SWIDTH 572 0
DWIDTH 8 0
BBX 6 12 1 0
BITMAP
78
78
00
00
CC
CC
CC
CC
CC
CC
FC
FC
ENDCHAR
STARTCHAR Ubreve
ENCODING 364
SWIDTH 651 0
DWIDTH 9 0
BBX 7 14 1 0
BITMAP
44
7C
38
00
C6
C6
C6
C6
C6
C6
C6
C6
FE
7C
ENDCHAR
STARTCHAR ubreve
ENCODING 365
SWIDTH 572 0
DWIDTH 8 0
BBX 6 12 1 0
BITMAP
48
78
70
00
CC
CC
CC
CC
CC
CC
FC
FC
ENDCHAR
STARTCHAR Uring
ENCODING 366
SWIDTH 651 0
DWIDTH 9 0
BBX 7 15 1 0
BITMAP
38
28
2C
38
00
C6
C6
C6
C6
C6
C6
C6
C6
FE
7C
ENDCHAR
STARTCHAR uring
ENCODING 367
SWIDTH 572 0
DWIDTH 8 0
BBX 6 13 1 0
BITMAP
30
48
48
30
00
CC
CC
CC
CC
CC
CC
FC
FC
ENDCHAR
STARTCHAR Uhungarumlaut
ENCODING 368
SWIDTH 651 0
DWIDTH 9 0
BBX 7 15 1 0
BITMAP
14
36
3C
28
00
C6
C6
C6
C6
C6
C6
C6
C6
FE
7C
ENDCHAR
STARTCHAR uhungarumlaut
ENCODING 369
SWIDTH 572 0
DWIDTH 8 0
BBX 6 13 1 0
BITMAP
28
3C
68
38
00
CC
CC
CC
CC
CC
CC
FC
FC
ENDCHAR
STARTCHAR Uogonek
ENCODING 370
SWIDTH 651 0
DWIDTH 9 0
BBX 7 13 1 -3
BITMAP
C6
C6
C6
C6
C6
C6
C6
C6
FE
38
30
38
38
ENDCHAR
STARTCHAR uogonek
ENCODING 371
SWIDTH 572 0
DWIDTH 8 0
BBX 6 11 1 -3
BITMAP
CC
CC
CC
CC
CC
CC
FC
EC
18
1C
1C
ENDCHAR
STARTCHAR Wcircumflex
ENCODING 372
SWIDTH 847 0
DWIDTH 12 0
BBX 12 14 0 0
BITMAP
0600
1F80
0900
0000
C670
EE60
6F60
6F60
6F60
6B60
6960
6960
79C0
39C0
ENDCHAR
STARTCHAR wcircumflex
ENCODING 373
SWIDTH 749 0
DWIDTH 10 0
BBX 10 12 0 0
BITMAP
0C00
1E00
1300
0000
CCC0
CEC0
6EC0
6EC0
7AC0
7A80
7B80
3380
ENDCHAR
STARTCHAR Ycircumflex
ENCODING 374
SWIDTH 594 0
DWIDTH 8 0
BBX 8 14 0 0
BITMAP
18
7E
24
00
E3
67
66
36
3C
1C
18
18
18
18
ENDCHAR
STARTCHAR ycircumflex
ENCODING 375
SWIDTH 518 0
DWIDTH 7 0
BBX 7 15 0 -3
BITMAP
38
7C
44
00
C6
E6
6E
6C
6C
6C
38
38
18
70
60
ENDCHAR
STARTCHAR Ydieresis
ENCODING 376
SWIDTH 594 0
DWIDTH 8 0
BBX 8 13 0 0
BITMAP
76
26
00
E3
67
66
36
3C
1C
18
18
18
18
ENDCHAR
STARTCHAR Zacute
ENCODING 377
SWIDTH 544 0
DWIDTH 8 0
BBX 7 14 0 0
BITMAP
08
3C
20
00
7E
7E
0E
1C
18
38
70
60
FE
FE
ENDCHAR
STARTCHAR zacute
ENCODING 378
SWIDTH 459 0
DWIDTH 6 0
BBX 6 12 0 0
BITMAP
18
78
20
00
FC
FC
18
38
30
60
FC
FC
ENDCHAR
STARTCHAR Zdotaccent
ENCODING 379
SWIDTH 544 0
DWIDTH 8 0
BBX 7 14 0 0
BITMAP
18
18
18
00
7E
7E
0E
1C
18
38
70
60
FE
FE
ENDCHAR
STARTCHAR zdotaccent
ENCODING 380
SWIDTH 459 0
DWIDTH 6 0
BBX 6 12 0 0
BITMAP
30
38
30
00
FC
FC
18
38
30
60
FC
FC
ENDCHAR
STARTCHAR Zcaron
ENCODING 381
SWIDTH 544 0
DWIDTH 8 0
BBX 7 14 0 0
BITMAP
24
7E
18
00
7E
7E
0E
1C
18
38
70
60
FE
FE
ENDCHAR
STARTCHAR zcaron
ENCODING 382
SWIDTH 459 0
DWIDTH 6 0
BBX 6 12 0 0
BITMAP
4C
78
30
00
FC
FC
18
38
30
60
FC
FC
ENDCHAR
STARTCHAR longs
ENCODING 383
SWIDTH 356 0
DWIDTH 5 0
BBX 6 11 0 0
BITMAP
3C
7C
60
E0
E0
60
60
60
60
60
60
ENDCHAR
STARTCHAR uni0180
ENCODING 384
SWIDTH 606 0
DWIDTH 8 0
BBX 8 11 0 0
BITMAP
60
F8
F8
6E
7E
67
63
63
67
7E
7E
ENDCHAR
STARTCHAR uni0181
ENCODING 385
SWIDTH 758 0
DWIDTH 11 0
BBX 10 10 0 0
BITMAP
7F80
FFC0
D9C0
D9C0
1F80
1FC0
18C0
18C0
1FC0
1F80
ENDCHAR
STARTCHAR uni0182
ENCODING 386
SWIDTH 596 0
DWIDTH 8 0
BBX 7 10 1 0
BITMAP
FC
FC
C0
F8
FC
CE
C6
C6
FE
FC
ENDCHAR
STARTCHAR uni0183
ENCODING 387
SWIDTH 597 0
DWIDTH 8 0
BBX 7 11 1 0
BITMAP
F8
F8
C0
DC
FC
CE
C6
C6
CE
FC
F8
ENDCHAR
STARTCHAR uni0184
ENCODING 388
SWIDTH 615 0
DWIDTH 9 0
BBX 8 10 0 0
BITMAP
70
70
F0
7C
7F
73
73
73
7F
7E
ENDCHAR
STARTCHAR uni0185
ENCODING 389
SWIDTH 541 0
DWIDTH 8 0
BBX 7 8 0 0
BITMAP
60
E0
78
7E
66
66
7E
7C
ENDCHAR
STARTCHAR uni0186
ENCODING 390
SWIDTH 575 0
DWIDTH 8 0
BBX 8 10 0 0
BITMAP
78
FE
06
06
07
07
06
06
FE
78
ENDCHAR
STARTCHAR uni0187
ENCODING 391
SWIDTH 575 0
DWIDTH 8 0
BBX 10 13 0 0
BITMAP
0180
03C0
0340
1F00
3E00
6000
6000
E000
E000
6000
6000
3F00
1E00
ENDCHAR
STARTCHAR uni0188
ENCODING 392
SWIDTH 479 0
DWIDTH 7 0
BBX 9 11 0 0
BITMAP
0780
0780
0600
3E00
7C00
6000
E000
E000
6000
7C00
3E00
ENDCHAR
STARTCHAR uni0189
ENCODING 393
SWIDTH 665 0
DWIDTH 9 0
BBX 9 10 0 0
BITMAP
7E00
7F00
6300
6380
FB80
FB80
6380
6300
7F00
7E00
ENDCHAR
STARTCHAR uni018A
ENCODING 394
SWIDTH 793 0
DWIDTH 11 0
BBX 11 10 0 0
BITMAP
7F00
FFC0
D8C0
D8E0
18E0
18E0
18E0
18C0
1FC0
1F00
ENDCHAR
STARTCHAR uni018B
ENCODING 395
SWIDTH 596 0
DWIDTH 8 0
BBX 7 10 0 0
BITMAP
7E
7E
06
1E
7E
E6
E6
E6
7E
3E
ENDCHAR
STARTCHAR uni018C
ENCODING 396
SWIDTH 600 0
DWIDTH 8 0
BBX 7 11 1 0
BITMAP
7E
7E
0E
7E
FE
CE
CE
CE
CE
FE
76
ENDCHAR
STARTCHAR uni018D
ENCODING 397
SWIDTH 577 0
DWIDTH 8 0
BBX 8 11 0 -3
BITMAP
3C
7E
66
E7
67
66
3C
1C
06
3E
7C
ENDCHAR
STARTCHAR uni018E
ENCODING 398
SWIDTH 526 0
DWIDTH 7 0
BBX 6 10 0 0
BITMAP
7C
7C
0C
0C
7C
7C
0C
0C
FC
FC
ENDCHAR
STARTCHAR uni018F
ENCODING 399
SWIDTH 640 0
DWIDTH 9 0
BBX 8 10 0 0
BITMAP
3C
7F
03
03
FF
FF
E3
63
7F
3C
ENDCHAR
STARTCHAR uni0190
ENCODING 400
SWIDTH 541 0
DWIDTH 8 0
BBX 8 10 0 0
BITMAP
3C
7E
60
7C
38
60
E0
E2
7F
3C
ENDCHAR
STARTCHAR uni0191
ENCODING 401
SWIDTH 487 0
DWIDTH 7 0
BBX 9 13 -2 -3
BITMAP
1F80
1F00
1800
1800
1F00
1F00
1800
1800
1800
1800
1800
7800
F000
ENDCHAR
STARTCHAR florin
ENCODING 402
SWIDTH 372 0
DWIDTH 5 0
BBX 6 14 0 -3
BITMAP
3C
7C
60
F8
F8
60
60
60
60
60
60
60
E0
C0
ENDCHAR
STARTCHAR uni0193
ENCODING 403
SWIDTH 612 0
DWIDTH 9 0
BBX 11 13 0 0
BITMAP
00C0
01E0
0340
1F00
3F00
6000
6000
E700
E700
6300
6300
7F00
1E00
ENDCHAR
STARTCHAR uni0194
ENCODING 404
SWIDTH 570 0
DWIDTH 8 0
BBX 8 13 0 -3
BITMAP
C3
E7
66
66
66
3C
3C
1C
18
3C
3C
3C
3C
ENDCHAR
STARTCHAR uni0195
ENCODING 405
SWIDTH 870 0
DWIDTH 12 0
BBX 11 11 1 0
BITMAP
C000
C000
C000
DCC0
FCC0
CCE0
CCE0
CCE0
CCC0
CFC0
C780
ENDCHAR
STARTCHAR uni0196
ENCODING 406
SWIDTH 391 0
DWIDTH 5 0
BBX 5 10 1 0
BITMAP
C0
C0
C0
C0
C0
C0
C0
C0
F0
78
ENDCHAR
STARTCHAR uni0197
ENCODING 407
SWIDTH 330 0
DWIDTH 5 0
BBX 5 10 0 0
BITMAP
60
60
60
60
F8
F8
60
60
60
60
ENDCHAR
STARTCHAR uni0198
ENCODING 408
SWIDTH 653 0
DWIDTH 9 0
BBX 8 10 1 0
BITMAP
C7
CF
CC
D8
F8
D8
DC
CC
CE
C7
ENDCHAR
STARTCHAR uni0199
ENCODING 409
SWIDTH 552 0
DWIDTH 8 0
BBX 7 11 1 0
BITMAP
78
F0
C0
CE
DC
D8
F0
D8
DC
CC
CE
ENDCHAR
STARTCHAR uni019A
ENCODING 410
SWIDTH 336 0
DWIDTH 5 0
BBX 5 12 0 0
BITMAP
10
60
60
60
60
F8
F8
60
60
60
70
38
ENDCHAR
STARTCHAR uni019B
ENCODING 411
SWIDTH 529 0
DWIDTH 7 0
BBX 8 11 0 0
BITMAP
68
78
78
38
38
3C
2C
6C
6E
66
C7
ENDCHAR
STARTCHAR uni019C
ENCODING 412
SWIDTH 915 0
DWIDTH 13 0
BBX 11 10 1 0
BITMAP
CC60
CC60
CC60
CC60
CC60
CC60
CC60
CEE0
FFE0
7760
ENDCHAR
STARTCHAR uni019D
ENCODING 413
SWIDTH 663 0
DWIDTH 9 0
BBX 10 13 -2 -3
BITMAP
1CC0
1CC0
1EC0
1EC0
1EC0
1BC0
1BC0
19C0
19C0
19C0
1800
7800
F000
ENDCHAR
STARTCHAR uni019E
ENCODING 414
SWIDTH 577 0
DWIDTH 8 0
BBX 6 11 1 -3
BITMAP
DC
FC
CC
CC
CC
CC
CC
CC
0C
0C
0C
ENDCHAR
STARTCHAR uni019F
ENCODING 415
SWIDTH 691 0
DWIDTH 10 0
BBX 9 10 0 0
BITMAP
1E00
7F00
6380
6180
FF80
FF80
6180
6380
7F00
1E00
ENDCHAR
STARTCHAR Ohorn
ENCODING 416
SWIDTH 715 0
DWIDTH 10 0
BBX 10 11 0 0
BITMAP
00C0
1EC0
7FC0
6380
6180
E180
E180
6180
6380
7F00
1E00
ENDCHAR
STARTCHAR ohorn
ENCODING 417
SWIDTH 625 0
DWIDTH 9 0
BBX 9 9 0 0
BITMAP
0180
3D80
7F80
6700
E700
E700
6700
7E00
3C00
ENDCHAR
STARTCHAR uni01A2
ENCODING 418
SWIDTH 960 0
DWIDTH 13 0
BBX 13 13 0 -3
BITMAP
1EF0
7FF0
63B8
61B8
E1B8
E1B8
61B8
63B8
7F38
1E38
0038
0038
0038
ENDCHAR
STARTCHAR uni01A3
ENCODING 419
SWIDTH 829 0
DWIDTH 12 0
BBX 11 11 0 -3
BITMAP
3FC0
7FE0
6660
E760
E760
6760
7E60
3C60
0060
0060
0060
ENDCHAR
STARTCHAR uni01A4
ENCODING 420
SWIDTH 741 0
DWIDTH 10 0
BBX 10 10 0 0
BITMAP
7F00
FFC0
D8C0
D8C0
19C0
1F80
1F00
1800
1800
1800
ENDCHAR
STARTCHAR uni01A5
ENCODING 421
SWIDTH 597 0
DWIDTH 8 0
BBX 7 14 1 -3
BITMAP
78
F0
C0
DC
FC
CE
C6
C6
CE
FC
F8
C0
C0
C0
ENDCHAR
STARTCHAR uni01A6
ENCODING 422
SWIDTH 617 0
DWIDTH 9 0
BBX 8 11 1 -1
BITMAP
C0
F8
FC
CE
C6
CE
FC
F8
CC
CE
07
ENDCHAR
STARTCHAR uni01A7
ENCODING 423
SWIDTH 563 0
DWIDTH 8 0
BBX 8 10 0 0
BITMAP
3C
7E
07
06
3E
78
E0
E2
7F
3C
ENDCHAR
STARTCHAR uni01A8
ENCODING 424
SWIDTH 474 0
DWIDTH 7 0
BBX 7 8 0 0
BITMAP
78
7C
0C
3C
70
E0
FE
7C
ENDCHAR
STARTCHAR uni01A9
ENCODING 425
SWIDTH 503 0
DWIDTH 7 0
BBX 7 10 0 0
BITMAP
FE
FE
60
30
18
18
30
70
FE
FE
ENDCHAR
STARTCHAR uni01AA
ENCODING 426
SWIDTH 403 0
DWIDTH 6 0
BBX 8 14 -1 -3
BITMAP
78
7C
CC
7C
3C
0C
0C
0C
0C
0C
0C
0C
0F
07
ENDCHAR
STARTCHAR uni01AB
ENCODING 427
SWIDTH 386 0
DWIDTH 5 0
BBX 6 13 0 -3
BITMAP
60
60
F8
F8
60
60
60
60
78
3C
0C
78
78
ENDCHAR
STARTCHAR uni01AC
ENCODING 428
SWIDTH 595 0
DWIDTH 8 0
BBX 8 10 0 0
BITMAP
7F
FF
DC
9C
1C
1C
1C
1C
1C
1C
ENDCHAR
STARTCHAR uni01AD
ENCODING 429
SWIDTH 386 0
DWIDTH 5 0
BBX 6 11 0 0
BITMAP
3C
78
60
F8
F8
60
60
60
60
78
3C
ENDCHAR
STARTCHAR uni01AE
ENCODING 430
SWIDTH 542 0
DWIDTH 8 0
BBX 8 13 0 -3
BITMAP
FF
FE
18
18
18
18
18
18
18
18
18
1E
0E
ENDCHAR
STARTCHAR Uhorn
ENCODING 431
SWIDTH 725 0
DWIDTH 10 0
BBX 9 11 1 0
BITMAP
0080
C680
C780
C600
C600
C600
C600
C600
C600
FE00
7C00
ENDCHAR
STARTCHAR uhorn
ENCODING 432
SWIDTH 643 0
DWIDTH 9 0
BBX 8 9 1 0
BITMAP
01
CD
CF
CC
CC
CC
CC
FC
FC
ENDCHAR
STARTCHAR uni01B1
ENCODING 433
SWIDTH 691 0
DWIDTH 10 0
BBX 9 10 0 0
BITMAP
7380
7380
6300
6180
6180
E180
6180
6380
7F00
1E00
ENDCHAR
STARTCHAR uni01B2
ENCODING 434
SWIDTH 651 0
DWIDTH 9 0
BBX 7 10 1 0
BITMAP
CE
CE
C6
C6
C6
C6
C6
C6
FE
78
ENDCHAR
STARTCHAR uni01B3
ENCODING 435
SWIDTH 633 0
DWIDTH 9 0
BBX 9 10 0 0
BITMAP
E380
6780
6600
3600
3C00
1C00
1800
1800
1800
1800
ENDCHAR
STARTCHAR uni01B4
ENCODING 436
SWIDTH 525 0
DWIDTH 7 0
BBX 8 12 0 -3
BITMAP
03
C7
E6
6C
6C
6C
6C
38
38
18
70
60
ENDCHAR
STARTCHAR uni01B5
ENCODING 437
SWIDTH 544 0
DWIDTH 8 0
BBX 7 10 0 0
BITMAP
7E
7E
0C
1C
7E
7E
30
60
FE
FE
ENDCHAR
STARTCHAR uni01B6
ENCODING 438
SWIDTH 459 0
DWIDTH 6 0
BBX 6 8 0 0
BITMAP
FC
FC
18
7C
7C
60
FC
FC
ENDCHAR
STARTCHAR uni01B7
ENCODING 439
SWIDTH 547 0
DWIDTH 8 0
BBX 7 10 0 0
BITMAP
7E
7E
1C
38
3C
3E
06
06
FE
7C
ENDCHAR
STARTCHAR uni01B8
ENCODING 440
SWIDTH 547 0
DWIDTH 8 0
BBX 8 10 0 0
BITMAP
7E
7E
30
18
3C
70
E0
E2
7F
3C
ENDCHAR
STARTCHAR uni01B9
ENCODING 441
SWIDTH 510 0
DWIDTH 7 0
BBX 7 11 0 -3
BITMAP
7E
7E
70
38
18
7C
E0
E0
E2
7E
3C
ENDCHAR
STARTCHAR uni01BA
ENCODING 442
SWIDTH 509 0
DWIDTH 7 0
BBX 7 11 0 -3
BITMAP
FC
FC
18
38
3E
06
0E
7C
E0
60
20
ENDCHAR
STARTCHAR uni01BB
ENCODING 443
SWIDTH 517 0
DWIDTH 7 0
BBX 7 10 0 0
BITMAP
78
FC
4E
0E
0C
7E
7E
70
FE
FE
ENDCHAR
STARTCHAR uni01BC
ENCODING 444
SWIDTH 543 0
DWIDTH 8 0
BBX 7 10 0 0
BITMAP
7E
7C
60
7C
7E
06
06
46
FE
78
ENDCHAR
STARTCHAR uni01BD
ENCODING 445
SWIDTH 479 0
DWIDTH 7 0
BBX 6 8 0 0
BITMAP
7C
7C
78
7C
0C
0C
FC
78
ENDCHAR
STARTCHAR uni01BE
ENCODING 446
SWIDTH 512 0
DWIDTH 7 0
BBX 7 12 0 0
BITMAP
30
30
7C
7C
30
38
1C
0E
0E
0E
FC
78
ENDCHAR
STARTCHAR uni01BF
ENCODING 447
SWIDTH 592 0
DWIDTH 8 0
BBX 7 11 1 -3
BITMAP
DC
FE
CE
C6
CE
DC
F8
E0
C0
C0
C0
ENDCHAR
STARTCHAR uni01C0
ENCODING 448
SWIDTH 266 0
DWIDTH 4 0
BBX 2 11 1 0
BITMAP
C0
C0
C0
C0
C0
C0
C0
C0
C0
C0
C0
ENDCHAR
STARTCHAR uni01C1
ENCODING 449
SWIDTH 469 0
DWIDTH 7 0
BBX 5 11 1 0
BITMAP
D8
D8
D8
D8
D8
D8
D8
D8
D8
D8
D8
ENDCHAR
STARTCHAR uni01C2
ENCODING 450
SWIDTH 330 0
DWIDTH 5 0
BBX 5 11 0 0
BITMAP
60
60
60
60
F8
F8
F8
F8
60
60
60
ENDCHAR
STARTCHAR uni01C3
ENCODING 451
SWIDTH 310 0
DWIDTH 4 0
BBX 2 11 1 0
BITMAP
C0
C0
C0
C0
C0
C0
C0
C0
C0
C0
C0
ENDCHAR
STARTCHAR uni01C4
ENCODING 452
SWIDTH 1170 0
DWIDTH 16 0
BBX 15 14 1 0
BITMAP
0044
007C
0038
0000
F8FE
FEFE
C60C
C71C
C718
C730
C770
C660
FEFE
F8FE
ENDCHAR
STARTCHAR uni01C5
ENCODING 453
SWIDTH 1100 0
DWIDTH 15 0
BBX 14 12 1 0
BITMAP
004C
0078
F830
FE00
C6FC
C7FC
C718
C738
C730
C660
FEFC
F8FC
ENDCHAR
STARTCHAR uni01C6
ENCODING 454
SWIDTH 1059 0
DWIDTH 15 0
BBX 14 12 1 0
BITMAP
0088
0E78
0E30
0E00
7EFC
FEFC
CE38
CE30
CE60
CEE0
FEFC
76F8
ENDCHAR
STARTCHAR uni01C7
ENCODING 455
SWIDTH 807 0
DWIDTH 11 0
BBX 9 13 1 -3
BITMAP
C180
C180
C180
C180
C180
C180
C180
C180
FD80
FD80
0380
0300
0200
ENDCHAR
STARTCHAR uni01C8
ENCODING 456
SWIDTH 779 0
DWIDTH 11 0
BBX 9 15 1 -3
BITMAP
0180
0180
C180
C000
C180
C180
C180
C180
C180
C180
FD80
FD80
0380
0700
0200
ENDCHAR
STARTCHAR uni01C9
ENCODING 457
SWIDTH 578 0
DWIDTH 8 0
BBX 6 15 1 -3
BITMAP
0C
CC
CC
C0
CC
CC
CC
CC
CC
CC
EC
EC
0C
38
10
ENDCHAR
STARTCHAR uni01CA
ENCODING 458
SWIDTH 980 0
DWIDTH 14 0
BBX 12 13 1 -3
BITMAP
E630
E630
F630
F630
F630
DE30
DE30
CE30
CE30
CE70
0060
00E0
0080
ENDCHAR
STARTCHAR uni01CB
ENCODING 459
SWIDTH 944 0
DWIDTH 13 0
BBX 12 15 1 -3
BITMAP
0060
0070
E660
E600
F660
F660
F660
DE60
DE60
CE60
CE60
CE60
0060
00E0
0080
ENDCHAR
STARTCHAR uni01CC
ENCODING 460
SWIDTH 858 0
DWIDTH 12 0
BBX 10 15 1 -3
BITMAP
00C0
00C0
00C0
0000
DCC0
FCC0
CCC0
CCC0
CCC0
CCC0
CCC0
CCC0
00C0
0380
0100
ENDCHAR
STARTCHAR uni01CD
ENCODING 461
SWIDTH 590 0
DWIDTH 8 0
BBX 8 14 0 0
BITMAP
24
7E
18
00
1C
3C
3C
36
66
66
7E
7F
E3
C3
ENDCHAR
STARTCHAR uni01CE
ENCODING 462
SWIDTH 548 0
DWIDTH 8 0
BBX 7 12 0 0
BITMAP
64
3C
18
00
7C
7E
06
3E
7E
E6
7E
76
ENDCHAR
STARTCHAR uni01CF
ENCODING 463
SWIDTH 293 0
DWIDTH 4 0
BBX 6 14 -1 0
BITMAP
48
FC
30
00
30
30
30
30
30
30
30
30
30
30
ENDCHAR
STARTCHAR uni01D0
ENCODING 464
SWIDTH 282 0
DWIDTH 4 0
BBX 6 12 -1 0
BITMAP
CC
78
30
00
30
30
30
30
30
30
30
30
ENDCHAR
STARTCHAR uni01D1
ENCODING 465
SWIDTH 691 0
DWIDTH 10 0
BBX 9 14 0 0
BITMAP
1200
3E00
0C00
0000
1E00
7F00
6380
6180
E180
E180
6180
6380
7F00
1E00
ENDCHAR
STARTCHAR uni01D2
ENCODING 466
SWIDTH 584 0
DWIDTH 8 0
BBX 8 12 0 0
BITMAP
26
7C
18
00
3C
7E
67
E7
E7
67
7E
3C
ENDCHAR
STARTCHAR uni01D3
ENCODING 467
SWIDTH 651 0
DWIDTH 9 0
BBX 7 14 1 0
BITMAP
44
7C
38
00
C6
C6
C6
C6
C6
C6
C6
C6
FE
7C
ENDCHAR
STARTCHAR uni01D4
ENCODING 468
SWIDTH 572 0
DWIDTH 8 0
BBX 6 12 1 0
BITMAP
CC
78
30
00
CC
CC
CC
CC
CC
CC
FC
FC
ENDCHAR
STARTCHAR uni01D5
ENCODING 469
SWIDTH 651 0
DWIDTH 9 0
BBX 7 16 1 0
BITMAP
7C
7C
00
00
6C
6C
C6
C6
C6
C6
C6
C6
C6
C6
FE
7C
ENDCHAR
STARTCHAR uni01D6
ENCODING 470
SWIDTH 572 0
DWIDTH 8 0
BBX 6 14 1 0
BITMAP
78
78
00
00
DC
CC
CC
CC
CC
CC
CC
CC
FC
FC
ENDCHAR
STARTCHAR uni01D7
ENCODING 471
SWIDTH 651 0
DWIDTH 9 0
BBX 7 16 1 0
BITMAP
08
1C
10
6C
6C
00
C6
C6
C6
C6
C6
C6
C6
C6
FE
7C
ENDCHAR
STARTCHAR uni01D8
ENCODING 472
SWIDTH 572 0
DWIDTH 8 0
BBX 6 14 1 0
BITMAP
08
18
30
CC
CC
00
CC
CC
CC
CC
CC
CC
FC
FC
ENDCHAR
STARTCHAR uni01D9
ENCODING 473
SWIDTH 651 0
DWIDTH 9 0
BBX 7 16 1 0
BITMAP
6C
38
10
6C
6C
00
C6
C6
C6
C6
C6
C6
C6
C6
FE
7C
ENDCHAR
STARTCHAR uni01DA
ENCODING 474
SWIDTH 572 0
DWIDTH 8 0
BBX 6 14 1 0
BITMAP
CC
78
30
CC
CC
00
CC
CC
CC
CC
CC
CC
FC
FC
ENDCHAR
STARTCHAR uni01DB
ENCODING 475
SWIDTH 651 0
DWIDTH 9 0
BBX 7 16 1 0
BITMAP
20
70
10
6C
6C
00
C6
C6
C6
C6
C6
C6
C6
C6
FE
7C
ENDCHAR
STARTCHAR uni01DC
ENCODING 476
SWIDTH 572 0
DWIDTH 8 0
BBX 6 14 1 0
BITMAP
40
60
30
CC
CC
00
CC
CC
CC
CC
CC
CC
FC
FC
ENDCHAR
STARTCHAR uni01DD
ENCODING 477
SWIDTH 556 0
DWIDTH 8 0
BBX 7 8 0 0
BITMAP
3C
7E
06
FE
FE
66
7E
3C
ENDCHAR
STARTCHAR uni01DE
ENCODING 478
SWIDTH 590 0
DWIDTH 8 0
BBX 8 16 0 0
BITMAP
3C
3C
00
00
76
26
1C
3C
3C
36
66
66
7E
7F
E3
C3
ENDCHAR
STARTCHAR uni01DF
ENCODING 479
SWIDTH 548 0
DWIDTH 8 0
BBX 7 14 0 0
BITMAP
3C
3C
00
00
6E
6C
7C
7E
06
3E
7E
E6
7E
76
ENDCHAR
STARTCHAR uni01E0
ENCODING 480
SWIDTH 590 0
DWIDTH 8 0
BBX 8 15 0 0
BITMAP
3C
3C
18
18
00
1C
3C
3C
36
66
66
7E
7F
E3
C3
ENDCHAR
STARTCHAR uni01E1
ENCODING 481
SWIDTH 548 0
DWIDTH 8 0
BBX 7 14 0 0
BITMAP
3C
3C
00
18
38
18
7C
7E
06
3E
7E
E6
7E
76
ENDCHAR
STARTCHAR uni01E2
ENCODING 482
SWIDTH 845 0
DWIDTH 12 0
BBX 11 13 0 0
BITMAP
0780
0780
0000
1FE0
1FE0
1E00
3600
37E0
77E0
7F00
7F00
E3E0
C3E0
ENDCHAR
STARTCHAR uni01E3
ENCODING 483
SWIDTH 855 0
DWIDTH 12 0
BBX 12 12 0 0
BITMAP
0F00
0F00
0000
0000
7DC0
7FE0
0660
3FF0
7FF0
E600
7FE0
7BC0
ENDCHAR
STARTCHAR uni01E4
ENCODING 484
SWIDTH 665 0
DWIDTH 9 0
BBX 9 10 0 0
BITMAP
1E00
3F00
6000
6700
E700
E300
6780
6780
7F00
1E00
ENDCHAR
STARTCHAR uni01E5
ENCODING 485
SWIDTH 551 0
DWIDTH 8 0
BBX 8 12 0 -3
BITMAP
02
3F
7C
E6
66
7E
78
7C
7E
CF
FE
7C
ENDCHAR
STARTCHAR Gcaron
ENCODING 486
SWIDTH 645 0
DWIDTH 9 0
BBX 8 14 0 0
BITMAP
12
3F
0C
00
1E
3F
60
60
E7
E7
63
63
7F
1E
ENDCHAR
STARTCHAR gcaron
ENCODING 487
SWIDTH 551 0
DWIDTH 8 0
BBX 8 15 0 -3
BITMAP
64
3E
18
02
3F
7C
E6
66
7E
78
7C
7E
07
FE
7C
ENDCHAR
STARTCHAR uni01E8
ENCODING 488
SWIDTH 633 0
DWIDTH 9 0
BBX 8 14 1 0
BITMAP
44
7C
38
00
C7
CE
CC
D8
F8
D8
DC
CE
C6
C7
ENDCHAR
STARTCHAR uni01E9
ENCODING 489
SWIDTH 552 0
DWIDTH 8 0
BBX 7 15 1 0
BITMAP
48
FC
30
00
C0
C0
C0
CE
DC
D8
F0
D8
DC
CC
CE
ENDCHAR
STARTCHAR uni01EA
ENCODING 490
SWIDTH 691 0
DWIDTH 10 0
BBX 9 13 0 -3
BITMAP
1E00
7F00
6380
6180
E180
E180
6180
6380
3F00
1E00
1800
1A00
0C00
ENDCHAR
STARTCHAR uni01EB
ENCODING 491
SWIDTH 584 0
DWIDTH 8 0
BBX 8 11 0 -3
BITMAP
3C
7E
67
E7
E7
66
7E
3C
30
34
18
ENDCHAR
STARTCHAR uni01EC
ENCODING 492
SWIDTH 691 0
DWIDTH 10 0
BBX 9 17 0 -3
BITMAP
1E00
1E00
0000
0000
1E00
7F00
6380
6180
E180
E180
6180
6380
3F00
1E00
1800
1A00
0C00
ENDCHAR
STARTCHAR uni01ED
ENCODING 493
SWIDTH 584 0
DWIDTH 8 0
BBX 8 15 0 -3
BITMAP
3C
3C
00
00
3C
7E
67
E7
E7
66
7E
3C
30
34
18
ENDCHAR
STARTCHAR uni01EE
ENCODING 494
SWIDTH 547 0
DWIDTH 8 0
BBX 7 14 0 0
BITMAP
44
7C
18
00
7E
7E
1C
38
3C
3E
06
06
FE
7C
ENDCHAR
STARTCHAR uni01EF
ENCODING 495
SWIDTH 510 0
DWIDTH 7 0
BBX 7 15 0 -3
BITMAP
44
7C
38
00
FC
FC
1C
38
30
3C
0E
06
4E
FC
78
ENDCHAR
STARTCHAR uni01F0
ENCODING 496
SWIDTH 281 0
DWIDTH 4 0
BBX 6 15 -1 -3
BITMAP
CC
78
30
00
30
30
30
30
30
30
30
30
70
E0
40
ENDCHAR
STARTCHAR uni01F1
ENCODING 497
SWIDTH 1170 0
DWIDTH 16 0
BBX 15 10 1 0
BITMAP
F8FE
FEFE
C60C
C71C
C718
C730
C770
C660
FEFE
F8FE
ENDCHAR
STARTCHAR uni01F2
ENCODING 498
SWIDTH 1100 0
DWIDTH 15 0
BBX 14 10 1 0
BITMAP
F800
FE00
C6FC
C7FC
C718
C738
C730
C660
FEFC
F8FC
ENDCHAR
STARTCHAR uni01F3
ENCODING 499
SWIDTH 1059 0
DWIDTH 15 0
BBX 14 11 1 0
BITMAP
0E00
0E00
0E00
7EFC
FEFC
CE38
CE30
CE60
CEE0
FEFC
76F8
ENDCHAR
STARTCHAR uni01F4
ENCODING 500
SWIDTH 645 0
DWIDTH 9 0
BBX 8 14 0 0
BITMAP
04
1E
10
00
1E
3F
60
60
E7
E7
63
63
7F
1E
ENDCHAR
STARTCHAR uni01F5
ENCODING 501
SWIDTH 551 0
DWIDTH 8 0
BBX 8 15 0 -3
BITMAP
18
3C
20
02
3F
7C
E6
66
7E
78
7C
7E
07
FE
7C
ENDCHAR
STARTCHAR uni01F6
ENCODING 502
SWIDTH 951 0
DWIDTH 13 0
BBX 12 10 1 0
BITMAP
C600
C600
C660
C670
FE70
FE30
C670
C670
C7E0
C3C0
ENDCHAR
STARTCHAR uni01F7
ENCODING 503
SWIDTH 600 0
DWIDTH 8 0
BBX 7 10 1 0
BITMAP
DC
FE
C6
C6
CE
FC
F0
C0
C0
C0
ENDCHAR
STARTCHAR uni01F8
ENCODING 504
SWIDTH 663 0
DWIDTH 9 0
BBX 7 14 1 0
BITMAP
30
3C
08
00
E6
E6
F6
F6
F6
DE
DE
CE
CE
CE
ENDCHAR
STARTCHAR uni01F9
ENCODING 505
SWIDTH 577 0
DWIDTH 8 0
BBX 6 12 1 0
BITMAP
30
78
08
00
DC
FC
CC
CC
CC
CC
CC
CC
ENDCHAR
STARTCHAR Aringacute
ENCODING 506
SWIDTH 590 0
DWIDTH 8 0
BBX 8 17 0 0
BITMAP
0C
3C
18
34
34
18
00
1C
3C
3C
36
66
66
7E
7F
E3
C3
ENDCHAR
STARTCHAR aringacute
ENCODING 507
SWIDTH 548 0
DWIDTH 8 0
BBX 7 15 0 0
BITMAP
08
3C
30
38
2C
38
00
7C
7E
06
3E
7E
E6
7E
76
ENDCHAR
STARTCHAR AEacute
ENCODING 508
SWIDTH 845 0
DWIDTH 12 0
BBX 11 14 0 0
BITMAP
0100
0780
0400
0000
1FE0
1FE0
1E00
3600
37E0
77E0
7F00
7F00
E3E0
C3E0
ENDCHAR
STARTCHAR aeacute
ENCODING 509
SWIDTH 855 0
DWIDTH 12 0
BBX 12 12 0 0
BITMAP
0200
0F00
0800
0000
7DC0
7FE0
0660
3FF0
7FF0
E600
7FE0
7BC0
ENDCHAR
STARTCHAR Oslashacute
ENCODING 510
SWIDTH 691 0
DWIDTH 10 0
BBX 9 16 0 -2
BITMAP
0400
1E00
1200
0300
1E00
7F00
6780
6580
ED80
E980
6980
7B80
7F00
3E00
3000
1000
ENDCHAR
STARTCHAR oslashacute
ENCODING 511
SWIDTH 584 0
DWIDTH 8 0
BBX 8 14 0 -2
BITMAP
0C
3C
24
06
3C
7E
6F
EB
F3
77
7E
3C
20
60
ENDCHAR
STARTCHAR uni0200
ENCODING 512
SWIDTH 590 0
DWIDTH 8 0
BBX 8 15 0 0
BITMAP
28
78
2C
34
00
1C
3C
3C
36
66
66
7E
7F
E3
C3
ENDCHAR
STARTCHAR uni0201
ENCODING 513
SWIDTH 548 0
DWIDTH 8 0
BBX 7 13 0 0
BITMAP
48
78
2C
28
00
7C
7E
06
3E
7E
E6
7E
76
ENDCHAR
STARTCHAR uni0202
ENCODING 514
SWIDTH 590 0
DWIDTH 8 0
BBX 8 14 0 0
BITMAP
18
3C
26
00
1C
3C
3C
36
66
66
7E
7F
E3
C3
ENDCHAR
STARTCHAR uni0203
ENCODING 515
SWIDTH 548 0
DWIDTH 8 0
BBX 7 12 0 0
BITMAP
18
3C
64
00
7C
7E
06
3E
7E
E6
7E
76
ENDCHAR
STARTCHAR uni0204
ENCODING 516
SWIDTH 526 0
DWIDTH 7 0
BBX 6 15 1 0
BITMAP
90
F0
D0
58
00
FC
FC
C0
C0
F8
F8
C0
C0
FC
FC
ENDCHAR
STARTCHAR uni0205
ENCODING 517
SWIDTH 552 0
DWIDTH 8 0
BBX 7 13 0 0
BITMAP
28
78
2C
38
00
3C
7E
66
FE
FE
60
7E
3C
ENDCHAR
STARTCHAR uni0206
ENCODING 518
SWIDTH 526 0
DWIDTH 7 0
BBX 6 14 1 0
BITMAP
30
78
C8
00
FC
FC
C0
C0
F8
F8
C0
C0
FC
FC
ENDCHAR
STARTCHAR uni0207
ENCODING 519
SWIDTH 552 0
DWIDTH 8 0
BBX 7 12 0 0
BITMAP
18
3C
24
00
3C
7E
66
FE
FE
60
7E
3C
ENDCHAR
STARTCHAR uni0208
ENCODING 520
SWIDTH 293 0
DWIDTH 4 0
BBX 5 15 -1 0
BITMAP
50
F0
58
70
00
30
30
30
30
30
30
30
30
30
30
ENDCHAR
STARTCHAR uni0209
ENCODING 521
SWIDTH 282 0
DWIDTH 4 0
BBX 5 13 -1 0
BITMAP
50
F0
58
70
00
30
30
30
30
30
30
30
30
ENDCHAR
STARTCHAR uni020A
ENCODING 522
SWIDTH 293 0
DWIDTH 4 0
BBX 4 14 0 0
BITMAP
60
F0
90
00
60
60
60
60
60
60
60
60
60
60
ENDCHAR
STARTCHAR uni020B
ENCODING 523
SWIDTH 282 0
DWIDTH 4 0
BBX 4 12 0 0
BITMAP
60
F0
90
00
60
60
60
60
60
60
60
60
ENDCHAR
STARTCHAR uni020C
ENCODING 524
SWIDTH 691 0
DWIDTH 10 0
BBX 9 15 0 0
BITMAP
2400
3C00
3400
1600
0000
1E00
7F00
6380
6180
E180
E180
6180
6380
7F00
1E00
ENDCHAR
STARTCHAR uni020D
ENCODING 525
SWIDTH 584 0
DWIDTH 8 0
BBX 8 13 0 0
BITMAP
28
78
3C
24
00
3C
7E
67
E7
E7
67
7E
3C
ENDCHAR
STARTCHAR uni020E
ENCODING 526
SWIDTH 691 0
DWIDTH 10 0
BBX 9 14 0 0
BITMAP
0C00
1E00
3200
0000
1E00
7F00
6380
6180
E180
E180
6180
6380
7F00
1E00
ENDCHAR
STARTCHAR uni020F
ENCODING 527
SWIDTH 584 0
DWIDTH 8 0
BBX 8 12 0 0
BITMAP
18
3C
26
00
3C
7E
67
E7
E7
67
7E
3C
ENDCHAR
STARTCHAR uni0210
ENCODING 528
SWIDTH 617 0
DWIDTH 9 0
BBX 8 15 1 0
BITMAP
50
F0
58
68
00
FC
FE
C6
C6
FE
F8
DC
CC
CE
C7
ENDCHAR
STARTCHAR uni0211
ENCODING 529
SWIDTH 401 0
DWIDTH 6 0
BBX 6 13 0 0
BITMAP
50
D8
78
48
00
6C
78
60
60
60
60
60
60
ENDCHAR
STARTCHAR uni0212
ENCODING 530
SWIDTH 617 0
DWIDTH 9 0
BBX 8 14 1 0
BITMAP
30
78
4C
00
FC
FE
C6
C6
FE
F8
DC
CC
CE
C7
ENDCHAR
STARTCHAR uni0213
ENCODING 531
SWIDTH 401 0
DWIDTH 6 0
BBX 5 12 1 0
BITMAP
60
F0
98
00
D8
F0
C0
C0
C0
C0
C0
C0
ENDCHAR
STARTCHAR uni0214
ENCODING 532
SWIDTH 651 0
DWIDTH 9 0
BBX 7 15 1 0
BITMAP
48
D8
78
28
00
C6
C6
C6
C6
C6
C6
C6
C6
FE
7C
ENDCHAR
STARTCHAR uni0215
ENCODING 533
SWIDTH 572 0
DWIDTH 8 0
BBX 6 13 1 0
BITMAP
50
F0
58
70
00
CC
CC
CC
CC
CC
CC
FC
FC
ENDCHAR
STARTCHAR uni0216
ENCODING 534
SWIDTH 651 0
DWIDTH 9 0
BBX 7 14 1 0
BITMAP
10
3C
6C
00
C6
C6
C6
C6
C6
C6
C6
C6
FE
7C
ENDCHAR
STARTCHAR uni0217
ENCODING 535
SWIDTH 572 0
DWIDTH 8 0
BBX 6 12 1 0
BITMAP
30
78
48
00
CC
CC
CC
CC
CC
CC
FC
FC
ENDCHAR
STARTCHAR Scommaaccent
ENCODING 536
SWIDTH 572 0
DWIDTH 8 0
BBX 8 15 0 -5
BITMAP
3C
7E
62
70
7C
1E
07
47
FE
7C
00
18
18
18
10
ENDCHAR
STARTCHAR scommaaccent
ENCODING 537
SWIDTH 483 0
DWIDTH 7 0
BBX 7 13 0 -5
BITMAP
7C
7C
E0
78
3C
0E
FC
78
00
30
38
10
30
ENDCHAR
STARTCHAR uni021A
ENCODING 538
SWIDTH 540 0
DWIDTH 8 0
BBX 8 15 0 -5
BITMAP
FF
FE
18
18
18
18
18
18
18
18
00
18
18
18
10
ENDCHAR
STARTCHAR uni021B
ENCODING 539
SWIDTH 386 0
DWIDTH 5 0
BBX 6 15 0 -5
BITMAP
60
60
F8
F8
60
60
60
60
78
3C
00
30
30
10
30
ENDCHAR
STARTCHAR uni021C
ENCODING 540
SWIDTH 520 0
DWIDTH 7 0
BBX 7 12 0 -2
BITMAP
78
FC
4E
0E
3C
3C
0E
06
0E
1C
78
60
ENDCHAR
STARTCHAR uni021D
ENCODING 541
SWIDTH 481 0
DWIDTH 7 0
BBX 6 10 0 -2
BITMAP
78
FC
0C
38
3C
0C
0C
3C
70
40
ENDCHAR
STARTCHAR uni021E
ENCODING 542
SWIDTH 666 0
DWIDTH 9 0
BBX 7 14 1 0
BITMAP
44
7C
38
00
C6
C6
C6
C6
FE
FE
C6
C6
C6
C6
ENDCHAR
STARTCHAR uni021F
ENCODING 543
SWIDTH 577 0
DWIDTH 8 0
BBX 6 15 1 0
BITMAP
48
FC
30
00
C0
C0
C0
DC
FC
CC
CC
CC
CC
CC
CC
ENDCHAR
STARTCHAR uni0220
ENCODING 544
SWIDTH 654 0
DWIDTH 9 0
BBX 7 13 1 -3
BITMAP
DC
FE
C6
C6
C6
C6
C6
C6
C6
C6
06
06
06
ENDCHAR
STARTCHAR uni0221
ENCODING 545
SWIDTH 788 0
DWIDTH 11 0
BBX 10 12 1 -1
BITMAP
0E00
0E00
0E00
7E00
FE00
CE00
CE00
CFC0
CFC0
FFC0
7780
0600
ENDCHAR
STARTCHAR uni0222
ENCODING 546
SWIDTH 651 0
DWIDTH 9 0
BBX 9 10 0 0
BITMAP
6300
6300
6300
3F00
7F00
6300
E380
6380
7F00
3E00
ENDCHAR
STARTCHAR uni0223
ENCODING 547
SWIDTH 578 0
DWIDTH 8 0
BBX 8 11 0 0
BITMAP
66
66
66
66
3C
7E
67
E7
67
7E
3C
ENDCHAR
STARTCHAR uni0224
ENCODING 548
SWIDTH 538 0
DWIDTH 8 0
BBX 7 13 0 -3
BITMAP
7E
7E
0E
1C
18
38
70
60
FE
FE
06
1E
3C
ENDCHAR
STARTCHAR uni0225
ENCODING 549
SWIDTH 453 0
DWIDTH 6 0
BBX 6 11 0 -3
BITMAP
FC
FC
18
38
30
60
FC
FC
0C
3C
78
ENDCHAR
STARTCHAR uni0226
ENCODING 550
SWIDTH 590 0
DWIDTH 8 0
BBX 8 14 0 0
BITMAP
18
18
18
00
1C
3C
3C
36
66
66
7E
7F
E3
C3
ENDCHAR
STARTCHAR uni0227
ENCODING 551
SWIDTH 548 0
DWIDTH 8 0
BBX 7 12 0 0
BITMAP
18
38
18
00
7C
7E
06
3E
7E
E6
7E
76
ENDCHAR
STARTCHAR uni0228
ENCODING 552
SWIDTH 526 0
DWIDTH 7 0
BBX 6 14 1 -4
BITMAP
FC
FC
C0
C0
F8
F8
C0
C0
FC
FC
20
18
38
70
ENDCHAR
STARTCHAR uni0229
ENCODING 553
SWIDTH 552 0
DWIDTH 8 0
BBX 7 12 0 -4
BITMAP
3C
7E
66
7E
FE
60
62
7E
18
1C
1C
1C
ENDCHAR
STARTCHAR uni022A
ENCODING 554
SWIDTH 691 0
DWIDTH 10 0
BBX 9 16 0 0
BITMAP
1E00
1E00
0000
0000
3700
3600
1E00
7F00
6380
6180
E180
E180
6180
6380
7F00
1E00
ENDCHAR
STARTCHAR uni022B
ENCODING 555
SWIDTH 584 0
DWIDTH 8 0
BBX 8 14 0 0
BITMAP
3C
3C
00
00
76
66
3C
7E
67
E7
E7
67
7E
3C
ENDCHAR
STARTCHAR uni022C
ENCODING 556
SWIDTH 691 0
DWIDTH 10 0
BBX 9 15 0 0
BITMAP
1E00
1E00
1E00
3E00
0000
1E00
7F00
6380
6180
E180
E180
6180
6380
7F00
1E00
ENDCHAR
STARTCHAR uni022D
ENCODING 557
SWIDTH 584 0
DWIDTH 8 0
BBX 8 14 0 0
BITMAP
3C
3C
00
00
3E
7C
3C
7E
67
E7
E7
67
7E
3C
ENDCHAR
STARTCHAR uni022E
ENCODING 558
SWIDTH 691 0
DWIDTH 10 0
BBX 9 14 0 0
BITMAP
0C00
0C00
0C00
0000
1E00
7F00
6380
6180
E180
E180
6180
6380
7F00
1E00
ENDCHAR
STARTCHAR uni022F
ENCODING 559
SWIDTH 584 0
DWIDTH 8 0
BBX 8 12 0 0
BITMAP
18
18
18
00
3C
7E
67
E7
E7
67
7E
3C
ENDCHAR
STARTCHAR uni0230
ENCODING 560
SWIDTH 691 0
DWIDTH 10 0
BBX 9 15 0 0
BITMAP
1E00
1E00
1C00
0C00
0000
1E00
7F00
6380
6180
E180
E180
6180
6380
7F00
1E00
ENDCHAR
STARTCHAR uni0231
ENCODING 561
SWIDTH 584 0
DWIDTH 8 0
BBX 8 14 0 0
BITMAP
3C
3C
00
18
18
18
3C
7E
67
E7
E7
67
7E
3C
ENDCHAR
STARTCHAR uni0232
ENCODING 562
SWIDTH 594 0
DWIDTH 8 0
BBX 8 13 0 0
BITMAP
3C
3C
00
E3
67
66
36
3C
1C
18
18
18
18
ENDCHAR
STARTCHAR uni0233
ENCODING 563
SWIDTH 518 0
DWIDTH 7 0
BBX 7 15 0 -3
BITMAP
7C
7C
00
00
C6
E6
6E
6C
6C
6C
38
38
18
70
60
ENDCHAR
STARTCHAR uni0234
ENCODING 564
SWIDTH 466 0
DWIDTH 7 0
BBX 6 13 1 -1
BITMAP
20
C0
C0
C0
C0
C0
C0
C0
D8
FC
FC
78
40
ENDCHAR
STARTCHAR uni0235
ENCODING 565
SWIDTH 771 0
DWIDTH 11 0
BBX 10 9 1 -1
BITMAP
DC00
FC00
CC00
CC00
CD80
CFC0
CFC0
C780
0400
ENDCHAR
STARTCHAR uni0236
ENCODING 566
SWIDTH 485 0
DWIDTH 7 0
BBX 7 11 0 -1
BITMAP
60
60
F8
F8
60
60
6C
7E
7E
3C
20
ENDCHAR
STARTCHAR uni0237
ENCODING 567
SWIDTH 281 0
DWIDTH 4 0
BBX 4 11 -1 -3
BITMAP
30
30
30
30
30
30
30
30
70
E0
40
ENDCHAR
STARTCHAR uni0238
ENCODING 568
SWIDTH 875 0
DWIDTH 12 0
BBX 11 11 1 0
BITMAP
0C00
0C00
0C00
7DC0
FFC0
CCE0
CCE0
CCE0
CCE0
FFC0
7D80
ENDCHAR
STARTCHAR uni0239
ENCODING 569
SWIDTH 875 0
DWIDTH 12 0
BBX 11 11 1 -3
BITMAP
7DC0
FFC0
CCE0
CCE0
CCE0
CCE0
FFC0
7D80
0C00
0C00
0C00
ENDCHAR
STARTCHAR uni023A
ENCODING 570
SWIDTH 590 0
DWIDTH 8 0
BBX 8 12 0 -1
BITMAP
04
1C
3C
3C
3E
6E
6E
7E
7F
D3
D3
20
ENDCHAR
STARTCHAR uni023B
ENCODING 571
SWIDTH 575 0
DWIDTH 8 0
BBX 8 12 0 -1
BITMAP
02
1E
3F
64
64
E8
E8
68
68
7F
1E
10
ENDCHAR
STARTCHAR uni023C
ENCODING 572
SWIDTH 479 0
DWIDTH 7 0
BBX 7 10 0 -1
BITMAP
04
3E
7C
68
E8
F0
70
7C
3E
20
ENDCHAR
STARTCHAR uni023D
ENCODING 573
SWIDTH 530 0
DWIDTH 7 0
BBX 7 10 0 0
BITMAP
60
60
60
60
F8
F8
60
60
7E
7E
ENDCHAR
STARTCHAR uni023E
ENCODING 574
SWIDTH 540 0
DWIDTH 8 0
BBX 8 12 0 -1
BITMAP
02
FF
FE
1C
18
18
18
18
18
38
38
40
ENDCHAR
STARTCHAR uni023F
ENCODING 575
SWIDTH 484 0
DWIDTH 7 0
BBX 7 11 0 -3
BITMAP
7C
7C
E0
78
3C
0E
FC
78
30
1C
1C
ENDCHAR
STARTCHAR uni0240
ENCODING 576
SWIDTH 437 0
DWIDTH 6 0
BBX 7 11 0 -3
BITMAP
FC
FC
18
38
70
60
C0
F0
30
1C
0E
ENDCHAR
STARTCHAR uni0241
ENCODING 577
SWIDTH 509 0
DWIDTH 7 0
BBX 7 10 0 0
BITMAP
78
FC
4E
0E
0E
3C
30
30
30
30
ENDCHAR
STARTCHAR uni0242
ENCODING 578
SWIDTH 463 0
DWIDTH 6 0
BBX 6 8 0 0
BITMAP
78
FC
0C
0C
1C
38
30
30
ENDCHAR
STARTCHAR uni0243
ENCODING 579
SWIDTH 631 0
DWIDTH 9 0
BBX 8 10 0 0
BITMAP
7E
7F
63
63
7E
7F
FB
FB
7F
7E
ENDCHAR
STARTCHAR uni0244
ENCODING 580
SWIDTH 681 0
DWIDTH 10 0
BBX 9 10 0 0
BITMAP
6380
FF80
FF80
6380
6380
6380
6380
6300
7F00
1E00
ENDCHAR
STARTCHAR uni0245
ENCODING 581
SWIDTH 590 0
DWIDTH 8 0
BBX 8 10 0 0
BITMAP
1C
3C
3C
36
66
66
66
67
E3
C3
ENDCHAR
STARTCHAR uni0246
ENCODING 582
SWIDTH 526 0
DWIDTH 7 0
BBX 6 12 1 -1
BITMAP
08
FC
FC
C8
D0
F8
F8
D0
E0
FC
FC
20
ENDCHAR
STARTCHAR uni0247
ENCODING 583
SWIDTH 552 0
DWIDTH 8 0
BBX 7 10 0 -1
BITMAP
04
3C
7E
6E
FE
FE
70
7E
3C
20
ENDCHAR
STARTCHAR uni0248
ENCODING 584
SWIDTH 337 0
DWIDTH 5 0
BBX 5 13 0 -3
BITMAP
70
70
70
70
F8
F8
70
70
70
70
60
C0
80
ENDCHAR
STARTCHAR uni0249
ENCODING 585
SWIDTH 331 0
DWIDTH 5 0
BBX 5 15 0 -3
BITMAP
60
70
60
00
60
60
60
F8
F8
60
60
60
60
E0
80
ENDCHAR
STARTCHAR uni024A
ENCODING 586
SWIDTH 673 0
DWIDTH 9 0
BBX 11 13 0 -3
BITMAP
3F80
7F80
6380
6380
E380
E380
6380
6380
7F80
3F80
0380
03E0
01E0
ENDCHAR
STARTCHAR uni024B
ENCODING 587
SWIDTH 600 0
DWIDTH 8 0
BBX 8 11 1 -3
BITMAP
76
FE
CE
CE
CE
CE
FE
7E
0E
0E
07
ENDCHAR
STARTCHAR uni024C
ENCODING 588
SWIDTH 631 0
DWIDTH 9 0
BBX 9 10 0 0
BITMAP
7E00
7F00
6300
6300
FF00
FE00
6600
6600
6300
6380
ENDCHAR
STARTCHAR uni024D
ENCODING 589
SWIDTH 424 0
DWIDTH 6 0
BBX 6 8 0 0
BITMAP
6C
7C
70
70
F8
F8
60
60
ENDCHAR
STARTCHAR uni024E
ENCODING 590
SWIDTH 594 0
DWIDTH 8 0
BBX 8 10 0 0
BITMAP
E3
FF
66
36
3C
1C
18
18
18
18
ENDCHAR
STARTCHAR uni024F
ENCODING 591
SWIDTH 541 0
DWIDTH 8 0
BBX 7 11 0 -3
BITMAP
E6
66
FE
6C
6C
3C
3C
38
18
70
60
ENDCHAR
STARTCHAR uni0250
ENCODING 592
SWIDTH 548 0
DWIDTH 8 0
BBX 7 8 0 0
BITMAP
5C
FE
66
7E
7C
60
7C
3E
ENDCHAR
STARTCHAR uni0251
ENCODING 593
SWIDTH 597 0
DWIDTH 8 0
BBX 8 8 0 0
BITMAP
3E
7E
66
E6
E6
66
7F
3B
ENDCHAR
STARTCHAR uni0252
ENCODING 594
SWIDTH 597 0
DWIDTH 8 0
BBX 8 8 0 0
BITMAP
4E
FE
67
63
63
67
7E
7C
ENDCHAR
STARTCHAR uni0253
ENCODING 595
SWIDTH 597 0
DWIDTH 8 0
BBX 7 11 1 0
BITMAP
78
F0
C0
DC
FC
CE
C6
C6
CE
FC
F8
ENDCHAR
STARTCHAR uni0254
ENCODING 596
SWIDTH 476 0
DWIDTH 7 0
BBX 6 8 0 0
BITMAP
78
FC
0C
0C
0C
0C
7C
F8
ENDCHAR
STARTCHAR uni0255
ENCODING 597
SWIDTH 501 0
DWIDTH 7 0
BBX 7 9 0 -1
BITMAP
3E
7C
60
E0
EC
7E
7E
3C
20
ENDCHAR
STARTCHAR uni0256
ENCODING 598
SWIDTH 600 0
DWIDTH 8 0
BBX 9 14 1 -3
BITMAP
0E00
0E00
0E00
7E00
FE00
CE00
CE00
CE00
CE00
FE00
7E00
0E00
0780
0780
ENDCHAR
STARTCHAR uni0257
ENCODING 599
SWIDTH 600 0
DWIDTH 8 0
BBX 9 11 1 0
BITMAP
0780
0700
0E00
7E00
FE00
CE00
CE00
CE00
CE00
FE00
7600
ENDCHAR
STARTCHAR uni0258
ENCODING 600
SWIDTH 552 0
DWIDTH 8 0
BBX 7 8 0 0
BITMAP
3C
7E
66
FE
FE
06
7E
7C
ENDCHAR
STARTCHAR uni0259
ENCODING 601
SWIDTH 556 0
DWIDTH 8 0
BBX 7 8 0 0
BITMAP
3C
7E
06
FE
FE
66
7E
3C
ENDCHAR
STARTCHAR uni025A
ENCODING 602
SWIDTH 826 0
DWIDTH 12 0
BBX 12 8 0 0
BITMAP
3DC0
7FC0
06F0
FE60
FE00
6600
7E00
3C00
ENDCHAR
STARTCHAR uni025B
ENCODING 603
SWIDTH 480 0
DWIDTH 7 0
BBX 7 8 0 0
BITMAP
3C
7C
60
38
78
E0
7C
3E
ENDCHAR
STARTCHAR uni025C
ENCODING 604
SWIDTH 498 0
DWIDTH 7 0
BBX 7 8 0 0
BITMAP
78
FC
0C
38
3C
0E
FC
78
ENDCHAR
STARTCHAR uni025D
ENCODING 605
SWIDTH 758 0
DWIDTH 11 0
BBX 11 8 0 0
BITMAP
FB80
7F80
0DE0
38C0
3C00
0E00
FC00
7800
ENDCHAR
STARTCHAR uni025E
ENCODING 606
SWIDTH 573 0
DWIDTH 8 0
BBX 8 8 0 0
BITMAP
3C
7E
66
EC
EE
67
7E
3C
ENDCHAR
STARTCHAR uni025F
ENCODING 607
SWIDTH 331 0
DWIDTH 5 0
BBX 5 11 0 -3
BITMAP
60
60
60
F8
F8
60
60
60
60
E0
80
ENDCHAR
STARTCHAR uni0260
ENCODING 608
SWIDTH 600 0
DWIDTH 8 0
BBX 9 14 1 -3
BITMAP
0780
0700
0E00
7E00
FE00
CE00
CE00
CE00
CE00
FE00
7E00
0C00
7C00
F800
ENDCHAR
STARTCHAR uni0261
ENCODING 609
SWIDTH 600 0
DWIDTH 8 0
BBX 7 11 1 -3
BITMAP
76
FE
CE
CE
CE
CE
FE
7E
0C
7C
F8
ENDCHAR
STARTCHAR uni0262
ENCODING 610
SWIDTH 560 0
DWIDTH 8 0
BBX 7 8 0 0
BITMAP
3C
7E
60
EE
EE
66
7E
3C
ENDCHAR
STARTCHAR uni0263
ENCODING 611
SWIDTH 518 0
DWIDTH 7 0
BBX 7 11 0 -3
BITMAP
C6
66
6C
6C
3C
38
18
38
2C
3C
38
ENDCHAR
STARTCHAR uni0264
ENCODING 612
SWIDTH 560 0
DWIDTH 8 0
BBX 8 8 0 0
BITMAP
E7
E6
3C
38
18
3C
3C
38
ENDCHAR
STARTCHAR uni0265
ENCODING 613
SWIDTH 577 0
DWIDTH 8 0
BBX 6 11 1 -3
BITMAP
CC
CC
CC
CC
CC
CC
FC
EC
0C
0C
0C
ENDCHAR
STARTCHAR uni0266
ENCODING 614
SWIDTH 577 0
DWIDTH 8 0
BBX 6 11 1 0
BITMAP
78
F0
C0
DC
FC
CC
CC
CC
CC
CC
CC
ENDCHAR
STARTCHAR uni0267
ENCODING 615
SWIDTH 577 0
DWIDTH 8 0
BBX 6 14 1 -3
BITMAP
78
F0
C0
DC
FC
CC
CC
CC
CC
CC
CC
0C
3C
38
ENDCHAR
STARTCHAR uni0268
ENCODING 616
SWIDTH 330 0
DWIDTH 5 0
BBX 5 12 0 0
BITMAP
60
70
60
00
60
60
60
F8
F8
60
60
60
ENDCHAR
STARTCHAR uni0269
ENCODING 617
SWIDTH 297 0
DWIDTH 4 0
BBX 3 8 1 0
BITMAP
C0
C0
C0
C0
C0
C0
E0
E0
ENDCHAR
STARTCHAR uni026A
ENCODING 618
SWIDTH 337 0
DWIDTH 5 0
BBX 5 8 0 0
BITMAP
F8
F8
60
60
60
60
F8
F8
ENDCHAR
STARTCHAR uni026B
ENCODING 619
SWIDTH 458 0
DWIDTH 6 0
BBX 7 11 0 0
BITMAP
30
30
30
30
76
FC
B8
30
30
38
18
ENDCHAR
STARTCHAR uni026C
ENCODING 620
SWIDTH 427 0
DWIDTH 6 0
BBX 6 11 0 0
BITMAP
30
30
30
30
F0
B0
FC
30
30
38
1C
ENDCHAR
STARTCHAR uni026D
ENCODING 621
SWIDTH 282 0
DWIDTH 4 0
BBX 5 14 1 -3
BITMAP
C0
C0
C0
C0
C0
C0
C0
C0
C0
C0
C0
C0
F0
78
ENDCHAR
STARTCHAR uni026E
ENCODING 622
SWIDTH 708 0
DWIDTH 10 0
BBX 9 14 1 -3
BITMAP
C000
C000
C000
FF00
FF00
C600
CE00
CC00
DF00
E300
E380
0380
3F00
1E00
ENDCHAR
STARTCHAR uni026F
ENCODING 623
SWIDTH 845 0
DWIDTH 12 0
BBX 10 8 1 0
BITMAP
CCC0
CCC0
CCC0
CCC0
CCC0
CCC0
FFC0
EEC0
ENDCHAR
STARTCHAR uni0270
ENCODING 624
SWIDTH 845 0
DWIDTH 12 0
BBX 10 11 1 -3
BITMAP
CCC0
CCC0
CCC0
CCC0
CCC0
CCC0
FFC0
EEC0
00C0
00C0
00C0
ENDCHAR
STARTCHAR uni0271
ENCODING 625
SWIDTH 845 0
DWIDTH 12 0
BBX 10 11 1 -3
BITMAP
D980
FFC0
CCC0
CCC0
CCC0
CCC0
CCC0
CCC0
00C0
03C0
0780
ENDCHAR
STARTCHAR uni0272
ENCODING 626
SWIDTH 577 0
DWIDTH 8 0
BBX 9 11 -2 -3
BITMAP
1B80
1F80
1980
1980
1980
1980
1980
1980
1800
7800
F000
ENDCHAR
STARTCHAR uni0273
ENCODING 627
SWIDTH 577 0
DWIDTH 8 0
BBX 9 11 1 -3
BITMAP
DC00
FC00
CC00
CC00
CC00
CC00
CC00
CC00
0C00
0F00
0780
ENDCHAR
STARTCHAR uni0274
ENCODING 628
SWIDTH 588 0
DWIDTH 8 0
BBX 6 8 1 0
BITMAP
EC
EC
EC
FC
F4
DC
DC
CC
ENDCHAR
STARTCHAR uni0275
ENCODING 629
SWIDTH 584 0
DWIDTH 8 0
BBX 8 8 0 0
BITMAP
3C
7E
67
FF
FF
67
7E
3C
ENDCHAR
STARTCHAR uni0276
ENCODING 630
SWIDTH 768 0
DWIDTH 11 0
BBX 10 8 0 0
BITMAP
3FC0
7FC0
6600
E7C0
E7C0
6600
7FC0
3FC0
ENDCHAR
STARTCHAR uni0277
ENCODING 631
SWIDTH 764 0
DWIDTH 11 0
BBX 10 8 0 0
BITMAP
1F00
7F80
60C0
64C0
ECC0
6CC0
7FC0
3B80
ENDCHAR
STARTCHAR uni0278
ENCODING 632
SWIDTH 663 0
DWIDTH 9 0
BBX 9 14 0 -3
BITMAP
0C00
0C00
0C00
3E00
7F00
6D80
ED80
ED80
6D80
7F00
3E00
0C00
0C00
0C00
ENDCHAR
STARTCHAR uni0279
ENCODING 633
SWIDTH 401 0
DWIDTH 6 0
BBX 5 8 0 0
BITMAP
18
18
18
18
38
38
F8
D8
ENDCHAR
STARTCHAR uni027A
ENCODING 634
SWIDTH 401 0
DWIDTH 6 0
BBX 5 11 0 0
BITMAP
18
18
18
18
18
18
18
18
38
F8
D8
ENDCHAR
STARTCHAR uni027B
ENCODING 635
SWIDTH 401 0
DWIDTH 6 0
BBX 7 11 0 -3
BITMAP
18
18
18
18
38
38
F8
D8
18
1E
1E
ENDCHAR
STARTCHAR uni027C
ENCODING 636
SWIDTH 401 0
DWIDTH 6 0
BBX 5 11 1 -3
BITMAP
D8
F0
C0
C0
C0
C0
C0
C0
C0
C0
80
ENDCHAR
STARTCHAR uni027D
ENCODING 637
SWIDTH 401 0
DWIDTH 6 0
BBX 5 11 1 -3
BITMAP
D8
F0
C0
C0
C0
C0
C0
C0
C0
F0
78
ENDCHAR
STARTCHAR uni027E
ENCODING 638
SWIDTH 392 0
DWIDTH 5 0
BBX 5 8 1 0
BITMAP
78
F0
C0
C0
C0
C0
C0
C0
ENDCHAR
STARTCHAR uni027F
ENCODING 639
SWIDTH 392 0
DWIDTH 5 0
BBX 5 8 0 0
BITMAP
F0
F0
38
38
38
38
38
38
ENDCHAR
STARTCHAR uni0280
ENCODING 640
SWIDTH 530 0
DWIDTH 7 0
BBX 6 8 1 0
BITMAP
F8
FC
CC
CC
F8
F8
D8
CC
ENDCHAR
STARTCHAR uni0281
ENCODING 641
SWIDTH 530 0
DWIDTH 7 0
BBX 6 8 1 0
BITMAP
CC
DC
D8
F8
FC
CC
DC
F8
ENDCHAR
STARTCHAR uni0282
ENCODING 642
SWIDTH 483 0
DWIDTH 7 0
BBX 7 11 0 -3
BITMAP
7C
7C
E0
78
3C
0E
FC
F8
C0
F0
78
ENDCHAR
STARTCHAR uni0283
ENCODING 643
SWIDTH 282 0
DWIDTH 4 0
BBX 7 14 -2 -3
BITMAP
0E
1E
18
18
18
18
18
18
18
18
18
18
78
F0
ENDCHAR
STARTCHAR uni0284
ENCODING 644
SWIDTH 331 0
DWIDTH 5 0
BBX 6 14 0 -3
BITMAP
3C
78
60
60
60
60
60
60
60
F8
F8
60
E0
C0
ENDCHAR
STARTCHAR uni0285
ENCODING 645
SWIDTH 485 0
DWIDTH 7 0
BBX 7 8 0 0
BITMAP
E0
F0
30
30
30
30
3C
1E
ENDCHAR
STARTCHAR uni0286
ENCODING 646
SWIDTH 339 0
DWIDTH 5 0
BBX 7 14 -1 -3
BITMAP
0E
1E
18
18
18
18
18
18
18
18
78
9C
B0
F0
ENDCHAR
STARTCHAR uni0287
ENCODING 647
SWIDTH 386 0
DWIDTH 5 0
BBX 5 10 0 -2
BITMAP
F0
F0
30
30
30
30
78
F8
30
30
ENDCHAR
STARTCHAR uni0288
ENCODING 648
SWIDTH 386 0
DWIDTH 5 0
BBX 6 13 0 -3
BITMAP
60
60
F8
F8
60
60
60
60
60
60
60
78
3C
ENDCHAR
STARTCHAR uni0289
ENCODING 649
SWIDTH 616 0
DWIDTH 9 0
BBX 9 8 0 0
BITMAP
6600
6600
FF80
FF80
6600
6600
7E00
3E00
ENDCHAR
STARTCHAR uni028A
ENCODING 650
SWIDTH 583 0
DWIDTH 8 0
BBX 8 8 0 0
BITMAP
77
77
66
67
E7
67
7E
3C
ENDCHAR
STARTCHAR uni028B
ENCODING 651
SWIDTH 568 0
DWIDTH 8 0
BBX 6 8 1 0
BITMAP
DC
DC
CC
CC
CC
CC
FC
78
ENDCHAR
STARTCHAR uni028C
ENCODING 652
SWIDTH 513 0
DWIDTH 7 0
BBX 7 8 0 0
BITMAP
38
38
2C
6C
6C
6E
E6
C6
ENDCHAR
STARTCHAR uni028D
ENCODING 653
SWIDTH 749 0
DWIDTH 10 0
BBX 10 8 0 0
BITMAP
3380
7B80
7A80
7AC0
6EC0
6EC0
CEC0
CCC0
ENDCHAR
STARTCHAR uni028E
ENCODING 654
SWIDTH 518 0
DWIDTH 7 0
BBX 7 11 0 0
BITMAP
0E
1C
18
38
38
2C
6C
6C
6E
E6
C6
ENDCHAR
STARTCHAR uni028F
ENCODING 655
SWIDTH 498 0
DWIDTH 7 0
BBX 7 8 0 0
BITMAP
C6
6C
6C
38
38
38
38
38
ENDCHAR
STARTCHAR uni0290
ENCODING 656
SWIDTH 459 0
DWIDTH 6 0
BBX 9 11 0 -3
BITMAP
FC00
FC00
1800
3800
3000
6000
FC00
FC00
0C00
0F00
0780
ENDCHAR
STARTCHAR uni0291
ENCODING 657
SWIDTH 544 0
DWIDTH 8 0
BBX 8 10 0 -2
BITMAP
FC
FC
18
38
36
6B
FF
FE
08
08
ENDCHAR
STARTCHAR uni0292
ENCODING 658
SWIDTH 510 0
DWIDTH 7 0
BBX 7 11 0 -3
BITMAP
FC
FC
1C
38
30
3C
0E
06
4E
FC
78
ENDCHAR
STARTCHAR uni0293
ENCODING 659
SWIDTH 510 0
DWIDTH 7 0
BBX 7 12 0 -4
BITMAP
FC
FC
1C
38
30
3C
0E
E6
AE
FC
78
08
ENDCHAR
STARTCHAR uni0294
ENCODING 660
SWIDTH 478 0
DWIDTH 7 0
BBX 6 11 0 0
BITMAP
78
FC
8C
0C
0C
1C
30
30
30
30
30
ENDCHAR
STARTCHAR uni0295
ENCODING 661
SWIDTH 478 0
DWIDTH 7 0
BBX 7 11 0 0
BITMAP
3C
7E
E4
E0
E0
70
38
18
18
18
18
ENDCHAR
STARTCHAR uni0296
ENCODING 662
SWIDTH 512 0
DWIDTH 7 0
BBX 7 11 0 0
BITMAP
30
30
30
30
38
1C
0E
0E
0E
FC
78
ENDCHAR
STARTCHAR uni0297
ENCODING 663
SWIDTH 488 0
DWIDTH 7 0
BBX 6 11 1 -3
BITMAP
3C
78
C0
C0
C0
C0
C0
C0
C0
78
3C
ENDCHAR
STARTCHAR uni0298
ENCODING 664
SWIDTH 798 0
DWIDTH 11 0
BBX 11 10 0 0
BITMAP
1F00
3F80
60C0
60E0
EE60
E660
60E0
60C0
3F80
1F00
ENDCHAR
STARTCHAR uni0299
ENCODING 665
SWIDTH 557 0
DWIDTH 8 0
BBX 6 8 1 0
BITMAP
F8
FC
CC
F8
CC
CC
FC
F8
ENDCHAR
STARTCHAR uni029A
ENCODING 666
SWIDTH 573 0
DWIDTH 8 0
BBX 8 8 0 0
BITMAP
3C
7E
66
37
77
E6
7E
3C
ENDCHAR
STARTCHAR uni029B
ENCODING 667
SWIDTH 560 0
DWIDTH 8 0
BBX 9 11 0 0
BITMAP
0380
0780
0600
3E00
7E00
6000
EE00
EE00
6600
7E00
3E00
ENDCHAR
STARTCHAR uni029C
ENCODING 668
SWIDTH 586 0
DWIDTH 8 0
BBX 6 8 1 0
BITMAP
CC
CC
CC
FC
FC
CC
CC
CC
ENDCHAR
STARTCHAR uni029D
ENCODING 669
SWIDTH 341 0
DWIDTH 5 0
BBX 6 15 -1 -3
BITMAP
18
38
18
00
18
18
18
18
18
18
18
78
9C
B0
F0
ENDCHAR
STARTCHAR uni029E
ENCODING 670
SWIDTH 552 0
DWIDTH 8 0
BBX 7 11 0 -3
BITMAP
E6
66
76
36
3E
36
66
E6
06
06
06
ENDCHAR
STARTCHAR uni029F
ENCODING 671
SWIDTH 450 0
DWIDTH 6 0
BBX 5 8 1 0
BITMAP
C0
C0
C0
C0
C0
C0
F8
F8
ENDCHAR
STARTCHAR uni02A0
ENCODING 672
SWIDTH 600 0
DWIDTH 8 0
BBX 9 14 1 -3
BITMAP
0780
0700
0E00
7E00
FE00
CE00
CE00
CE00
CE00
FE00
7E00
0E00
0E00
0E00
ENDCHAR
STARTCHAR uni02A1
ENCODING 673
SWIDTH 478 0
DWIDTH 7 0
BBX 6 11 0 0
BITMAP
78
FC
0C
0C
0C
38
30
78
78
30
30
ENDCHAR
STARTCHAR uni02A2
ENCODING 674
SWIDTH 478 0
DWIDTH 7 0
BBX 7 11 0 0
BITMAP
3C
7E
E0
E0
E0
78
18
7C
7C
18
18
ENDCHAR
STARTCHAR uni02A3
ENCODING 675
SWIDTH 982 0
DWIDTH 14 0
BBX 13 11 1 0
BITMAP
0E00
0E00
0E00
7FF0
FFF0
CE70
CE60
CEC0
CFC0
FFF8
77F0
ENDCHAR
STARTCHAR uni02A4
ENCODING 676
SWIDTH 1019 0
DWIDTH 14 0
BBX 13 14 1 -3
BITMAP
0E00
0E00
0E00
7FF8
FFF8
CE70
CE60
CEC0
CEF0
FE38
7618
0118
03F0
01E0
ENDCHAR
STARTCHAR uni02A5
ENCODING 677
SWIDTH 1066 0
DWIDTH 15 0
BBX 14 13 1 -2
BITMAP
0E00
0E00
0E00
7FF0
FFF0
CE70
CE60
CEDC
CFF4
FFFC
77F8
0020
0020
ENDCHAR
STARTCHAR uni02A6
ENCODING 678
SWIDTH 745 0
DWIDTH 10 0
BBX 10 10 0 0
BITMAP
2000
6000
FBC0
F7C0
6600
6780
61C0
70C0
3FC0
1F80
ENDCHAR
STARTCHAR uni02A7
ENCODING 679
SWIDTH 591 0
DWIDTH 8 0
BBX 10 14 0 -3
BITMAP
03C0
2780
6600
FE00
FE00
6600
6600
6600
6600
7E00
3E00
0600
1E00
1C00
ENDCHAR
STARTCHAR uni02A8
ENCODING 680
SWIDTH 819 0
DWIDTH 11 0
BBX 11 10 0 0
BITMAP
2000
6000
F9E0
FBE0
6600
6600
66E0
67E0
7FE0
3DE0
ENDCHAR
STARTCHAR uni02A9
ENCODING 681
SWIDTH 882 0
DWIDTH 12 0
BBX 12 14 0 -3
BITMAP
3C00
7C00
6000
FEE0
FFE0
6670
6670
6670
6670
6670
6670
0070
01E0
01E0
ENDCHAR
STARTCHAR uni02AA
ENCODING 682
SWIDTH 690 0
DWIDTH 10 0
BBX 8 11 1 0
BITMAP
C0
C0
C0
CF
DF
D8
DE
C7
C3
FF
7E
ENDCHAR
STARTCHAR uni02AB
ENCODING 683
SWIDTH 714 0
DWIDTH 10 0
BBX 9 11 1 0
BITMAP
C000
C000
C000
DF80
DF80
C300
C600
CE00
DC00
FF80
FF80
ENDCHAR
STARTCHAR uni02AC
ENCODING 684
SWIDTH 469 0
DWIDTH 7 0
BBX 6 10 0 0
BITMAP
D4
74
6C
68
00
00
D4
74
6C
68
ENDCHAR
STARTCHAR uni02AD
ENCODING 685
SWIDTH 365 0
DWIDTH 5 0
BBX 5 9 0 0
BITMAP
F8
F8
D8
00
00
00
F8
F8
D8
ENDCHAR
STARTCHAR uni02AE
ENCODING 686
SWIDTH 698 0
DWIDTH 10 0
BBX 9 11 0 -3
BITMAP
F180
F180
3980
3980
3980
3980
1F80
1D80
0180
0180
0180
ENDCHAR
STARTCHAR uni02AF
ENCODING 687
SWIDTH 698 0
DWIDTH 10 0
BBX 11 11 0 -3
BITMAP
F180
F180
3980
3980
3980
3980
1F80
1D80
0180
01E0
00E0
ENDCHAR
STARTCHAR uni02B0
ENCODING 688
SWIDTH 312 0
DWIDTH 4 0
BBX 4 6 0 6
BITMAP
40
C0
F0
D0
D0
D0
ENDCHAR
STARTCHAR uni02B1
ENCODING 689
SWIDTH 312 0
DWIDTH 4 0
BBX 4 5 0 6
BITMAP
60
C0
F0
D0
D0
ENDCHAR
STARTCHAR uni02B2
ENCODING 690
SWIDTH 211 0
DWIDTH 3 0
BBX 3 8 0 4
BITMAP
40
60
00
40
40
40
40
C0
ENDCHAR
STARTCHAR uni02B4
ENCODING 692
SWIDTH 248 0
DWIDTH 3 0
BBX 3 4 0 6
BITMAP
20
20
20
E0
ENDCHAR
STARTCHAR uni02B7
ENCODING 695
SWIDTH 469 0
DWIDTH 7 0
BBX 6 4 0 6
BITMAP
D4
74
6C
68
ENDCHAR
STARTCHAR uni02B8
ENCODING 696
SWIDTH 357 0
DWIDTH 5 0
BBX 5 6 0 4
BITMAP
D8
50
50
20
20
40
ENDCHAR
STARTCHAR uni02B9
ENCODING 697
SWIDTH 319 0
DWIDTH 4 0
BBX 3 4 1 6
BITMAP
60
C0
C0
80
ENDCHAR
STARTCHAR uni02BA
ENCODING 698
SWIDTH 513 0
DWIDTH 7 0
BBX 6 4 1 6
BITMAP
7C
D8
D0
B0
ENDCHAR
STARTCHAR uni02BB
ENCODING 699
SWIDTH 234 0
DWIDTH 3 0
BBX 3 4 0 9
BITMAP
60
40
E0
60
ENDCHAR
STARTCHAR uni02BC
ENCODING 700
SWIDTH 243 0
DWIDTH 3 0
BBX 3 4 0 8
BITMAP
60
E0
40
C0
ENDCHAR
STARTCHAR uni02BF
ENCODING 703
SWIDTH 199 0
DWIDTH 3 0
BBX 2 4 0 9
BITMAP
40
C0
C0
40
ENDCHAR
STARTCHAR uni02C0
ENCODING 704
SWIDTH 293 0
DWIDTH 4 0
BBX 4 4 0 9
BITMAP
E0
30
60
60
ENDCHAR
STARTCHAR circumflex
ENCODING 710
SWIDTH 439 0
DWIDTH 6 0
BBX 6 3 0 9
BITMAP
30
78
CC
ENDCHAR
STARTCHAR caron
ENCODING 711
SWIDTH 439 0
DWIDTH 6 0
BBX 6 3 0 9
BITMAP
4C
F8
30
ENDCHAR
STARTCHAR uni02C8
ENCODING 712
SWIDTH 199 0
DWIDTH 3 0
BBX 2 4 0 9
BITMAP
C0
C0
C0
C0
ENDCHAR
STARTCHAR uni02CA
ENCODING 714
SWIDTH 340 0
DWIDTH 5 0
BBX 4 3 0 9
BITMAP
30
F0
40
ENDCHAR
STARTCHAR uni02CB
ENCODING 715
SWIDTH 340 0
DWIDTH 5 0
BBX 4 3 0 9
BITMAP
60
F0
10
ENDCHAR
STARTCHAR uni02CC
ENCODING 716
SWIDTH 199 0
DWIDTH 3 0
BBX 2 4 0 -5
BITMAP
C0
C0
C0
C0
ENDCHAR
STARTCHAR uni02CE
ENCODING 718
SWIDTH 340 0
DWIDTH 5 0
BBX 4 3 0 -4
BITMAP
60
F0
10
ENDCHAR
STARTCHAR uni02CF
ENCODING 719
SWIDTH 340 0
DWIDTH 5 0
BBX 4 3 0 -4
BITMAP
30
F0
40
ENDCHAR
STARTCHAR uni02D0
ENCODING 720
SWIDTH 230 0
DWIDTH 3 0
BBX 3 7 0 0
BITMAP
E0
40
40
00
40
40
E0
ENDCHAR
STARTCHAR uni02D1
ENCODING 721
SWIDTH 230 0
DWIDTH 3 0
BBX 3 3 0 5
BITMAP
E0
40
40
ENDCHAR
STARTCHAR uni02D4
ENCODING 724
SWIDTH 422 0
DWIDTH 6 0
BBX 4 3 1 3
BITMAP
60
60
F0
ENDCHAR
STARTCHAR uni02D6
ENCODING 726
SWIDTH 487 0
DWIDTH 7 0
BBX 5 6 1 1
BITMAP
20
20
F8
F8
20
20
ENDCHAR
STARTCHAR uni02D7
ENCODING 727
SWIDTH 476 0
DWIDTH 7 0
BBX 5 2 1 4
BITMAP
F8
F8
ENDCHAR
STARTCHAR breve
ENCODING 728
SWIDTH 405 0
DWIDTH 6 0
BBX 5 3 0 9
BITMAP
C8
78
70
ENDCHAR
STARTCHAR dotaccent
ENCODING 729
SWIDTH 247 0
DWIDTH 3 0
BBX 3 3 0 9
BITMAP
60
E0
60
ENDCHAR
STARTCHAR ring
ENCODING 730
SWIDTH 338 0
DWIDTH 5 0
BBX 4 4 0 9
BITMAP
70
D0
D0
70
ENDCHAR
STARTCHAR ogonek
ENCODING 731
SWIDTH 292 0
DWIDTH 4 0
BBX 3 5 1 -4
BITMAP
20
40
80
E0
E0
ENDCHAR
STARTCHAR tilde
ENCODING 732
SWIDTH 436 0
DWIDTH 6 0
BBX 6 2 0 9
BITMAP
7C
F8
ENDCHAR
STARTCHAR hungarumlaut
ENCODING 733
SWIDTH 430 0
DWIDTH 6 0
BBX 6 4 0 9
BITMAP
48
6C
58
D0
ENDCHAR
STARTCHAR uni02DE
ENCODING 734
SWIDTH 418 0
DWIDTH 6 0
BBX 6 4 0 4
BITMAP
30
F0
BC
1C
ENDCHAR
STARTCHAR uni02E0
ENCODING 736
SWIDTH 359 0
DWIDTH 5 0
BBX 5 6 0 5
BITMAP
D8
50
50
20
50
30
ENDCHAR
STARTCHAR uni02E1
ENCODING 737
SWIDTH 186 0
DWIDTH 3 0
BBX 2 6 0 6
BITMAP
C0
C0
C0
C0
C0
40
ENDCHAR
STARTCHAR uni02E2
ENCODING 738
SWIDTH 308 0
DWIDTH 4 0
BBX 4 4 0 6
BITMAP
70
60
10
F0
ENDCHAR
STARTCHAR uni02E3
ENCODING 739
SWIDTH 348 0
DWIDTH 5 0
BBX 4 4 0 6
BITMAP
50
60
70
D0
ENDCHAR
STARTCHAR uni02E4
ENCODING 740
SWIDTH 327 0
DWIDTH 5 0
BBX 4 5 0 6
BITMAP
70
C0
40
20
20
ENDCHAR
STARTCHAR uni02E5
ENCODING 741
SWIDTH 369 0
DWIDTH 5 0
BBX 5 10 0 1
BITMAP
F8
F8
18
18
18
18
18
18
18
18
ENDCHAR
STARTCHAR uni02E6
ENCODING 742
SWIDTH 369 0
DWIDTH 5 0
BBX 5 10 0 0
BITMAP
18
18
F8
F8
18
18
18
18
18
18
ENDCHAR
STARTCHAR uni02E7
ENCODING 743
SWIDTH 369 0
DWIDTH 5 0
BBX 5 10 0 0
BITMAP
18
18
18
18
F8
F8
18
18
18
18
ENDCHAR
STARTCHAR uni02E8
ENCODING 744
SWIDTH 369 0
DWIDTH 5 0
BBX 5 10 0 0
BITMAP
18
18
18
18
18
18
F8
F8
18
18
ENDCHAR
STARTCHAR uni02E9
ENCODING 745
SWIDTH 369 0
DWIDTH 5 0
BBX 5 10 0 0
BITMAP
18
18
18
18
18
18
18
18
18
F8
ENDCHAR
STARTCHAR uni02EE
ENCODING 750
SWIDTH 411 0
DWIDTH 6 0
BBX 5 4 0 7
BITMAP
58
F8
58
D0
ENDCHAR
STARTCHAR gravecomb
ENCODING 768
SWIDTH 0 0
DWIDTH 0 0
BBX 4 3 -4 9
BITMAP
C0
F0
20
ENDCHAR
STARTCHAR acutecomb
ENCODING 769
SWIDTH 0 0
DWIDTH 0 0
BBX 4 3 -4 9
BITMAP
60
F0
80
ENDCHAR
STARTCHAR uni0302
ENCODING 770
SWIDTH 0 0
DWIDTH 0 0
BBX 6 3 -6 9
BITMAP
30
78
CC
ENDCHAR
STARTCHAR tildecomb
ENCODING 771
SWIDTH 0 0
DWIDTH 0 0
BBX 6 2 -6 9
BITMAP
7C
F8
ENDCHAR
STARTCHAR uni0304
ENCODING 772
SWIDTH 0 0
DWIDTH 0 0
BBX 5 2 -5 10
BITMAP
F8
F8
ENDCHAR
STARTCHAR uni0306
ENCODING 774
SWIDTH 0 0
DWIDTH 0 0
BBX 5 3 -5 9
BITMAP
98
F0
70
ENDCHAR
STARTCHAR uni0307
ENCODING 775
SWIDTH 0 0
DWIDTH 0 0
BBX 3 3 -3 9
BITMAP
C0
E0
C0
ENDCHAR
STARTCHAR uni0308
ENCODING 776
SWIDTH 0 0
DWIDTH 0 0
BBX 6 2 -6 9
BITMAP
DC
D8
ENDCHAR
STARTCHAR hookabovecomb
ENCODING 777
SWIDTH 0 0
DWIDTH 0 0
BBX 4 4 -4 9
BITMAP
E0
30
60
40
ENDCHAR
STARTCHAR uni030A
ENCODING 778
SWIDTH 0 0
DWIDTH 0 0
BBX 4 4 -4 9
BITMAP
E0
B0
B0
E0
ENDCHAR
STARTCHAR uni030B
ENCODING 779
SWIDTH 0 0
DWIDTH 0 0
BBX 6 4 -6 9
BITMAP
48
6C
58
D0
ENDCHAR
STARTCHAR uni030C
ENCODING 780
SWIDTH 0 0
DWIDTH 0 0
BBX 6 3 -6 9
BITMAP
C8
7C
30
ENDCHAR
STARTCHAR uni030D
ENCODING 781
SWIDTH 0 0
DWIDTH 0 0
BBX 2 4 -2 9
BITMAP
C0
C0
C0
C0
ENDCHAR
STARTCHAR uni030F
ENCODING 783
SWIDTH 0 0
DWIDTH 0 0
BBX 6 4 -6 9
BITMAP
48
D8
68
2C
ENDCHAR
STARTCHAR uni0311
ENCODING 785
SWIDTH 0 0
DWIDTH 0 0
BBX 5 3 -5 9
BITMAP
60
F0
98
ENDCHAR
STARTCHAR uni0312
ENCODING 786
SWIDTH 0 0
DWIDTH 0 0
BBX 3 4 -3 8
BITMAP
40
40
E0
40
ENDCHAR
STARTCHAR uni0313
ENCODING 787
SWIDTH 0 0
DWIDTH 0 0
BBX 3 4 -3 9
BITMAP
40
E0
40
C0
ENDCHAR
STARTCHAR uni0316
ENCODING 790
SWIDTH 0 0
DWIDTH 0 0
BBX 4 3 -4 -4
BITMAP
C0
F0
20
ENDCHAR
STARTCHAR uni0317
ENCODING 791
SWIDTH 0 0
DWIDTH 0 0
BBX 4 3 -4 -4
BITMAP
60
F0
80
ENDCHAR
STARTCHAR uni0318
ENCODING 792
SWIDTH 0 0
DWIDTH 0 0
BBX 3 4 -3 -5
BITMAP
60
E0
E0
60
ENDCHAR
STARTCHAR uni0319
ENCODING 793
SWIDTH 0 0
DWIDTH 0 0
BBX 3 4 -3 -5
BITMAP
80
E0
E0
80
ENDCHAR
STARTCHAR uni031A
ENCODING 794
SWIDTH 0 0
DWIDTH 0 0
BBX 3 4 -3 8
BITMAP
E0
E0
60
60
ENDCHAR
STARTCHAR uni031B
ENCODING 795
SWIDTH 0 0
DWIDTH 0 0
BBX 3 3 -3 6
BITMAP
60
60
C0
ENDCHAR
STARTCHAR uni031C
ENCODING 796
SWIDTH 0 0
DWIDTH 0 0
BBX 2 4 -2 -4
BITMAP
C0
80
80
C0
ENDCHAR
STARTCHAR uni031D
ENCODING 797
SWIDTH 0 0
DWIDTH 0 0
BBX 5 3 -5 -4
BITMAP
20
20
F8
ENDCHAR
STARTCHAR uni031E
ENCODING 798
SWIDTH 0 0
DWIDTH 0 0
BBX 5 4 -5 -5
BITMAP
F8
F8
20
20
ENDCHAR
STARTCHAR uni031F
ENCODING 799
SWIDTH 0 0
DWIDTH 0 0
BBX 4 4 -4 -5
BITMAP
40
F0
F0
40
ENDCHAR
STARTCHAR uni0320
ENCODING 800
SWIDTH 0 0
DWIDTH 0 0
BBX 4 2 -4 -4
BITMAP
F0
F0
ENDCHAR
STARTCHAR uni0321
ENCODING 801
SWIDTH 0 0
DWIDTH 0 0
BBX 5 3 -5 -3
BITMAP
38
F0
F0
ENDCHAR
STARTCHAR dotbelowcomb
ENCODING 803
SWIDTH 0 0
DWIDTH 0 0
BBX 3 3 -3 -3
BITMAP
C0
E0
C0
ENDCHAR
STARTCHAR uni0324
ENCODING 804
SWIDTH 0 0
DWIDTH 0 0
BBX 6 2 -6 -4
BITMAP
DC
D8
ENDCHAR
STARTCHAR uni0325
ENCODING 805
SWIDTH 0 0
DWIDTH 0 0
BBX 4 4 -4 -5
BITMAP
E0
B0
B0
E0
ENDCHAR
STARTCHAR uni0326
ENCODING 806
SWIDTH 0 0
DWIDTH 0 0
BBX 3 4 -3 -5
BITMAP
40
E0
40
C0
ENDCHAR
STARTCHAR uni0327
ENCODING 807
SWIDTH 0 0
DWIDTH 0 0
BBX 4 4 -4 -4
BITMAP
40
60
F0
E0
ENDCHAR
STARTCHAR uni0328
ENCODING 808
SWIDTH 0 0
DWIDTH 0 0
BBX 4 5 -4 -4
BITMAP
10
60
C0
F0
60
ENDCHAR
STARTCHAR uni0329
ENCODING 809
SWIDTH 0 0
DWIDTH 0 0
BBX 2 4 -2 -5
BITMAP
C0
C0
C0
C0
ENDCHAR
STARTCHAR uni032A
ENCODING 810
SWIDTH 0 0
DWIDTH 0 0
BBX 5 3 -5 -3
BITMAP
F8
F8
D8
ENDCHAR
STARTCHAR uni032B
ENCODING 811
SWIDTH 0 0
DWIDTH 0 0
BBX 6 3 -6 -3
BITMAP
A4
F8
D8
ENDCHAR
STARTCHAR uni032C
ENCODING 812
SWIDTH 0 0
DWIDTH 0 0
BBX 6 3 -6 -4
BITMAP
48
FC
30
ENDCHAR
STARTCHAR uni032D
ENCODING 813
SWIDTH 0 0
DWIDTH 0 0
BBX 6 3 -6 -4
BITMAP
30
78
CC
ENDCHAR
STARTCHAR uni032F
ENCODING 815
SWIDTH 0 0
DWIDTH 0 0
BBX 5 3 -5 -4
BITMAP
60
F0
98
ENDCHAR
STARTCHAR uni0330
ENCODING 816
SWIDTH 0 0
DWIDTH 0 0
BBX 6 2 -6 -4
BITMAP
7C
F8
ENDCHAR
STARTCHAR uni0331
ENCODING 817
SWIDTH 0 0
DWIDTH 0 0
BBX 5 2 -5 -3
BITMAP
F8
F8
ENDCHAR
STARTCHAR uni0332
ENCODING 818
SWIDTH 0 0
DWIDTH 0 0
BBX 7 2 -7 -3
BITMAP
FE
FE
ENDCHAR
STARTCHAR uni0334
ENCODING 820
SWIDTH 0 0
DWIDTH 0 0
BBX 7 3 -7 3
BITMAP
64
FE
9C
ENDCHAR
STARTCHAR uni0335
ENCODING 821
SWIDTH 0 0
DWIDTH 0 0
BBX 4 2 -5 4
BITMAP
F0
F0
ENDCHAR
STARTCHAR uni0336
ENCODING 822
SWIDTH 0 0
DWIDTH 0 0
BBX 11 2 -11 4
BITMAP
FFE0
FFE0
ENDCHAR
STARTCHAR uni0339
ENCODING 825
SWIDTH 0 0
DWIDTH 0 0
BBX 2 4 -2 -4
BITMAP
80
C0
C0
80
ENDCHAR
STARTCHAR uni033A
ENCODING 826
SWIDTH 0 0
DWIDTH 0 0
BBX 5 3 -5 -3
BITMAP
D8
F8
F8
ENDCHAR
STARTCHAR uni033B
ENCODING 827
SWIDTH 0 0
DWIDTH 0 0
BBX 5 3 -5 -4
BITMAP
F8
88
F8
ENDCHAR
STARTCHAR uni033C
ENCODING 828
SWIDTH 0 0
DWIDTH 0 0
BBX 6 3 -6 -3
BITMAP
58
F8
A4
ENDCHAR
STARTCHAR uni033D
ENCODING 829
SWIDTH 0 0
DWIDTH 0 0
BBX 4 3 -4 9
BITMAP
A0
40
B0
ENDCHAR
STARTCHAR uni0342
ENCODING 834
SWIDTH 0 0
DWIDTH 0 0
BBX 6 2 -6 9
BITMAP
7C
F8
ENDCHAR
STARTCHAR uni0345
ENCODING 837
SWIDTH 0 0
DWIDTH 0 0
BBX 4 2 -4 -3
BITMAP
E0
70
ENDCHAR
STARTCHAR uni035C
ENCODING 860
SWIDTH 0 0
DWIDTH 0 0
BBX 10 3 -5 -3
BITMAP
4080
FFC0
3F00
ENDCHAR
STARTCHAR uni0361
ENCODING 865
SWIDTH 0 0
DWIDTH 0 0
BBX 10 3 -5 9
BITMAP
1E00
7F80
C0C0
ENDCHAR
STARTCHAR uni0370
ENCODING 880
SWIDTH 522 0
DWIDTH 7 0
BBX 6 10 1 0
BITMAP
C0
C0
C0
C0
FC
FC
C0
C0
C0
C0
ENDCHAR
STARTCHAR uni0371
ENCODING 881
SWIDTH 478 0
DWIDTH 7 0
BBX 5 8 1 0
BITMAP
C0
C0
C0
F8
F8
C0
C0
C0
ENDCHAR
STARTCHAR uni0372
ENCODING 882
SWIDTH 652 0
DWIDTH 9 0
BBX 9 10 0 0
BITMAP
FF80
FF80
DD80
DD80
1C00
1C00
1C00
1C00
1C00
1C00
ENDCHAR
STARTCHAR uni0373
ENCODING 883
SWIDTH 513 0
DWIDTH 7 0
BBX 7 11 0 -3
BITMAP
FE
FE
18
18
18
18
18
18
18
18
18
ENDCHAR
STARTCHAR uni0374
ENCODING 884
SWIDTH 319 0
DWIDTH 4 0
BBX 3 4 1 6
BITMAP
60
C0
C0
80
ENDCHAR
STARTCHAR uni0375
ENCODING 885
SWIDTH 319 0
DWIDTH 4 0
BBX 3 4 1 -2
BITMAP
60
40
C0
C0
ENDCHAR
STARTCHAR uni0376
ENCODING 886
SWIDTH 663 0
DWIDTH 9 0
BBX 7 10 1 0
BITMAP
CE
CE
CE
DE
DE
D6
F6
F6
E6
E6
ENDCHAR
STARTCHAR uni0377
ENCODING 887
SWIDTH 589 0
DWIDTH 8 0
BBX 7 8 1 0
BITMAP
CC
CC
DC
DC
FC
EC
EE
C6
ENDCHAR
STARTCHAR uni037A
ENCODING 890
SWIDTH 362 0
DWIDTH 5 0
BBX 4 2 0 -3
BITMAP
D0
70
ENDCHAR
STARTCHAR uni037B
ENCODING 891
SWIDTH 513 0
DWIDTH 7 0
BBX 7 8 0 0
BITMAP
78
FC
0E
0E
0E
0E
7C
F8
ENDCHAR
STARTCHAR uni037C
ENCODING 892
SWIDTH 513 0
DWIDTH 7 0
BBX 7 8 0 0
BITMAP
3C
7E
60
EC
E8
60
7E
3E
ENDCHAR
STARTCHAR uni037D
ENCODING 893
SWIDTH 513 0
DWIDTH 7 0
BBX 7 8 0 0
BITMAP
78
FC
0E
7E
2E
0E
FC
78
ENDCHAR
STARTCHAR uni037E
ENCODING 894
SWIDTH 240 0
DWIDTH 3 0
BBX 3 11 0 -3
BITMAP
60
E0
60
00
00
00
60
E0
60
40
C0
ENDCHAR
STARTCHAR uni037F
ENCODING 895
SWIDTH 317 0
DWIDTH 4 0
BBX 4 13 0 -3
BITMAP
70
70
70
70
70
70
70
70
70
70
60
C0
80
ENDCHAR
STARTCHAR tonos
ENCODING 900
SWIDTH 215 0
DWIDTH 3 0
BBX 3 4 0 9
BITMAP
A0
C0
C0
40
ENDCHAR
STARTCHAR dieresistonos
ENCODING 901
SWIDTH 485 0
DWIDTH 7 0
BBX 6 5 0 9
BITMAP
18
10
10
EC
6C
ENDCHAR
STARTCHAR Alphatonos
ENCODING 902
SWIDTH 691 0
DWIDTH 10 0
BBX 9 11 1 0
BITMAP
8000
DC00
DC00
F600
3600
3600
3700
7F00
7F00
6300
E380
ENDCHAR
STARTCHAR anoteleia
ENCODING 903
SWIDTH 240 0
DWIDTH 3 0
BBX 3 3 0 3
BITMAP
60
E0
60
ENDCHAR
STARTCHAR Epsilontonos
ENCODING 904
SWIDTH 719 0
DWIDTH 10 0
BBX 9 11 1 0
BITMAP
8000
DF80
DF00
D800
1800
1F00
1F00
1800
1800
1F80
1F80
ENDCHAR
STARTCHAR Etatonos
ENCODING 905
SWIDTH 859 0
DWIDTH 12 0
BBX 10 11 1 0
BITMAP
8000
D8C0
D8C0
D8C0
18C0
1FC0
1FC0
18C0
18C0
18C0
18C0
ENDCHAR
STARTCHAR Iotatonos
ENCODING 906
SWIDTH 486 0
DWIDTH 7 0
BBX 5 11 1 0
BITMAP
80
D8
D8
D8
18
18
18
18
18
18
18
ENDCHAR
STARTCHAR Omicrontonos
ENCODING 908
SWIDTH 838 0
DWIDTH 12 0
BBX 10 11 1 0
BITMAP
8000
CF00
DF80
F1C0
30C0
30C0
30C0
30C0
31C0
1F80
0F00
ENDCHAR
STARTCHAR Upsilontonos
ENCODING 910
SWIDTH 845 0
DWIDTH 12 0
BBX 11 11 1 0
BITMAP
8000
F8E0
DCC0
CCC0
0D80
0780
0700
0300
0300
0300
0300
ENDCHAR
STARTCHAR Omegatonos
ENCODING 911
SWIDTH 856 0
DWIDTH 12 0
BBX 11 11 1 0
BITMAP
8000
CF00
DFC0
B8C0
30C0
30E0
30C0
30C0
18C0
3DC0
3DC0
ENDCHAR
STARTCHAR iotadieresistonos
ENCODING 912
SWIDTH 282 0
DWIDTH 4 0
BBX 6 14 -1 0
BITMAP
30
30
30
CC
CC
00
30
30
30
30
30
30
38
10
ENDCHAR
STARTCHAR Alpha
ENCODING 913
SWIDTH 590 0
DWIDTH 8 0
BBX 8 10 0 0
BITMAP
1C
3C
3C
36
66
66
7E
7F
E3
C3
ENDCHAR
STARTCHAR Beta
ENCODING 914
SWIDTH 617 0
DWIDTH 9 0
BBX 7 10 1 0
BITMAP
FC
FE
CE
CE
FC
FE
C6
C6
FE
FC
ENDCHAR
STARTCHAR Gamma
ENCODING 915
SWIDTH 510 0
DWIDTH 7 0
BBX 6 10 1 0
BITMAP
FC
FC
C0
C0
C0
C0
C0
C0
C0
C0
ENDCHAR
STARTCHAR uni0394
ENCODING 916
SWIDTH 599 0
DWIDTH 8 0
BBX 9 10 0 0
BITMAP
1C00
3C00
3C00
3600
7600
6600
6700
6300
FF00
FF80
ENDCHAR
STARTCHAR Epsilon
ENCODING 917
SWIDTH 526 0
DWIDTH 7 0
BBX 6 10 1 0
BITMAP
FC
FC
C0
C0
F8
F8
C0
C0
FC
FC
ENDCHAR
STARTCHAR Zeta
ENCODING 918
SWIDTH 544 0
DWIDTH 8 0
BBX 7 10 0 0
BITMAP
7E
7E
0E
1C
18
38
70
60
FE
FE
ENDCHAR
STARTCHAR Eta
ENCODING 919
SWIDTH 666 0
DWIDTH 9 0
BBX 7 10 1 0
BITMAP
C6
C6
C6
C6
FE
FE
C6
C6
C6
C6
ENDCHAR
STARTCHAR Theta
ENCODING 920
SWIDTH 691 0
DWIDTH 10 0
BBX 9 10 0 0
BITMAP
1E00
7F00
6380
6180
FD80
FD80
6180
6380
7F00
1E00
ENDCHAR
STARTCHAR Iota
ENCODING 921
SWIDTH 293 0
DWIDTH 4 0
BBX 2 10 1 0
BITMAP
C0
C0
C0
C0
C0
C0
C0
C0
C0
C0
ENDCHAR
STARTCHAR Kappa
ENCODING 922
SWIDTH 633 0
DWIDTH 9 0
BBX 8 10 1 0
BITMAP
C7
CE
CC
D8
F8
D8
DC
CE
C6
C7
ENDCHAR
STARTCHAR Lambda
ENCODING 923
SWIDTH 590 0
DWIDTH 8 0
BBX 8 10 0 0
BITMAP
1C
3C
3C
36
66
66
66
67
E3
C3
ENDCHAR
STARTCHAR Mu
ENCODING 924
SWIDTH 786 0
DWIDTH 11 0
BBX 11 10 0 0
BITMAP
71C0
71C0
7BC0
7BC0
7BC0
6AC0
6AC0
6EC0
6EC0
E0E0
ENDCHAR
STARTCHAR Nu
ENCODING 925
SWIDTH 663 0
DWIDTH 9 0
BBX 7 10 1 0
BITMAP
E6
E6
F6
F6
F6
DE
DE
CE
CE
CE
ENDCHAR
STARTCHAR Xi
ENCODING 926
SWIDTH 524 0
DWIDTH 7 0
BBX 7 10 0 0
BITMAP
FE
FE
00
00
7C
7C
00
00
FE
FE
ENDCHAR
STARTCHAR Omicron
ENCODING 927
SWIDTH 691 0
DWIDTH 10 0
BBX 9 10 0 0
BITMAP
1E00
7F00
6380
6180
E180
E180
6180
6380
7F00
1E00
ENDCHAR
STARTCHAR Pi
ENCODING 928
SWIDTH 664 0
DWIDTH 9 0
BBX 7 10 1 0
BITMAP
FE
FE
C6
C6
C6
C6
C6
C6
C6
C6
ENDCHAR
STARTCHAR Rho
ENCODING 929
SWIDTH 600 0
DWIDTH 8 0
BBX 7 10 1 0
BITMAP
FC
FE
C6
C6
CE
FC
F8
C0
C0
C0
ENDCHAR
STARTCHAR Sigma
ENCODING 931
SWIDTH 503 0
DWIDTH 7 0
BBX 7 10 0 0
BITMAP
FE
FE
60
30
18
18
30
70
FE
FE
ENDCHAR
STARTCHAR Tau
ENCODING 932
SWIDTH 540 0
DWIDTH 8 0
BBX 8 10 0 0
BITMAP
FF
FE
18
18
18
18
18
18
18
18
ENDCHAR
STARTCHAR Upsilon
ENCODING 933
SWIDTH 594 0
DWIDTH 8 0
BBX 8 10 0 0
BITMAP
E3
67
66
36
3C
1C
18
18
18
18
ENDCHAR
STARTCHAR Phi
ENCODING 934
SWIDTH 843 0
DWIDTH 12 0
BBX 12 10 0 0
BITMAP
0600
3FC0
7FE0
E660
E670
E670
E660
77E0
3F80
0600
ENDCHAR
STARTCHAR Chi
ENCODING 935
SWIDTH 581 0
DWIDTH 8 0
BBX 8 10 0 0
BITMAP
E7
66
7E
3C
18
3C
3C
66
66
E7
ENDCHAR
STARTCHAR Psi
ENCODING 936
SWIDTH 728 0
DWIDTH 10 0
BBX 10 10 0 0
BITMAP
CCC0
CCC0
CCC0
CCC0
ECC0
6DC0
7F80
0C00
0C00
0C00
ENDCHAR
STARTCHAR uni03A9
ENCODING 937
SWIDTH 691 0
DWIDTH 10 0
BBX 9 10 0 0
BITMAP
1E00
7F00
6380
6180
E180
6180
6180
6300
7780
7780
ENDCHAR
STARTCHAR Iotadieresis
ENCODING 938
SWIDTH 293 0
DWIDTH 4 0
BBX 6 13 -1 0
BITMAP
EC
CC
00
30
30
30
30
30
30
30
30
30
30
ENDCHAR
STARTCHAR Upsilondieresis
ENCODING 939
SWIDTH 594 0
DWIDTH 8 0
BBX 8 13 0 0
BITMAP
76
26
00
E3
67
66
36
3C
1C
18
18
18
18
ENDCHAR
STARTCHAR alphatonos
ENCODING 940
SWIDTH 599 0
DWIDTH 8 0
BBX 8 13 0 0
BITMAP
10
18
18
18
00
3B
7E
66
E6
E6
66
7B
3B
ENDCHAR
STARTCHAR epsilontonos
ENCODING 941
SWIDTH 480 0
DWIDTH 7 0
BBX 7 13 0 0
BITMAP
20
18
18
10
00
3C
7C
60
38
78
E0
7C
3E
ENDCHAR
STARTCHAR etatonos
ENCODING 942
SWIDTH 580 0
DWIDTH 8 0
BBX 6 16 1 -3
BITMAP
20
30
30
30
00
DC
FC
CC
CC
CC
CC
CC
CC
0C
0C
0C
ENDCHAR
STARTCHAR iotatonos
ENCODING 943
SWIDTH 282 0
DWIDTH 4 0
BBX 3 13 1 0
BITMAP
80
C0
C0
C0
00
C0
C0
C0
C0
C0
C0
E0
40
ENDCHAR
STARTCHAR upsilondieresistonos
ENCODING 944
SWIDTH 565 0
DWIDTH 8 0
BBX 6 14 1 0
BITMAP
30
30
30
CC
CC
00
CC
CC
CC
CC
CC
CC
FC
78
ENDCHAR
STARTCHAR alpha
ENCODING 945
SWIDTH 599 0
DWIDTH 8 0
BBX 8 8 0 0
BITMAP
3B
7E
66
E6
E6
66
7B
3B
ENDCHAR
STARTCHAR beta
ENCODING 946
SWIDTH 607 0
DWIDTH 9 0
BBX 7 14 1 -3
BITMAP
78
FC
CC
CC
D8
DC
C6
C6
C6
FE
FC
C0
C0
C0
ENDCHAR
STARTCHAR gamma
ENCODING 947
SWIDTH 508 0
DWIDTH 7 0
BBX 7 11 0 -3
BITMAP
C6
E6
6C
6C
2C
38
38
38
30
30
30
ENDCHAR
STARTCHAR delta
ENCODING 948
SWIDTH 577 0
DWIDTH 8 0
BBX 8 11 0 0
BITMAP
3C
7E
60
38
3C
66
67
E7
66
7E
3C
ENDCHAR
STARTCHAR epsilon
ENCODING 949
SWIDTH 480 0
DWIDTH 7 0
BBX 7 8 0 0
BITMAP
3C
7C
60
38
78
E0
7C
3E
ENDCHAR
STARTCHAR zeta
ENCODING 950
SWIDTH 419 0
DWIDTH 6 0
BBX 6 14 0 -3
BITMAP
7C
FC
18
30
60
60
E0
E0
E0
78
1C
0C
1C
18
ENDCHAR
STARTCHAR eta
ENCODING 951
SWIDTH 580 0
DWIDTH 8 0
BBX 6 11 1 -3
BITMAP
DC
FC
CC
CC
CC
CC
CC
CC
0C
0C
0C
ENDCHAR
STARTCHAR theta
ENCODING 952
SWIDTH 563 0
DWIDTH 8 0
BBX 7 11 0 0
BITMAP
3C
7E
66
66
FE
FE
E6
66
66
7E
3C
ENDCHAR
STARTCHAR iota
ENCODING 953
SWIDTH 282 0
DWIDTH 4 0
BBX 3 8 1 0
BITMAP
C0
C0
C0
C0
C0
C0
E0
40
ENDCHAR
STARTCHAR kappa
ENCODING 954
SWIDTH 552 0
DWIDTH 8 0
BBX 7 8 1 0
BITMAP
CE
CC
D8
F8
D8
DC
CE
C4
ENDCHAR
STARTCHAR lambda
ENCODING 955
SWIDTH 529 0
DWIDTH 7 0
BBX 8 11 0 0
BITMAP
70
38
18
38
3C
2C
6C
6C
6E
E6
C7
ENDCHAR
STARTCHAR uni03BC
ENCODING 956
SWIDTH 582 0
DWIDTH 8 0
BBX 7 11 1 -3
BITMAP
CC
CC
CC
CC
CC
CC
FC
FE
C0
C0
C0
ENDCHAR
STARTCHAR nu
ENCODING 957
SWIDTH 508 0
DWIDTH 7 0
BBX 7 8 0 0
BITMAP
C6
E6
6E
6C
6C
2C
38
38
ENDCHAR
STARTCHAR xi
ENCODING 958
SWIDTH 450 0
DWIDTH 6 0
BBX 7 15 0 -4
BITMAP
3E
7C
60
60
38
78
60
E0
60
78
3C
0E
0C
1C
08
ENDCHAR
STARTCHAR omicron
ENCODING 959
SWIDTH 584 0
DWIDTH 8 0
BBX 8 8 0 0
BITMAP
3C
7E
67
E7
E7
67
7E
3C
ENDCHAR
STARTCHAR pi
ENCODING 960
SWIDTH 612 0
DWIDTH 9 0
BBX 8 8 0 0
BITMAP
FF
FF
76
76
76
76
77
73
ENDCHAR
STARTCHAR rho
ENCODING 961
SWIDTH 587 0
DWIDTH 8 0
BBX 7 11 1 -3
BITMAP
78
FC
CE
CE
CE
CE
FC
F8
C0
C0
C0
ENDCHAR
STARTCHAR uni03C2
ENCODING 962
SWIDTH 478 0
DWIDTH 7 0
BBX 7 11 0 -3
BITMAP
3E
7C
60
E0
E0
60
78
1C
0C
1C
18
ENDCHAR
STARTCHAR sigma
ENCODING 963
SWIDTH 603 0
DWIDTH 8 0
BBX 8 8 0 0
BITMAP
3F
7F
66
E7
E7
67
7E
3C
ENDCHAR
STARTCHAR tau
ENCODING 964
SWIDTH 481 0
DWIDTH 7 0
BBX 7 8 0 0
BITMAP
FE
FE
30
30
30
38
38
18
ENDCHAR
STARTCHAR upsilon
ENCODING 965
SWIDTH 565 0
DWIDTH 8 0
BBX 6 8 1 0
BITMAP
CC
CC
CC
CC
CC
CC
FC
78
ENDCHAR
STARTCHAR phi
ENCODING 966
SWIDTH 755 0
DWIDTH 11 0
BBX 9 11 1 -3
BITMAP
CF00
CF80
D980
D980
D980
D980
DB80
7F00
1800
1800
1800
ENDCHAR
STARTCHAR chi
ENCODING 967
SWIDTH 493 0
DWIDTH 7 0
BBX 7 11 0 -3
BITMAP
CE
EC
6C
68
38
38
38
6C
6C
EC
C6
ENDCHAR
STARTCHAR psi
ENCODING 968
SWIDTH 780 0
DWIDTH 11 0
BBX 9 11 1 -3
BITMAP
DD80
DD80
DD80
DD80
DD80
DD80
FF80
7E00
1C00
1C00
1C00
ENDCHAR
STARTCHAR omega
ENCODING 969
SWIDTH 774 0
DWIDTH 11 0
BBX 9 8 1 0
BITMAP
C380
C180
C980
D980
D980
D980
FF80
7700
ENDCHAR
STARTCHAR iotadieresis
ENCODING 970
SWIDTH 282 0
DWIDTH 4 0
BBX 6 11 -1 0
BITMAP
DC
C8
00
30
30
30
30
30
30
38
10
ENDCHAR
STARTCHAR upsilondieresis
ENCODING 971
SWIDTH 565 0
DWIDTH 8 0
BBX 6 11 1 0
BITMAP
DC
C8
00
CC
CC
CC
CC
CC
CC
FC
78
ENDCHAR
STARTCHAR omicrontonos
ENCODING 972
SWIDTH 584 0
DWIDTH 8 0
BBX 8 13 0 0
BITMAP
10
18
18
18
00
3C
7E
67
E7
E7
67
7E
3C
ENDCHAR
STARTCHAR upsilontonos
ENCODING 973
SWIDTH 565 0
DWIDTH 8 0
BBX 6 13 1 0
BITMAP
20
30
30
30
00
CC
CC
CC
CC
CC
CC
FC
78
ENDCHAR
STARTCHAR omegatonos
ENCODING 974
SWIDTH 774 0
DWIDTH 11 0
BBX 9 13 1 0
BITMAP
1000
0C00
0800
0800
0000
C380
C180
C980
D980
D980
D980
FF80
7700
ENDCHAR
STARTCHAR uni03CF
ENCODING 975
SWIDTH 659 0
DWIDTH 9 0
BBX 8 13 1 -3
BITMAP
C7
CE
CC
D8
F8
D8
DC
CE
C7
C7
03
0F
1E
ENDCHAR
STARTCHAR uni03D0
ENCODING 976
SWIDTH 566 0
DWIDTH 8 0
BBX 8 11 0 0
BITMAP
1C
3E
66
64
78
FE
E6
67
66
7E
3C
ENDCHAR
STARTCHAR uni03D1
ENCODING 977
SWIDTH 549 0
DWIDTH 8 0
BBX 8 11 0 0
BITMAP
38
7C
C6
7F
3F
66
66
66
6E
7C
38
ENDCHAR
STARTCHAR uni03D2
ENCODING 978
SWIDTH 633 0
DWIDTH 9 0
BBX 9 10 0 0
BITMAP
E380
6780
6600
3600
3C00
1C00
1800
1800
1800
1800
ENDCHAR
STARTCHAR uni03D3
ENCODING 979
SWIDTH 898 0
DWIDTH 13 0
BBX 12 11 1 0
BITMAP
4000
D870
5CF0
6CC0
0D80
0780
0700
0300
0300
0300
0300
ENDCHAR
STARTCHAR uni03D4
ENCODING 980
SWIDTH 633 0
DWIDTH 9 0
BBX 9 13 0 0
BITMAP
3600
3600
0000
E380
6780
6600
3600
3C00
1C00
1800
1800
1800
1800
ENDCHAR
STARTCHAR uni03D5
ENCODING 981
SWIDTH 663 0
DWIDTH 9 0
BBX 9 14 0 -3
BITMAP
0C00
0C00
0C00
3E00
7F00
6D80
ED80
ED80
6D80
7F00
3E00
0C00
0C00
0C00
ENDCHAR
STARTCHAR uni03D6
ENCODING 982
SWIDTH 753 0
DWIDTH 11 0
BBX 10 8 0 0
BITMAP
FFC0
FFC0
60C0
6CC0
6CC0
6CC0
7FC0
3B80
ENDCHAR
STARTCHAR uni03D7
ENCODING 983
SWIDTH 571 0
DWIDTH 8 0
BBX 8 11 0 -3
BITMAP
46
EE
6A
7E
76
76
67
23
03
1E
1E
ENDCHAR
STARTCHAR uni03D8
ENCODING 984
SWIDTH 691 0
DWIDTH 10 0
BBX 9 13 0 -3
BITMAP
1E00
7F00
6380
6180
E180
E180
6180
7380
3F00
1E00
0C00
0C00
0C00
ENDCHAR
STARTCHAR uni03D9
ENCODING 985
SWIDTH 584 0
DWIDTH 8 0
BBX 8 11 0 -3
BITMAP
3C
7E
67
E7
E7
67
66
3C
18
18
18
ENDCHAR
STARTCHAR uni03DA
ENCODING 986
SWIDTH 571 0
DWIDTH 8 0
BBX 8 13 0 -3
BITMAP
1F
3F
70
60
E0
E0
60
70
3C
0E
06
06
0C
ENDCHAR
STARTCHAR uni03DB
ENCODING 987
SWIDTH 486 0
DWIDTH 7 0
BBX 7 12 0 -3
BITMAP
06
0E
3C
70
60
E0
60
78
1C
0C
0C
18
ENDCHAR
STARTCHAR uni03DC
ENCODING 988
SWIDTH 519 0
DWIDTH 7 0
BBX 6 10 1 0
BITMAP
FC
FC
C0
C0
FC
F8
C0
C0
C0
C0
ENDCHAR
STARTCHAR uni03DD
ENCODING 989
SWIDTH 452 0
DWIDTH 6 0
BBX 5 11 1 -3
BITMAP
78
F8
C0
C0
F8
F0
C0
C0
C0
C0
C0
ENDCHAR
STARTCHAR uni03DE
ENCODING 990
SWIDTH 498 0
DWIDTH 7 0
BBX 7 10 0 0
BITMAP
38
30
70
60
FE
FE
0C
1C
18
38
ENDCHAR
STARTCHAR uni03DF
ENCODING 991
SWIDTH 491 0
DWIDTH 7 0
BBX 7 11 0 0
BITMAP
30
30
30
60
6E
FE
EC
0C
18
18
18
ENDCHAR
STARTCHAR uni03E0
ENCODING 992
SWIDTH 603 0
DWIDTH 8 0
BBX 9 10 0 0
BITMAP
1800
1800
1C00
3C00
3600
2E00
6E00
6B00
DB00
DB80
ENDCHAR
STARTCHAR uni03E1
ENCODING 993
SWIDTH 660 0
DWIDTH 9 0
BBX 9 14 0 -3
BITMAP
6000
7800
1C00
0E00
1F00
1B00
3700
3780
6D80
6D80
D980
0180
0180
0300
ENDCHAR
STARTCHAR uni03F0
ENCODING 1008
SWIDTH 570 0
DWIDTH 8 0
BBX 8 8 0 0
BITMAP
46
E6
6A
6E
76
56
67
62
ENDCHAR
STARTCHAR uni03F1
ENCODING 1009
SWIDTH 587 0
DWIDTH 8 0
BBX 7 12 1 -4
BITMAP
78
FC
CE
CE
CE
CC
FC
F8
C0
F0
7C
08
ENDCHAR
STARTCHAR uni03F2
ENCODING 1010
SWIDTH 513 0
DWIDTH 7 0
BBX 7 8 0 0
BITMAP
3C
7E
60
E0
E0
60
7E
3E
ENDCHAR
STARTCHAR uni03F3
ENCODING 1011
SWIDTH 281 0
DWIDTH 4 0
BBX 4 15 -1 -3
BITMAP
30
30
30
00
30
30
30
30
30
30
30
30
70
E0
40
ENDCHAR
STARTCHAR uni03F4
ENCODING 1012
SWIDTH 691 0
DWIDTH 10 0
BBX 9 10 0 0
BITMAP
1E00
7F00
6380
6180
FD80
FD80
6180
6380
7F00
1E00
ENDCHAR
STARTCHAR uni03F5
ENCODING 1013
SWIDTH 486 0
DWIDTH 7 0
BBX 7 8 0 0
BITMAP
3E
7C
60
F8
F8
60
7C
3E
ENDCHAR
STARTCHAR uni03F6
ENCODING 1014
SWIDTH 486 0
DWIDTH 7 0
BBX 6 8 0 0
BITMAP
F8
7C
0C
7C
7C
0C
7C
F8
ENDCHAR
STARTCHAR uni03F7
ENCODING 1015
SWIDTH 600 0
DWIDTH 8 0
BBX 7 10 1 0
BITMAP
C0
F8
FC
CE
C6
C6
FE
FC
C0
C0
ENDCHAR
STARTCHAR uni03F8
ENCODING 1016
SWIDTH 597 0
DWIDTH 8 0
BBX 7 14 1 -3
BITMAP
C0
C0
C0
DC
FC
CE
C6
C6
CE
FC
F8
C0
C0
C0
ENDCHAR
STARTCHAR uni03F9
ENCODING 1017
SWIDTH 605 0
DWIDTH 8 0
BBX 8 10 0 0
BITMAP
1E
3F
60
60
E0
E0
60
60
3F
1E
ENDCHAR
STARTCHAR uni03FA
ENCODING 1018
SWIDTH 786 0
DWIDTH 11 0
BBX 11 10 0 0
BITMAP
71C0
71C0
7BC0
7BC0
7BC0
6AC0
6AC0
6EC0
6EC0
E0E0
ENDCHAR
STARTCHAR uni03FB
ENCODING 1019
SWIDTH 672 0
DWIDTH 9 0
BBX 9 11 0 -3
BITMAP
7300
7700
7780
7580
7D80
7D80
6D80
C180
C000
C000
C000
ENDCHAR
STARTCHAR uni03FC
ENCODING 1020
SWIDTH 587 0
DWIDTH 8 0
BBX 8 11 0 -3
BITMAP
3C
7E
67
67
67
67
7E
7C
F8
F8
60
ENDCHAR
STARTCHAR uni03FD
ENCODING 1021
SWIDTH 605 0
DWIDTH 8 0
BBX 8 10 0 0
BITMAP
7C
FE
07
07
03
03
07
07
FE
7C
ENDCHAR
STARTCHAR uni03FE
ENCODING 1022
SWIDTH 605 0
DWIDTH 8 0
BBX 8 10 0 0
BITMAP
1E
3F
60
60
EE
EC
60
61
3F
1E
ENDCHAR
STARTCHAR uni03FF
ENCODING 1023
SWIDTH 605 0
DWIDTH 8 0
BBX 8 10 0 0
BITMAP
7C
FE
07
07
33
33
07
47
FE
7C
ENDCHAR
STARTCHAR uni0400
ENCODING 1024
SWIDTH 526 0
DWIDTH 7 0
BBX 6 14 1 0
BITMAP
60
78
10
00
FC
FC
C0
C0
F8
F8
C0
C0
FC
FC
ENDCHAR
STARTCHAR uni0401
ENCODING 1025
SWIDTH 526 0
DWIDTH 7 0
BBX 6 13 1 0
BITMAP
DC
C8
00
FC
FC
C0
C0
F8
F8
C0
C0
FC
FC
ENDCHAR
STARTCHAR uni0402
ENCODING 1026
SWIDTH 750 0
DWIDTH 11 0
BBX 10 12 0 -2
BITMAP
FF00
FE00
1800
1B00
1FC0
18C0
18C0
18C0
18C0
18C0
03C0
0180
ENDCHAR
STARTCHAR uni0403
ENCODING 1027
SWIDTH 510 0
DWIDTH 7 0
BBX 6 14 1 0
BITMAP
18
78
20
00
FC
FC
C0
C0
C0
C0
C0
C0
C0
C0
ENDCHAR
STARTCHAR uni0404
ENCODING 1028
SWIDTH 575 0
DWIDTH 8 0
BBX 8 10 0 0
BITMAP
1E
3F
60
60
FC
FC
60
62
7F
1E
ENDCHAR
STARTCHAR uni0405
ENCODING 1029
SWIDTH 572 0
DWIDTH 8 0
BBX 8 10 0 0
BITMAP
3C
7E
62
70
7C
1E
07
47
FE
7C
ENDCHAR
STARTCHAR uni0406
ENCODING 1030
SWIDTH 293 0
DWIDTH 4 0
BBX 2 10 1 0
BITMAP
C0
C0
C0
C0
C0
C0
C0
C0
C0
C0
ENDCHAR
STARTCHAR uni0407
ENCODING 1031
SWIDTH 293 0
DWIDTH 4 0
BBX 6 13 -1 0
BITMAP
EC
CC
00
30
30
30
30
30
30
30
30
30
30
ENDCHAR
STARTCHAR uni0408
ENCODING 1032
SWIDTH 317 0
DWIDTH 4 0
BBX 4 13 0 -3
BITMAP
70
70
70
70
70
70
70
70
70
70
60
C0
80
ENDCHAR
STARTCHAR uni0409
ENCODING 1033
SWIDTH 932 0
DWIDTH 13 0
BBX 13 10 0 0
BITMAP
3F00
3F00
3300
33E0
33F0
7338
6338
6338
E3F0
C3E0
ENDCHAR
STARTCHAR uni040A
ENCODING 1034
SWIDTH 951 0
DWIDTH 13 0
BBX 12 10 1 0
BITMAP
C600
C600
C600
FFC0
FFE0
C670
C630
C630
C7F0
C7E0
ENDCHAR
STARTCHAR uni040B
ENCODING 1035
SWIDTH 750 0
DWIDTH 11 0
BBX 10 10 0 0
BITMAP
FF00
FE00
1800
1B00
1FC0
18C0
18C0
18C0
18C0
18C0
ENDCHAR
STARTCHAR uni040C
ENCODING 1036
SWIDTH 623 0
DWIDTH 9 0
BBX 8 14 1 0
BITMAP
18
78
20
00
C7
C6
CC
CC
F8
FC
CC
CE
C6
C7
ENDCHAR
STARTCHAR uni040D
ENCODING 1037
SWIDTH 663 0
DWIDTH 9 0
BBX 7 14 1 0
BITMAP
30
3C
08
00
CE
CE
CE
DE
DE
D6
F6
F6
E6
E6
ENDCHAR
STARTCHAR uni040E
ENCODING 1038
SWIDTH 577 0
DWIDTH 8 0
BBX 8 14 0 0
BITMAP
24
3C
3C
00
C3
E3
66
66
36
3C
3C
0C
18
70
ENDCHAR
STARTCHAR uni040F
ENCODING 1039
SWIDTH 657 0
DWIDTH 9 0
BBX 7 12 1 -2
BITMAP
C6
C6
C6
C6
C6
C6
C6
C6
FE
FE
18
18
ENDCHAR
STARTCHAR uni0410
ENCODING 1040
SWIDTH 590 0
DWIDTH 8 0
BBX 8 10 0 0
BITMAP
1C
3C
3C
36
66
66
7E
7F
E3
C3
ENDCHAR
STARTCHAR uni0411
ENCODING 1041
SWIDTH 596 0
DWIDTH 8 0
BBX 7 10 1 0
BITMAP
FC
FC
C0
F8
FC
CE
C6
C6
FE
FC
ENDCHAR
STARTCHAR uni0412
ENCODING 1042
SWIDTH 617 0
DWIDTH 9 0
BBX 7 10 1 0
BITMAP
FC
FE
CE
CE
FC
FE
C6
C6
FE
FC
ENDCHAR
STARTCHAR uni0413
ENCODING 1043
SWIDTH 510 0
DWIDTH 7 0
BBX 6 10 1 0
BITMAP
FC
FC
C0
C0
C0
C0
C0
C0
C0
C0
ENDCHAR
STARTCHAR uni0414
ENCODING 1044
SWIDTH 630 0
DWIDTH 9 0
BBX 9 12 0 -2
BITMAP
3F00
3F00
3300
3300
3300
7300
6300
6300
FF80
FF80
C180
8180
ENDCHAR
STARTCHAR uni0415
ENCODING 1045
SWIDTH 526 0
DWIDTH 7 0
BBX 6 10 1 0
BITMAP
FC
FC
C0
C0
F8
F8
C0
C0
FC
FC
ENDCHAR
STARTCHAR uni0416
ENCODING 1046
SWIDTH 905 0
DWIDTH 13 0
BBX 13 10 0 0
BITMAP
E638
6630
7660
36E0
1FC0
3FE0
3660
7670
6630
E638
ENDCHAR
STARTCHAR uni0417
ENCODING 1047
SWIDTH 541 0
DWIDTH 8 0
BBX 7 10 0 0
BITMAP
7C
FE
06
3C
3C
0E
06
46
FE
7C
ENDCHAR
STARTCHAR uni0418
ENCODING 1048
SWIDTH 663 0
DWIDTH 9 0
BBX 7 10 1 0
BITMAP
CE
CE
CE
DE
DE
D6
F6
F6
E6
E6
ENDCHAR
STARTCHAR uni0419
ENCODING 1049
SWIDTH 663 0
DWIDTH 9 0
BBX 7 14 1 0
BITMAP
28
7C
38
00
CE
CE
CE
DE
DE
D6
F6
F6
E6
E6
ENDCHAR
STARTCHAR uni041A
ENCODING 1050
SWIDTH 623 0
DWIDTH 9 0
BBX 8 10 1 0
BITMAP
C7
C6
CC
CC
F8
FC
CC
CE
C6
C7
ENDCHAR
STARTCHAR uni041B
ENCODING 1051
SWIDTH 655 0
DWIDTH 9 0
BBX 8 10 0 0
BITMAP
3F
3F
33
33
33
73
63
63
E3
C3
ENDCHAR
STARTCHAR uni041C
ENCODING 1052
SWIDTH 786 0
DWIDTH 11 0
BBX 11 10 0 0
BITMAP
71C0
71C0
7BC0
7BC0
7BC0
6AC0
6AC0
6EC0
6EC0
E0E0
ENDCHAR
STARTCHAR uni041D
ENCODING 1053
SWIDTH 666 0
DWIDTH 9 0
BBX 7 10 1 0
BITMAP
C6
C6
C6
C6
FE
FE
C6
C6
C6
C6
ENDCHAR
STARTCHAR uni041E
ENCODING 1054
SWIDTH 691 0
DWIDTH 10 0
BBX 9 10 0 0
BITMAP
1E00
7F00
6380
6180
E180
E180
6180
6380
7F00
1E00
ENDCHAR
STARTCHAR uni041F
ENCODING 1055
SWIDTH 664 0
DWIDTH 9 0
BBX 7 10 1 0
BITMAP
FE
FE
C6
C6
C6
C6
C6
C6
C6
C6
ENDCHAR
STARTCHAR uni0420
ENCODING 1056
SWIDTH 600 0
DWIDTH 8 0
BBX 7 10 1 0
BITMAP
FC
FE
C6
C6
CE
FC
F8
C0
C0
C0
ENDCHAR
STARTCHAR uni0421
ENCODING 1057
SWIDTH 575 0
DWIDTH 8 0
BBX 8 10 0 0
BITMAP
1E
3F
60
60
E0
E0
60
60
3F
1E
ENDCHAR
STARTCHAR uni0422
ENCODING 1058
SWIDTH 540 0
DWIDTH 8 0
BBX 8 10 0 0
BITMAP
FF
FE
18
18
18
18
18
18
18
18
ENDCHAR
STARTCHAR uni0423
ENCODING 1059
SWIDTH 577 0
DWIDTH 8 0
BBX 8 10 0 0
BITMAP
C3
E3
66
66
36
3C
3C
0C
18
70
ENDCHAR
STARTCHAR uni0424
ENCODING 1060
SWIDTH 853 0
DWIDTH 12 0
BBX 12 10 0 0
BITMAP
0600
3FC0
76E0
6660
E670
E670
E660
76E0
3FC0
0600
ENDCHAR
STARTCHAR uni0425
ENCODING 1061
SWIDTH 581 0
DWIDTH 8 0
BBX 8 10 0 0
BITMAP
E7
66
7E
3C
18
3C
3C
66
66
E7
ENDCHAR
STARTCHAR uni0426
ENCODING 1062
SWIDTH 686 0
DWIDTH 10 0
BBX 8 12 1 -2
BITMAP
C6
C6
C6
C6
C6
C6
C6
C6
FF
FF
01
01
ENDCHAR
STARTCHAR uni0427
ENCODING 1063
SWIDTH 619 0
DWIDTH 9 0
BBX 8 10 0 0
BITMAP
E7
E7
E7
E7
E7
7F
3F
07
07
07
ENDCHAR
STARTCHAR uni0428
ENCODING 1064
SWIDTH 909 0
DWIDTH 13 0
BBX 11 10 1 0
BITMAP
CC60
CC60
CC60
CC60
CC60
CC60
CC60
CC60
FFE0
FFE0
ENDCHAR
STARTCHAR uni0429
ENCODING 1065
SWIDTH 939 0
DWIDTH 13 0
BBX 12 12 1 -2
BITMAP
CC60
CC60
CC60
CC60
CC60
CC60
CC60
CC60
FFF0
FFF0
0030
0030
ENDCHAR
STARTCHAR uni042A
ENCODING 1066
SWIDTH 717 0
DWIDTH 10 0
BBX 10 10 0 0
BITMAP
F800
F800
1800
1F00
1F80
19C0
19C0
19C0
1F80
1F00
ENDCHAR
STARTCHAR uni042B
ENCODING 1067
SWIDTH 850 0
DWIDTH 12 0
BBX 10 10 1 0
BITMAP
C0C0
C0C0
C0C0
F8C0
FCC0
CEC0
C6C0
CEC0
FCC0
F8C0
ENDCHAR
STARTCHAR uni042C
ENCODING 1068
SWIDTH 594 0
DWIDTH 8 0
BBX 7 10 1 0
BITMAP
C0
C0
C0
F8
FC
CE
C6
C6
FE
FC
ENDCHAR
STARTCHAR uni042D
ENCODING 1069
SWIDTH 541 0
DWIDTH 8 0
BBX 7 10 0 0
BITMAP
78
FC
0E
06
7E
7E
06
0E
FC
78
ENDCHAR
STARTCHAR uni042E
ENCODING 1070
SWIDTH 931 0
DWIDTH 13 0
BBX 12 10 1 0
BITMAP
C780
CFE0
CC60
DC60
FC70
FC70
DC60
CC60
CFE0
C780
ENDCHAR
STARTCHAR uni042F
ENCODING 1071
SWIDTH 608 0
DWIDTH 9 0
BBX 8 10 0 0
BITMAP
3F
7F
E7
E7
67
7F
3F
77
67
E7
ENDCHAR
STARTCHAR uni0430
ENCODING 1072
SWIDTH 548 0
DWIDTH 8 0
BBX 7 8 0 0
BITMAP
7C
7E
06
3E
7E
E6
7E
76
ENDCHAR
STARTCHAR uni0431
ENCODING 1073
SWIDTH 573 0
DWIDTH 8 0
BBX 8 12 0 0
BITMAP
04
0E
3C
60
6C
7E
E6
E7
67
66
7E
3C
ENDCHAR
STARTCHAR uni0432
ENCODING 1074
SWIDTH 557 0
DWIDTH 8 0
BBX 6 8 1 0
BITMAP
F8
FC
CC
F8
CC
CC
FC
F8
ENDCHAR
STARTCHAR uni0433
ENCODING 1075
SWIDTH 433 0
DWIDTH 6 0
BBX 5 8 1 0
BITMAP
F8
F8
C0
C0
C0
C0
C0
C0
ENDCHAR
STARTCHAR uni0434
ENCODING 1076
SWIDTH 555 0
DWIDTH 8 0
BBX 8 10 0 -2
BITMAP
3E
7E
66
66
66
66
FF
FF
C3
C3
ENDCHAR
STARTCHAR uni0435
ENCODING 1077
SWIDTH 552 0
DWIDTH 8 0
BBX 7 8 0 0
BITMAP
3C
7E
66
FE
FE
60
7E
3C
ENDCHAR
STARTCHAR uni0436
ENCODING 1078
SWIDTH 758 0
DWIDTH 11 0
BBX 11 8 0 0
BITMAP
ECC0
6CC0
6D80
3F80
3F80
6D80
6CC0
ECE0
ENDCHAR
STARTCHAR uni0437
ENCODING 1079
SWIDTH 498 0
DWIDTH 7 0
BBX 7 8 0 0
BITMAP
78
FC
0C
38
3C
0E
FC
78
ENDCHAR
STARTCHAR uni0438
ENCODING 1080
SWIDTH 591 0
DWIDTH 8 0
BBX 6 8 1 0
BITMAP
CC
CC
DC
DC
FC
EC
EC
CC
ENDCHAR
STARTCHAR uni0439
ENCODING 1081
SWIDTH 591 0
DWIDTH 8 0
BBX 6 12 1 0
BITMAP
4C
78
38
00
CC
CC
DC
DC
FC
EC
EC
CC
ENDCHAR
STARTCHAR uni043A
ENCODING 1082
SWIDTH 548 0
DWIDTH 8 0
BBX 7 8 1 0
BITMAP
CE
CC
D8
F8
F8
D8
CC
CE
ENDCHAR
STARTCHAR uni043B
ENCODING 1083
SWIDTH 570 0
DWIDTH 8 0
BBX 7 8 0 0
BITMAP
3E
7E
66
66
66
66
E6
46
ENDCHAR
STARTCHAR uni043C
ENCODING 1084
SWIDTH 672 0
DWIDTH 9 0
BBX 9 8 0 0
BITMAP
7300
7700
7780
7580
7D80
7D80
6D80
E180
ENDCHAR
STARTCHAR uni043D
ENCODING 1085
SWIDTH 586 0
DWIDTH 8 0
BBX 6 8 1 0
BITMAP
CC
CC
CC
FC
FC
CC
CC
CC
ENDCHAR
STARTCHAR uni043E
ENCODING 1086
SWIDTH 584 0
DWIDTH 8 0
BBX 8 8 0 0
BITMAP
3C
7E
67
E7
E7
67
7E
3C
ENDCHAR
STARTCHAR uni043F
ENCODING 1087
SWIDTH 583 0
DWIDTH 8 0
BBX 6 8 1 0
BITMAP
FC
FC
CC
CC
CC
CC
CC
CC
ENDCHAR
STARTCHAR uni0440
ENCODING 1088
SWIDTH 597 0
DWIDTH 8 0
BBX 7 11 1 -3
BITMAP
FC
FC
CE
C6
C6
CE
FC
F8
C0
C0
C0
ENDCHAR
STARTCHAR uni0441
ENCODING 1089
SWIDTH 479 0
DWIDTH 7 0
BBX 7 8 0 0
BITMAP
3E
7C
60
E0
E0
60
7C
3E
ENDCHAR
STARTCHAR uni0442
ENCODING 1090
SWIDTH 472 0
DWIDTH 7 0
BBX 7 8 0 0
BITMAP
FE
FC
30
30
30
30
30
30
ENDCHAR
STARTCHAR uni0443
ENCODING 1091
SWIDTH 518 0
DWIDTH 7 0
BBX 7 11 0 -3
BITMAP
C6
E6
6E
6C
6C
6C
38
38
18
70
60
ENDCHAR
STARTCHAR uni0444
ENCODING 1092
SWIDTH 838 0
DWIDTH 12 0
BBX 10 14 1 -3
BITMAP
0C00
0C00
0C00
7F80
FFC0
CCC0
CCC0
CCC0
CCC0
FFC0
7F80
0C00
0C00
0C00
ENDCHAR
STARTCHAR uni0445
ENCODING 1093
SWIDTH 512 0
DWIDTH 7 0
BBX 7 8 0 0
BITMAP
EE
6C
7C
38
38
6C
6C
C6
ENDCHAR
STARTCHAR uni0446
ENCODING 1094
SWIDTH 594 0
DWIDTH 8 0
BBX 7 10 1 -2
BITMAP
CC
CC
CC
CC
CC
CC
FE
FE
02
02
ENDCHAR
STARTCHAR uni0447
ENCODING 1095
SWIDTH 551 0
DWIDTH 8 0
BBX 7 8 0 0
BITMAP
E6
E6
E6
E6
7E
36
06
06
ENDCHAR
STARTCHAR uni0448
ENCODING 1096
SWIDTH 782 0
DWIDTH 11 0
BBX 9 8 1 0
BITMAP
C980
C980
C980
C980
C980
C980
FF80
FF80
ENDCHAR
STARTCHAR uni0449
ENCODING 1097
SWIDTH 799 0
DWIDTH 11 0
BBX 10 10 1 -2
BITMAP
C980
C980
C980
C980
C980
C980
FFC0
FFC0
00C0
0040
ENDCHAR
STARTCHAR uni044A
ENCODING 1098
SWIDTH 617 0
DWIDTH 9 0
BBX 8 8 0 0
BITMAP
F0
F0
3E
3F
33
33
3F
3E
ENDCHAR
STARTCHAR uni044B
ENCODING 1099
SWIDTH 761 0
DWIDTH 11 0
BBX 9 8 1 0
BITMAP
C180
C180
F180
FD80
CD80
CD80
FD80
F980
ENDCHAR
STARTCHAR uni044C
ENCODING 1100
SWIDTH 522 0
DWIDTH 7 0
BBX 6 8 1 0
BITMAP
C0
C0
F0
FC
CC
CC
FC
F8
ENDCHAR
STARTCHAR uni044D
ENCODING 1101
SWIDTH 486 0
DWIDTH 7 0
BBX 6 8 0 0
BITMAP
F8
7C
0C
7C
7C
0C
7C
F8
ENDCHAR
STARTCHAR uni044E
ENCODING 1102
SWIDTH 807 0
DWIDTH 11 0
BBX 10 8 1 0
BITMAP
C700
CF80
D9C0
F8C0
F8C0
D9C0
CF80
C700
ENDCHAR
STARTCHAR uni044F
ENCODING 1103
SWIDTH 557 0
DWIDTH 8 0
BBX 7 8 0 0
BITMAP
3E
7E
66
66
7E
7E
66
E6
ENDCHAR
STARTCHAR uni0450
ENCODING 1104
SWIDTH 552 0
DWIDTH 8 0
BBX 7 12 0 0
BITMAP
10
3C
04
00
3C
7E
66
FE
FE
60
7E
3C
ENDCHAR
STARTCHAR uni0451
ENCODING 1105
SWIDTH 552 0
DWIDTH 8 0
BBX 7 11 0 0
BITMAP
6E
66
00
3C
7E
66
FE
FE
60
7E
3C
ENDCHAR
STARTCHAR uni0452
ENCODING 1106
SWIDTH 585 0
DWIDTH 8 0
BBX 7 14 0 -3
BITMAP
60
F8
F8
6E
7E
66
66
66
66
66
66
06
0E
0C
ENDCHAR
STARTCHAR uni0453
ENCODING 1107
SWIDTH 433 0
DWIDTH 6 0
BBX 5 12 1 0
BITMAP
30
F0
40
00
F8
F8
C0
C0
C0
C0
C0
C0
ENDCHAR
STARTCHAR uni0454
ENCODING 1108
SWIDTH 486 0
DWIDTH 7 0
BBX 7 8 0 0
BITMAP
3E
7C
60
F8
F8
60
7C
3E
ENDCHAR
STARTCHAR uni0455
ENCODING 1109
SWIDTH 483 0
DWIDTH 7 0
BBX 7 8 0 0
BITMAP
7C
7C
E0
78
3C
0E
FC
78
ENDCHAR
STARTCHAR uni0456
ENCODING 1110
SWIDTH 282 0
DWIDTH 4 0
BBX 2 12 1 0
BITMAP
C0
C0
C0
00
C0
C0
C0
C0
C0
C0
C0
C0
ENDCHAR
STARTCHAR uni0457
ENCODING 1111
SWIDTH 282 0
DWIDTH 4 0
BBX 6 11 -1 0
BITMAP
DC
CC
00
30
30
30
30
30
30
30
30
ENDCHAR
STARTCHAR uni0458
ENCODING 1112
SWIDTH 281 0
DWIDTH 4 0
BBX 4 15 -1 -3
BITMAP
30
30
30
00
30
30
30
30
30
30
30
30
70
E0
40
ENDCHAR
STARTCHAR uni0459
ENCODING 1113
SWIDTH 795 0
DWIDTH 11 0
BBX 11 8 0 0
BITMAP
3E00
7E00
6780
67C0
6660
6660
E7E0
47C0
ENDCHAR
STARTCHAR uni045A
ENCODING 1114
SWIDTH 815 0
DWIDTH 11 0
BBX 10 8 1 0
BITMAP
CC00
CC00
CC00
FF80
FFC0
CCC0
CDC0
CF80
ENDCHAR
STARTCHAR uni045B
ENCODING 1115
SWIDTH 586 0
DWIDTH 8 0
BBX 7 11 0 0
BITMAP
60
F8
F8
6E
7E
66
66
66
66
66
66
ENDCHAR
STARTCHAR uni045C
ENCODING 1116
SWIDTH 548 0
DWIDTH 8 0
BBX 7 12 1 0
BITMAP
10
78
40
00
CE
CC
D8
F8
F8
D8
CC
CE
ENDCHAR
STARTCHAR uni045D
ENCODING 1117
SWIDTH 591 0
DWIDTH 8 0
BBX 6 12 1 0
BITMAP
30
78
08
00
CC
CC
DC
DC
FC
EC
EC
CC
ENDCHAR
STARTCHAR uni045E
ENCODING 1118
SWIDTH 518 0
DWIDTH 7 0
BBX 7 15 0 -3
BITMAP
28
7C
38
00
C6
E6
6E
6C
6C
6C
38
38
18
70
60
ENDCHAR
STARTCHAR uni045F
ENCODING 1119
SWIDTH 577 0
DWIDTH 8 0
BBX 6 10 1 -2
BITMAP
CC
CC
CC
CC
CC
CC
FC
FC
30
30
ENDCHAR
STARTCHAR uni0460
ENCODING 1120
SWIDTH 887 0
DWIDTH 12 0
BBX 11 10 1 0
BITMAP
61C0
C0C0
C0C0
C0E0
CCE0
CCE0
CCE0
CCE0
FFC0
7380
ENDCHAR
STARTCHAR uni0461
ENCODING 1121
SWIDTH 774 0
DWIDTH 11 0
BBX 9 8 1 0
BITMAP
C380
C180
C980
D980
D980
D980
FF80
7700
ENDCHAR
STARTCHAR uni0462
ENCODING 1122
SWIDTH 669 0
DWIDTH 9 0
BBX 9 10 0 0
BITMAP
3000
FC00
FC00
3E00
3F00
3380
3180
3180
3F80
3F00
ENDCHAR
STARTCHAR uni0463
ENCODING 1123
SWIDTH 532 0
DWIDTH 7 0
BBX 7 10 0 0
BITMAP
60
60
F8
F8
78
7E
66
66
7E
7C
ENDCHAR
STARTCHAR uni0464
ENCODING 1124
SWIDTH 841 0
DWIDTH 12 0
BBX 11 10 1 0
BITMAP
C7C0
CFE0
CC00
DC00
FF80
FF80
DC00
CC40
CFE0
C7C0
ENDCHAR
STARTCHAR uni0465
ENCODING 1125
SWIDTH 740 0
DWIDTH 10 0
BBX 9 8 1 0
BITMAP
C780
CF80
D800
FF00
FF00
D800
CF80
C780
ENDCHAR
STARTCHAR uni0466
ENCODING 1126
SWIDTH 643 0
DWIDTH 9 0
BBX 9 10 0 0
BITMAP
1C00
1400
3600
3600
3E00
7F00
6B00
6B00
CB80
C980
ENDCHAR
STARTCHAR uni0467
ENCODING 1127
SWIDTH 572 0
DWIDTH 8 0
BBX 8 8 0 0
BITMAP
18
3C
3C
24
7E
7E
DB
DB
ENDCHAR
STARTCHAR uni0468
ENCODING 1128
SWIDTH 912 0
DWIDTH 13 0
BBX 12 10 1 0
BITMAP
C380
C780
C680
C6C0
FFC0
FFC0
CF60
DF60
DB60
DB30
ENDCHAR
STARTCHAR uni0469
ENCODING 1129
SWIDTH 783 0
DWIDTH 11 0
BBX 10 8 1 0
BITMAP
C700
C700
CF00
CD80
FF80
DF80
DEC0
FEC0
ENDCHAR
STARTCHAR uni046A
ENCODING 1130
SWIDTH 811 0
DWIDTH 11 0
BBX 11 10 0 0
BITMAP
7FC0
7FC0
3180
1B00
3F80
3F80
76C0
66C0
66E0
C660
ENDCHAR
STARTCHAR uni046B
ENCODING 1131
SWIDTH 704 0
DWIDTH 10 0
BBX 10 8 0 0
BITMAP
3F00
3F00
1600
3F00
7F00
6D80
6D80
CCC0
ENDCHAR
STARTCHAR uni046C
ENCODING 1132
SWIDTH 974 0
DWIDTH 14 0
BBX 13 10 1 0
BITMAP
CFF0
CFF0
CE60
C6C0
FFE0
FFE0
CDB0
DDB0
D9B0
D9B8
ENDCHAR
STARTCHAR uni046D
ENCODING 1133
SWIDTH 824 0
DWIDTH 12 0
BBX 10 8 1 0
BITMAP
DFC0
DF80
CD80
FF80
FFC0
DAC0
DAC0
F2C0
ENDCHAR
STARTCHAR uni046E
ENCODING 1134
SWIDTH 527 0
DWIDTH 7 0
BBX 7 17 0 -3
BITMAP
44
6C
38
00
FE
FE
1C
38
78
7E
06
06
0E
7C
F0
60
60
ENDCHAR
STARTCHAR uni046F
ENCODING 1135
SWIDTH 509 0
DWIDTH 7 0
BBX 7 15 0 -3
BITMAP
44
78
30
00
FC
FC
18
38
3E
06
0E
7C
E0
60
20
ENDCHAR
STARTCHAR uni0470
ENCODING 1136
SWIDTH 728 0
DWIDTH 10 0
BBX 10 10 0 0
BITMAP
CCC0
CCC0
CCC0
CCC0
ECC0
6DC0
7F80
0C00
0C00
0C00
ENDCHAR
STARTCHAR uni0471
ENCODING 1137
SWIDTH 780 0
DWIDTH 11 0
BBX 9 11 1 -3
BITMAP
DD80
DD80
DD80
DD80
DD80
DD80
FF80
7E00
1C00
1C00
1C00
ENDCHAR
STARTCHAR uni0472
ENCODING 1138
SWIDTH 691 0
DWIDTH 10 0
BBX 9 10 0 0
BITMAP
1E00
7F00
6380
6180
FF80
FF80
6180
6380
7F00
1E00
ENDCHAR
STARTCHAR uni0473
ENCODING 1139
SWIDTH 584 0
DWIDTH 8 0
BBX 8 8 0 0
BITMAP
3C
7E
67
FF
FF
67
7E
3C
ENDCHAR
STARTCHAR uni0474
ENCODING 1140
SWIDTH 640 0
DWIDTH 9 0
BBX 10 10 0 0
BITMAP
C3C0
E380
6600
6600
6600
6600
3C00
3C00
3C00
3C00
ENDCHAR
STARTCHAR uni0475
ENCODING 1141
SWIDTH 533 0
DWIDTH 7 0
BBX 8 9 0 0
BITMAP
03
C7
E6
6C
6C
6C
2C
38
38
ENDCHAR
STARTCHAR uni0476
ENCODING 1142
SWIDTH 640 0
DWIDTH 9 0
BBX 10 15 0 0
BITMAP
2800
7800
2C00
3400
0000
C3C0
E380
6600
6600
6600
6600
3C00
3C00
3C00
3C00
ENDCHAR
STARTCHAR uni0477
ENCODING 1143
SWIDTH 533 0
DWIDTH 7 0
BBX 8 13 0 0
BITMAP
48
F8
68
2C
03
C7
E6
6C
6C
6C
2C
38
38
ENDCHAR
STARTCHAR uni0478
ENCODING 1144
SWIDTH 1209 0
DWIDTH 17 0
BBX 17 13 0 -3
BITMAP
1E0000
7F0000
63B180
61B380
E1B300
E19B00
619B00
639E00
7F1E00
1E0E00
000C00
003C00
003800
ENDCHAR
STARTCHAR uni0479
ENCODING 1145
SWIDTH 1094 0
DWIDTH 15 0
BBX 15 11 0 -3
BITMAP
3CC6
7EE6
6766
E76C
E76C
672C
7E38
3C38
0018
0070
0060
ENDCHAR
STARTCHAR uni048A
ENCODING 1162
SWIDTH 702 0
DWIDTH 10 0
BBX 9 16 1 -2
BITMAP
2800
7C00
3800
0000
CE00
CE00
CE00
DE00
DE00
D600
F600
F600
E780
E780
0100
0300
ENDCHAR
STARTCHAR uni048B
ENCODING 1163
SWIDTH 627 0
DWIDTH 9 0
BBX 8 14 1 -2
BITMAP
4C
78
30
00
CC
DC
D4
DC
FC
EC
EF
CF
02
06
ENDCHAR
STARTCHAR uni048C
ENCODING 1164
SWIDTH 608 0
DWIDTH 9 0
BBX 8 10 0 0
BITMAP
60
F8
F8
7C
7F
63
63
63
7F
7E
ENDCHAR
STARTCHAR uni048D
ENCODING 1165
SWIDTH 533 0
DWIDTH 7 0
BBX 7 8 0 0
BITMAP
60
F8
F8
7C
7E
66
7E
7C
ENDCHAR
STARTCHAR uni048E
ENCODING 1166
SWIDTH 600 0
DWIDTH 8 0
BBX 7 10 1 0
BITMAP
FC
FE
C6
D6
DE
FC
FC
C4
C0
C0
ENDCHAR
STARTCHAR uni048F
ENCODING 1167
SWIDTH 597 0
DWIDTH 8 0
BBX 7 11 1 -3
BITMAP
FC
FC
CE
C6
E6
DE
FC
F8
C4
C0
C0
ENDCHAR
STARTCHAR uni0490
ENCODING 1168
SWIDTH 510 0
DWIDTH 7 0
BBX 6 13 1 0
BITMAP
0C
0C
0C
FC
FC
C0
C0
C0
C0
C0
C0
C0
C0
ENDCHAR
STARTCHAR uni0491
ENCODING 1169
SWIDTH 433 0
DWIDTH 6 0
BBX 5 10 1 0
BITMAP
18
18
F8
F8
C0
C0
C0
C0
C0
C0
ENDCHAR
STARTCHAR uni0492
ENCODING 1170
SWIDTH 519 0
DWIDTH 7 0
BBX 7 10 0 0
BITMAP
7E
7E
60
60
F8
F8
60
60
60
60
ENDCHAR
STARTCHAR uni0493
ENCODING 1171
SWIDTH 444 0
DWIDTH 6 0
BBX 6 8 0 0
BITMAP
7C
7C
60
F8
F8
60
60
60
ENDCHAR
STARTCHAR uni0494
ENCODING 1172
SWIDTH 627 0
DWIDTH 9 0
BBX 7 13 1 -3
BITMAP
FC
FC
C0
DC
FE
C6
C6
C6
C6
C6
06
1E
1C
ENDCHAR
STARTCHAR uni0495
ENCODING 1173
SWIDTH 552 0
DWIDTH 8 0
BBX 6 11 1 -3
BITMAP
F8
F8
C0
DC
FC
CC
CC
CC
0C
3C
38
ENDCHAR
STARTCHAR uni0496
ENCODING 1174
SWIDTH 910 0
DWIDTH 13 0
BBX 13 12 0 -2
BITMAP
E638
6630
7660
36E0
1FC0
3FE0
3660
7670
6638
E638
0018
0018
ENDCHAR
STARTCHAR uni0497
ENCODING 1175
SWIDTH 754 0
DWIDTH 11 0
BBX 11 10 0 -2
BITMAP
ECC0
6CC0
6D80
3F80
3F80
6DC0
6CE0
ECE0
0060
0060
ENDCHAR
STARTCHAR uni0498
ENCODING 1176
SWIDTH 541 0
DWIDTH 8 0
BBX 7 14 0 -4
BITMAP
7C
FE
06
0E
3C
3E
06
46
FE
7C
08
08
38
30
ENDCHAR
STARTCHAR uni0499
ENCODING 1177
SWIDTH 498 0
DWIDTH 7 0
BBX 7 12 0 -4
BITMAP
78
FC
0C
38
3C
0E
FC
78
18
08
38
30
ENDCHAR
STARTCHAR uni049A
ENCODING 1178
SWIDTH 623 0
DWIDTH 9 0
BBX 8 12 1 -2
BITMAP
C7
C6
CC
CC
F8
FC
CC
CE
C7
C7
03
03
ENDCHAR
STARTCHAR uni049B
ENCODING 1179
SWIDTH 548 0
DWIDTH 8 0
BBX 7 10 1 -2
BITMAP
CE
CC
D8
F8
F8
DC
CE
CE
06
06
ENDCHAR
STARTCHAR uni049C
ENCODING 1180
SWIDTH 633 0
DWIDTH 9 0
BBX 8 10 1 0
BITMAP
C7
C6
DC
DC
F8
FC
DC
DE
C6
C7
ENDCHAR
STARTCHAR uni049D
ENCODING 1181
SWIDTH 556 0
DWIDTH 8 0
BBX 7 8 1 0
BITMAP
CE
CC
F8
F8
F8
FC
EC
CE
ENDCHAR
STARTCHAR uni049E
ENCODING 1182
SWIDTH 635 0
DWIDTH 9 0
BBX 9 10 0 0
BITMAP
6380
FB00
FE00
6600
7C00
7E00
6600
6700
6300
6380
ENDCHAR
STARTCHAR uni049F
ENCODING 1183
SWIDTH 556 0
DWIDTH 8 0
BBX 8 11 0 0
BITMAP
60
F8
F8
67
66
6C
7C
7C
6E
66
67
ENDCHAR
STARTCHAR uni04A0
ENCODING 1184
SWIDTH 747 0
DWIDTH 10 0
BBX 11 10 0 0
BITMAP
F8C0
F980
1980
1B00
1F00
1F00
1B80
1980
19C0
18E0
ENDCHAR
STARTCHAR uni04A1
ENCODING 1185
SWIDTH 634 0
DWIDTH 9 0
BBX 9 8 0 0
BITMAP
F380
F300
3600
3E00
3E00
3700
3300
3380
ENDCHAR
STARTCHAR uni04A2
ENCODING 1186
SWIDTH 695 0
DWIDTH 10 0
BBX 9 12 1 -2
BITMAP
C600
C600
C600
C600
FE00
FE00
C600
C600
C780
C780
0180
0180
ENDCHAR
STARTCHAR uni04A3
ENCODING 1187
SWIDTH 604 0
DWIDTH 8 0
BBX 7 10 1 -2
BITMAP
CC
CC
CC
FC
FC
CC
CE
CE
02
02
ENDCHAR
STARTCHAR uni04A4
ENCODING 1188
SWIDTH 789 0
DWIDTH 11 0
BBX 10 10 1 0
BITMAP
C7C0
C7C0
C600
C600
FE00
FE00
C600
C600
C600
C600
ENDCHAR
STARTCHAR uni04A5
ENCODING 1189
SWIDTH 681 0
DWIDTH 10 0
BBX 9 8 1 0
BITMAP
CF80
CF00
CC00
FC00
FC00
CC00
CC00
CC00
ENDCHAR
STARTCHAR uni04A6
ENCODING 1190
SWIDTH 996 0
DWIDTH 14 0
BBX 13 13 1 -3
BITMAP
FE00
FE00
C600
C6E0
C7F0
C630
C638
C638
C638
C638
0038
00F0
00F0
ENDCHAR
STARTCHAR uni04A7
ENCODING 1191
SWIDTH 852 0
DWIDTH 12 0
BBX 10 11 1 -3
BITMAP
FC00
FC00
CC00
CDC0
CFC0
CCC0
CCC0
CCC0
00C0
03C0
03C0
ENDCHAR
STARTCHAR uni04A8
ENCODING 1192
SWIDTH 719 0
DWIDTH 10 0
BBX 10 12 0 -2
BITMAP
1E00
3F00
6000
6300
E780
ECC0
64C0
6580
3F80
1F00
0180
0100
ENDCHAR
STARTCHAR uni04A9
ENCODING 1193
SWIDTH 623 0
DWIDTH 9 0
BBX 8 10 0 -2
BITMAP
3C
7C
66
EF
E9
6F
7F
3E
03
02
ENDCHAR
STARTCHAR uni04AA
ENCODING 1194
SWIDTH 575 0
DWIDTH 8 0
BBX 8 14 0 -4
BITMAP
1E
3F
60
60
60
E0
60
60
72
3F
1C
04
06
1C
ENDCHAR
STARTCHAR uni04AB
ENCODING 1195
SWIDTH 479 0
DWIDTH 7 0
BBX 7 11 0 -3
BITMAP
3E
7C
60
E0
E0
60
7E
3C
08
0C
38
ENDCHAR
STARTCHAR uni04AC
ENCODING 1196
SWIDTH 540 0
DWIDTH 8 0
BBX 8 12 0 -2
BITMAP
FF
FE
18
18
18
18
18
18
1C
1C
0C
0C
ENDCHAR
STARTCHAR uni04AD
ENCODING 1197
SWIDTH 472 0
DWIDTH 7 0
BBX 7 10 0 -2
BITMAP
FE
FC
30
30
30
30
3C
3C
0C
0C
ENDCHAR
STARTCHAR uni04AE
ENCODING 1198
SWIDTH 594 0
DWIDTH 8 0
BBX 8 10 0 0
BITMAP
E3
67
66
36
3C
1C
18
18
18
18
ENDCHAR
STARTCHAR uni04AF
ENCODING 1199
SWIDTH 513 0
DWIDTH 7 0
BBX 7 11 0 -3
BITMAP
C6
E6
6C
6C
6C
38
38
38
18
18
18
ENDCHAR
STARTCHAR uni04B0
ENCODING 1200
SWIDTH 594 0
DWIDTH 8 0
BBX 8 10 0 0
BITMAP
E3
67
76
3C
3C
7E
18
18
18
18
ENDCHAR
STARTCHAR uni04B1
ENCODING 1201
SWIDTH 513 0
DWIDTH 7 0
BBX 7 11 0 -3
BITMAP
C6
E6
6C
6C
6C
38
38
7C
18
18
18
ENDCHAR
STARTCHAR uni04B2
ENCODING 1202
SWIDTH 581 0
DWIDTH 8 0
BBX 8 12 0 -2
BITMAP
E7
66
3E
3C
18
3C
3C
66
67
E7
01
01
ENDCHAR
STARTCHAR uni04B3
ENCODING 1203
SWIDTH 523 0
DWIDTH 7 0
BBX 7 10 0 -2
BITMAP
EE
6C
3C
38
38
6C
6E
C6
02
02
ENDCHAR
STARTCHAR uni04B4
ENCODING 1204
SWIDTH 810 0
DWIDTH 11 0
BBX 11 12 0 -2
BITMAP
FEC0
FEC0
18C0
18C0
18C0
18C0
18C0
18C0
1FE0
1FE0
0060
0060
ENDCHAR
STARTCHAR uni04B5
ENCODING 1205
SWIDTH 702 0
DWIDTH 10 0
BBX 10 10 0 -2
BITMAP
FD80
FD80
3180
3180
3180
3180
3FC0
3FC0
00C0
00C0
ENDCHAR
STARTCHAR uni04B6
ENCODING 1206
SWIDTH 648 0
DWIDTH 9 0
BBX 9 12 0 -2
BITMAP
E700
E700
E700
E700
E700
7F00
3F00
0700
0780
0780
0180
0180
ENDCHAR
STARTCHAR uni04B7
ENCODING 1207
SWIDTH 568 0
DWIDTH 8 0
BBX 8 10 0 -2
BITMAP
E6
E6
E6
E6
7E
36
07
07
03
03
ENDCHAR
STARTCHAR uni04B8
ENCODING 1208
SWIDTH 619 0
DWIDTH 9 0
BBX 8 10 0 0
BITMAP
E7
E7
EF
EF
EF
7F
3F
0F
07
07
ENDCHAR
STARTCHAR uni04B9
ENCODING 1209
SWIDTH 551 0
DWIDTH 8 0
BBX 7 8 0 0
BITMAP
E6
E6
F6
F6
7E
76
16
06
ENDCHAR
STARTCHAR uni04BA
ENCODING 1210
SWIDTH 627 0
DWIDTH 9 0
BBX 7 10 1 0
BITMAP
C0
C0
C0
DC
FE
C6
C6
C6
C6
C6
ENDCHAR
STARTCHAR uni04BB
ENCODING 1211
SWIDTH 572 0
DWIDTH 8 0
BBX 6 11 1 0
BITMAP
C0
C0
C0
C0
DC
FC
CC
CC
CC
CC
CC
ENDCHAR
STARTCHAR uni04BC
ENCODING 1212
SWIDTH 788 0
DWIDTH 11 0
BBX 11 10 0 0
BITMAP
0780
1FC0
98C0
D8E0
FFE0
7FE0
1800
1800
1FC0
0780
ENDCHAR
STARTCHAR uni04BD
ENCODING 1213
SWIDTH 677 0
DWIDTH 9 0
BBX 9 8 0 0
BITMAP
0F00
9F80
F980
FF80
7F80
3800
1F80
0F00
ENDCHAR
STARTCHAR uni04BE
ENCODING 1214
SWIDTH 788 0
DWIDTH 11 0
BBX 11 13 0 -3
BITMAP
0F80
1FC0
D8C0
FFE0
7FE0
1800
1800
1CC0
0FC0
0300
0600
0680
0300
ENDCHAR
STARTCHAR uni04BF
ENCODING 1215
SWIDTH 677 0
DWIDTH 9 0
BBX 9 11 0 -3
BITMAP
0F00
9F80
F980
FF80
7F80
3800
1F80
0F00
0400
0D00
0700
ENDCHAR
STARTCHAR uni04C0
ENCODING 1216
SWIDTH 293 0
DWIDTH 4 0
BBX 2 10 1 0
BITMAP
C0
C0
C0
C0
C0
C0
C0
C0
C0
C0
ENDCHAR
STARTCHAR uni04C1
ENCODING 1217
SWIDTH 905 0
DWIDTH 13 0
BBX 13 14 0 0
BITMAP
0900
0F80
0700
0000
E638
6630
7660
36E0
1FC0
3FE0
3660
7670
6630
E638
ENDCHAR
STARTCHAR uni04C2
ENCODING 1218
SWIDTH 758 0
DWIDTH 11 0
BBX 11 12 0 0
BITMAP
1200
1F00
0E00
0000
ECC0
6CC0
6D80
3F80
3F80
6D80
6CC0
ECE0
ENDCHAR
STARTCHAR uni04C3
ENCODING 1219
SWIDTH 630 0
DWIDTH 9 0
BBX 7 13 1 -3
BITMAP
C6
CE
CC
DC
FC
FE
C6
C6
C6
C6
06
1E
1C
ENDCHAR
STARTCHAR uni04C4
ENCODING 1220
SWIDTH 557 0
DWIDTH 8 0
BBX 6 11 1 -3
BITMAP
CC
CC
D8
FC
FC
CC
CC
CC
0C
3C
38
ENDCHAR
STARTCHAR uni04C5
ENCODING 1221
SWIDTH 695 0
DWIDTH 10 0
BBX 10 12 0 -2
BITMAP
3F00
3F00
3300
3300
7300
7300
6300
6300
E3C0
C380
0180
0180
ENDCHAR
STARTCHAR uni04C6
ENCODING 1222
SWIDTH 612 0
DWIDTH 9 0
BBX 9 10 0 -2
BITMAP
3E00
7E00
6600
6600
6600
6600
E780
4700
0300
0300
ENDCHAR
STARTCHAR uni04C7
ENCODING 1223
SWIDTH 666 0
DWIDTH 9 0
BBX 7 13 1 -3
BITMAP
C6
C6
C6
C6
FE
FE
C6
C6
C6
C6
06
1E
1C
ENDCHAR
STARTCHAR uni04C8
ENCODING 1224
SWIDTH 586 0
DWIDTH 8 0
BBX 6 11 1 -3
BITMAP
CC
CC
CC
FC
FC
CC
CC
CC
0C
3C
38
ENDCHAR
STARTCHAR uni04C9
ENCODING 1225
SWIDTH 705 0
DWIDTH 10 0
BBX 9 12 1 -2
BITMAP
C600
C600
C600
C600
FE00
FE00
C600
C600
C780
C780
0100
0300
ENDCHAR
STARTCHAR uni04CA
ENCODING 1226
SWIDTH 628 0
DWIDTH 9 0
BBX 8 10 1 -2
BITMAP
CC
CC
CC
FC
FC
CC
CF
CE
02
06
ENDCHAR
STARTCHAR uni04CB
ENCODING 1227
SWIDTH 619 0
DWIDTH 9 0
BBX 8 12 0 -2
BITMAP
E7
E7
E7
E7
E7
7F
3F
07
07
07
04
04
ENDCHAR
STARTCHAR uni04CC
ENCODING 1228
SWIDTH 551 0
DWIDTH 8 0
BBX 7 10 0 -2
BITMAP
E6
E6
E6
E6
7E
36
0E
0E
08
08
ENDCHAR
STARTCHAR uni04CD
ENCODING 1229
SWIDTH 839 0
DWIDTH 12 0
BBX 12 12 0 -2
BITMAP
71C0
71C0
7BC0
7BC0
7BC0
6AC0
6EC0
6EC0
6EF0
E0F0
0020
0060
ENDCHAR
STARTCHAR uni04CE
ENCODING 1230
SWIDTH 747 0
DWIDTH 10 0
BBX 11 10 0 -2
BITMAP
7300
7700
7780
7580
7D80
7D80
6DE0
E1C0
00C0
0080
ENDCHAR
STARTCHAR uni04CF
ENCODING 1231
SWIDTH 297 0
DWIDTH 4 0
BBX 3 11 1 0
BITMAP
C0
C0
C0
C0
C0
C0
C0
C0
C0
E0
E0
ENDCHAR
STARTCHAR uni04D0
ENCODING 1232
SWIDTH 590 0
DWIDTH 8 0
BBX 8 14 0 0
BITMAP
26
3C
1C
00
1C
3C
3C
36
66
66
7E
7F
E3
C3
ENDCHAR
STARTCHAR uni04D1
ENCODING 1233
SWIDTH 548 0
DWIDTH 8 0
BBX 7 12 0 0
BITMAP
24
7C
38
00
7C
7E
06
3E
7E
E6
7E
76
ENDCHAR
STARTCHAR uni04D2
ENCODING 1234
SWIDTH 590 0
DWIDTH 8 0
BBX 8 13 0 0
BITMAP
76
26
00
1C
3C
3C
36
66
66
7E
7F
E3
C3
ENDCHAR
STARTCHAR uni04D3
ENCODING 1235
SWIDTH 548 0
DWIDTH 8 0
BBX 7 11 0 0
BITMAP
6E
6C
00
7C
7E
06
3E
7E
E6
7E
76
ENDCHAR
STARTCHAR uni04D4
ENCODING 1236
SWIDTH 845 0
DWIDTH 12 0
BBX 11 10 0 0
BITMAP
1FE0
1FE0
1E00
3600
37E0
77E0
7F00
7F00
E3E0
C3E0
ENDCHAR
STARTCHAR uni04D5
ENCODING 1237
SWIDTH 855 0
DWIDTH 12 0
BBX 12 8 0 0
BITMAP
7DC0
7FE0
0660
3FF0
7FF0
E600
7FE0
7BC0
ENDCHAR
STARTCHAR uni04D6
ENCODING 1238
SWIDTH 526 0
DWIDTH 7 0
BBX 6 14 1 0
BITMAP
C8
78
70
00
FC
FC
C0
C0
F8
F8
C0
C0
FC
FC
ENDCHAR
STARTCHAR uni04D7
ENCODING 1239
SWIDTH 552 0
DWIDTH 8 0
BBX 7 12 0 0
BITMAP
24
3C
3C
00
3C
7E
66
FE
FE
60
7E
3C
ENDCHAR
STARTCHAR uni04D8
ENCODING 1240
SWIDTH 640 0
DWIDTH 9 0
BBX 8 10 0 0
BITMAP
3C
7F
03
03
FF
FF
E3
63
7F
3C
ENDCHAR
STARTCHAR uni04D9
ENCODING 1241
SWIDTH 556 0
DWIDTH 8 0
BBX 7 8 0 0
BITMAP
3C
7E
06
FE
FE
66
7E
3C
ENDCHAR
STARTCHAR uni04DA
ENCODING 1242
SWIDTH 640 0
DWIDTH 9 0
BBX 8 13 0 0
BITMAP
36
36
00
3C
7F
03
03
FF
FF
E3
63
7F
3C
ENDCHAR
STARTCHAR uni04DB
ENCODING 1243
SWIDTH 556 0
DWIDTH 8 0
BBX 7 11 0 0
BITMAP
6E
6C
00
3C
7E
06
FE
FE
66
7E
3C
ENDCHAR
STARTCHAR uni04DC
ENCODING 1244
SWIDTH 905 0
DWIDTH 13 0
BBX 13 13 0 0
BITMAP
0D80
0D80
0000
E638
6630
7660
36E0
1FC0
3FE0
3660
7670
6630
E638
ENDCHAR
STARTCHAR uni04DD
ENCODING 1245
SWIDTH 758 0
DWIDTH 11 0
BBX 11 11 0 0
BITMAP
1B00
1B00
0000
ECC0
6CC0
6D80
3F80
3F80
6D80
6CC0
ECE0
ENDCHAR
STARTCHAR uni04DE
ENCODING 1246
SWIDTH 541 0
DWIDTH 8 0
BBX 7 13 0 0
BITMAP
6C
6C
00
7C
FE
06
3C
3C
0E
06
46
FE
7C
ENDCHAR
STARTCHAR uni04DF
ENCODING 1247
SWIDTH 498 0
DWIDTH 7 0
BBX 7 11 0 0
BITMAP
EC
6C
00
78
FC
0C
38
3C
0E
FC
78
ENDCHAR
STARTCHAR uni04E0
ENCODING 1248
SWIDTH 547 0
DWIDTH 8 0
BBX 7 10 0 0
BITMAP
7E
7E
1C
38
3C
3E
06
06
FE
7C
ENDCHAR
STARTCHAR uni04E1
ENCODING 1249
SWIDTH 510 0
DWIDTH 7 0
BBX 7 11 0 -3
BITMAP
FC
FC
1C
38
30
3C
0E
06
4E
FC
78
ENDCHAR
STARTCHAR uni04E2
ENCODING 1250
SWIDTH 663 0
DWIDTH 9 0
BBX 7 13 1 0
BITMAP
3C
3C
00
CE
CE
CE
DE
DE
D6
F6
F6
E6
E6
ENDCHAR
STARTCHAR uni04E3
ENCODING 1251
SWIDTH 591 0
DWIDTH 8 0
BBX 6 12 1 0
BITMAP
78
78
00
00
CC
CC
DC
DC
FC
EC
EC
CC
ENDCHAR
STARTCHAR uni04E4
ENCODING 1252
SWIDTH 663 0
DWIDTH 9 0
BBX 7 13 1 0
BITMAP
6C
6C
00
CE
CE
CE
DE
DE
D6
F6
F6
E6
E6
ENDCHAR
STARTCHAR uni04E5
ENCODING 1253
SWIDTH 591 0
DWIDTH 8 0
BBX 6 11 1 0
BITMAP
EC
4C
00
CC
CC
DC
DC
FC
EC
EC
CC
ENDCHAR
STARTCHAR uni04E6
ENCODING 1254
SWIDTH 691 0
DWIDTH 10 0
BBX 9 13 0 0
BITMAP
3700
3600
0000
1E00
7F00
6380
6180
E180
E180
6180
6380
7F00
1E00
ENDCHAR
STARTCHAR uni04E7
ENCODING 1255
SWIDTH 584 0
DWIDTH 8 0
BBX 8 11 0 0
BITMAP
76
66
00
3C
7E
67
E7
E7
67
7E
3C
ENDCHAR
STARTCHAR uni04E8
ENCODING 1256
SWIDTH 691 0
DWIDTH 10 0
BBX 9 10 0 0
BITMAP
1E00
7F00
6380
6180
FF80
FF80
6180
6380
7F00
1E00
ENDCHAR
STARTCHAR uni04E9
ENCODING 1257
SWIDTH 584 0
DWIDTH 8 0
BBX 8 8 0 0
BITMAP
3C
7E
67
FF
FF
67
7E
3C
ENDCHAR
STARTCHAR uni04EA
ENCODING 1258
SWIDTH 691 0
DWIDTH 10 0
BBX 9 13 0 0
BITMAP
3700
3600
0000
1E00
7F00
6380
6180
FF80
FF80
6180
6380
7F00
1E00
ENDCHAR
STARTCHAR uni04EB
ENCODING 1259
SWIDTH 584 0
DWIDTH 8 0
BBX 8 11 0 0
BITMAP
76
66
00
3C
7E
67
FF
FF
67
7E
3C
ENDCHAR
STARTCHAR uni04EC
ENCODING 1260
SWIDTH 541 0
DWIDTH 8 0
BBX 7 13 0 0
BITMAP
6C
6C
00
78
FC
0E
06
7E
7E
06
0E
FC
78
ENDCHAR
STARTCHAR uni04ED
ENCODING 1261
SWIDTH 486 0
DWIDTH 7 0
BBX 6 11 0 0
BITMAP
EC
4C
00
F8
7C
0C
7C
7C
0C
7C
F8
ENDCHAR
STARTCHAR uni04EE
ENCODING 1262
SWIDTH 577 0
DWIDTH 8 0
BBX 8 13 0 0
BITMAP
3C
3C
00
C3
E3
66
66
36
3C
3C
0C
18
70
ENDCHAR
STARTCHAR uni04EF
ENCODING 1263
SWIDTH 518 0
DWIDTH 7 0
BBX 7 15 0 -3
BITMAP
7C
7C
00
00
C6
E6
6E
6C
6C
6C
38
38
18
70
60
ENDCHAR
STARTCHAR uni04F0
ENCODING 1264
SWIDTH 577 0
DWIDTH 8 0
BBX 8 13 0 0
BITMAP
76
66
00
C3
E3
66
66
36
3C
3C
0C
18
70
ENDCHAR
STARTCHAR uni04F1
ENCODING 1265
SWIDTH 518 0
DWIDTH 7 0
BBX 7 14 0 -3
BITMAP
6C
6C
00
C6
E6
6E
6C
6C
6C
38
38
18
70
60
ENDCHAR
STARTCHAR uni04F2
ENCODING 1266
SWIDTH 577 0
DWIDTH 8 0
BBX 8 15 0 0
BITMAP
14
1E
36
14
00
C3
E3
66
66
36
3C
3C
0C
18
70
ENDCHAR
STARTCHAR uni04F3
ENCODING 1267
SWIDTH 518 0
DWIDTH 7 0
BBX 7 16 0 -3
BITMAP
14
36
3C
24
00
C6
E6
6E
6C
6C
6C
38
38
18
70
60
ENDCHAR
STARTCHAR uni04F4
ENCODING 1268
SWIDTH 619 0
DWIDTH 9 0
BBX 8 13 0 0
BITMAP
7E
66
00
E7
E7
E7
E7
E7
7F
3F
07
07
07
ENDCHAR
STARTCHAR uni04F5
ENCODING 1269
SWIDTH 551 0
DWIDTH 8 0
BBX 7 11 0 0
BITMAP
6C
6C
00
E6
E6
E6
E6
7E
36
06
06
ENDCHAR
STARTCHAR uni04F6
ENCODING 1270
SWIDTH 510 0
DWIDTH 7 0
BBX 6 12 1 -2
BITMAP
FC
FC
C0
C0
C0
C0
C0
C0
E0
E0
20
20
ENDCHAR
STARTCHAR uni04F7
ENCODING 1271
SWIDTH 433 0
DWIDTH 6 0
BBX 5 10 1 -2
BITMAP
F8
F8
C0
C0
C0
C0
E0
E0
60
20
ENDCHAR
STARTCHAR uni04F8
ENCODING 1272
SWIDTH 850 0
DWIDTH 12 0
BBX 10 13 1 0
BITMAP
3700
3300
0000
C0C0
C0C0
C0C0
F8C0
FCC0
CEC0
C6C0
CEC0
FCC0
F8C0
ENDCHAR
STARTCHAR uni04F9
ENCODING 1273
SWIDTH 761 0
DWIDTH 11 0
BBX 9 11 1 0
BITMAP
3600
3600
0000
C180
C180
F180
FD80
CD80
CD80
FD80
F980
ENDCHAR
STARTCHAR uni04FA
ENCODING 1274
SWIDTH 519 0
DWIDTH 7 0
BBX 7 13 0 -3
BITMAP
7E
7E
60
F8
F8
60
60
60
78
78
38
F0
F0
ENDCHAR
STARTCHAR uni04FB
ENCODING 1275
SWIDTH 444 0
DWIDTH 6 0
BBX 6 11 0 -3
BITMAP
7C
7C
60
F8
F8
60
70
70
30
F0
E0
ENDCHAR
STARTCHAR uni04FC
ENCODING 1276
SWIDTH 607 0
DWIDTH 9 0
BBX 8 13 0 -3
BITMAP
E7
66
7E
3C
18
3C
3C
66
67
E7
03
0F
0E
ENDCHAR
STARTCHAR uni04FD
ENCODING 1277
SWIDTH 525 0
DWIDTH 7 0
BBX 7 11 0 -3
BITMAP
EE
6C
7C
38
38
6C
6E
C6
06
1E
1C
ENDCHAR
STARTCHAR uni04FE
ENCODING 1278
SWIDTH 581 0
DWIDTH 8 0
BBX 8 10 0 0
BITMAP
E7
66
7E
3C
7E
7E
3C
66
66
E7
ENDCHAR
STARTCHAR uni04FF
ENCODING 1279
SWIDTH 512 0
DWIDTH 7 0
BBX 7 8 0 0
BITMAP
EE
6C
3C
7C
38
6C
6E
C6
ENDCHAR
STARTCHAR uni0500
ENCODING 1280
SWIDTH 594 0
DWIDTH 8 0
BBX 7 10 0 0
BITMAP
06
06
06
1E
7E
E6
E6
E6
7E
3E
ENDCHAR
STARTCHAR uni0501
ENCODING 1281
SWIDTH 600 0
DWIDTH 8 0
BBX 7 11 1 0
BITMAP
0E
0E
0E
7E
FE
CE
CE
CE
CE
FE
76
ENDCHAR
STARTCHAR uni0502
ENCODING 1282
SWIDTH 871 0
DWIDTH 12 0
BBX 12 10 0 0
BITMAP
0600
0600
0600
1E00
7E70
E670
E670
E670
7FE0
3BC0
ENDCHAR
STARTCHAR uni0503
ENCODING 1283
SWIDTH 872 0
DWIDTH 12 0
BBX 11 11 1 0
BITMAP
0E00
0E00
0E00
7E00
FE00
CEE0
CE60
CE60
CEE0
FFC0
7780
ENDCHAR
STARTCHAR uni0504
ENCODING 1284
SWIDTH 743 0
DWIDTH 10 0
BBX 10 10 0 0
BITMAP
F800
FC00
0C00
0C00
7CC0
70C0
38C0
18C0
0F80
0700
ENDCHAR
STARTCHAR uni0505
ENCODING 1285
SWIDTH 676 0
DWIDTH 9 0
BBX 9 8 0 0
BITMAP
F000
F800
1980
7980
7180
3980
1F00
0E00
ENDCHAR
STARTCHAR uni0506
ENCODING 1286
SWIDTH 481 0
DWIDTH 7 0
BBX 7 12 0 -2
BITMAP
F8
FC
0C
0C
7C
70
38
18
1E
0E
06
06
ENDCHAR
STARTCHAR uni0507
ENCODING 1287
SWIDTH 438 0
DWIDTH 6 0
BBX 6 10 0 -2
BITMAP
F0
F8
18
18
78
70
1C
1C
04
04
ENDCHAR
STARTCHAR uni0508
ENCODING 1288
SWIDTH 932 0
DWIDTH 13 0
BBX 13 10 0 0
BITMAP
3F00
3F00
3300
3300
7338
7338
6338
6330
E3F0
C1E0
ENDCHAR
STARTCHAR uni0509
ENCODING 1289
SWIDTH 843 0
DWIDTH 12 0
BBX 11 8 0 0
BITMAP
3E00
7E00
6660
6660
6660
6660
E7E0
43C0
ENDCHAR
STARTCHAR uni050A
ENCODING 1290
SWIDTH 943 0
DWIDTH 13 0
BBX 12 10 1 0
BITMAP
C600
C600
C600
C600
FE00
FE30
C630
C670
C7E0
C3C0
ENDCHAR
STARTCHAR uni050B
ENCODING 1291
SWIDTH 859 0
DWIDTH 12 0
BBX 11 8 1 0
BITMAP
CC00
CC00
CCC0
FCE0
FCE0
CCC0
CFC0
C780
ENDCHAR
STARTCHAR uni050C
ENCODING 1292
SWIDTH 645 0
DWIDTH 9 0
BBX 8 10 0 0
BITMAP
1E
3F
60
60
E7
E7
63
63
7F
1E
ENDCHAR
STARTCHAR uni050D
ENCODING 1293
SWIDTH 560 0
DWIDTH 8 0
BBX 7 8 0 0
BITMAP
3C
7E
60
EE
EE
66
7E
3C
ENDCHAR
STARTCHAR uni050E
ENCODING 1294
SWIDTH 693 0
DWIDTH 10 0
BBX 9 10 0 0
BITMAP
FF00
FE00
1800
1800
1980
1980
1980
1980
1F80
0F00
ENDCHAR
STARTCHAR uni050F
ENCODING 1295
SWIDTH 653 0
DWIDTH 9 0
BBX 9 8 0 0
BITMAP
FE00
FC00
3000
3380
3380
3380
3F00
1E00
ENDCHAR
STARTCHAR uni0510
ENCODING 1296
SWIDTH 541 0
DWIDTH 8 0
BBX 8 10 0 0
BITMAP
3C
7E
60
7C
38
60
E0
E2
7F
3C
ENDCHAR
STARTCHAR uni0511
ENCODING 1297
SWIDTH 480 0
DWIDTH 7 0
BBX 7 8 0 0
BITMAP
3C
7C
60
38
78
E0
7C
3E
ENDCHAR
STARTCHAR uni0512
ENCODING 1298
SWIDTH 655 0
DWIDTH 9 0
BBX 8 13 0 -3
BITMAP
3F
3F
33
33
73
73
63
63
E3
C3
03
0F
1E
ENDCHAR
STARTCHAR uni0513
ENCODING 1299
SWIDTH 570 0
DWIDTH 8 0
BBX 7 11 0 -3
BITMAP
3E
7E
66
66
66
66
E6
46
06
1E
3C
ENDCHAR
STARTCHAR uni0514
ENCODING 1300
SWIDTH 853 0
DWIDTH 12 0
BBX 12 10 0 0
BITMAP
3E70
3E60
37C0
33C0
3380
73C0
63C0
66E0
E660
CC70
ENDCHAR
STARTCHAR uni0515
ENCODING 1301
SWIDTH 743 0
DWIDTH 10 0
BBX 11 8 0 0
BITMAP
3CC0
7D80
6780
6700
6780
6780
EDC0
5CE0
ENDCHAR
STARTCHAR uni0516
ENCODING 1302
SWIDTH 813 0
DWIDTH 11 0
BBX 10 10 1 0
BITMAP
F8C0
FDC0
CF80
C780
CF00
FF00
FB80
C180
C1C0
C0C0
ENDCHAR
STARTCHAR uni0517
ENCODING 1303
SWIDTH 842 0
DWIDTH 12 0
BBX 11 11 1 -3
BITMAP
FCE0
FCC0
CF80
C780
C780
CF80
FCC0
F8E0
C000
C000
C000
ENDCHAR
STARTCHAR uni0518
ENCODING 1304
SWIDTH 830 0
DWIDTH 12 0
BBX 11 10 0 0
BITMAP
3FE0
7FE0
E700
E700
67C0
7FC0
3F00
7700
67E0
E7E0
ENDCHAR
STARTCHAR uni0519
ENCODING 1305
SWIDTH 843 0
DWIDTH 12 0
BBX 11 8 0 0
BITMAP
3FC0
7FE0
6660
7FE0
3FE0
7600
67E0
E3E0
ENDCHAR
STARTCHAR uni051A
ENCODING 1306
SWIDTH 690 0
DWIDTH 10 0
BBX 10 12 0 -2
BITMAP
1E00
7F00
6380
6180
E180
E180
6180
6380
7F00
1F80
01C0
0080
ENDCHAR
STARTCHAR uni051B
ENCODING 1307
SWIDTH 600 0
DWIDTH 8 0
BBX 7 11 1 -3
BITMAP
76
FE
CE
CE
CE
CE
FE
7E
0E
0E
0E
ENDCHAR
STARTCHAR uni051C
ENCODING 1308
SWIDTH 847 0
DWIDTH 12 0
BBX 12 10 0 0
BITMAP
C670
EE60
6F60
6F60
6F60
6B60
6960
6960
79C0
39C0
ENDCHAR
STARTCHAR uni051D
ENCODING 1309
SWIDTH 749 0
DWIDTH 10 0
BBX 10 8 0 0
BITMAP
CCC0
CEC0
6EC0
6EC0
7AC0
7A80
7B80
3380
ENDCHAR
STARTCHAR uni051E
ENCODING 1310
SWIDTH 623 0
DWIDTH 9 0
BBX 8 10 1 0
BITMAP
C7
DE
CE
CF
F8
FC
CC
CE
C6
C7
ENDCHAR
STARTCHAR uni051F
ENCODING 1311
SWIDTH 548 0
DWIDTH 8 0
BBX 7 8 1 0
BITMAP
CE
FC
DE
FC
F8
D8
CC
CE
ENDCHAR
STARTCHAR uni0520
ENCODING 1312
SWIDTH 988 0
DWIDTH 14 0
BBX 13 13 0 -3
BITMAP
3F00
3F00
3300
3370
33F8
7318
6318
6318
E318
C318
0018
0078
0070
ENDCHAR
STARTCHAR uni0521
ENCODING 1313
SWIDTH 840 0
DWIDTH 12 0
BBX 11 11 0 -3
BITMAP
3E00
7E00
6600
66E0
67E0
6660
E660
4660
0060
01E0
01C0
ENDCHAR
STARTCHAR uni0522
ENCODING 1314
SWIDTH 997 0
DWIDTH 14 0
BBX 13 13 1 -3
BITMAP
C600
C600
C600
C6E0
FFF0
FE38
C638
C638
C638
C638
0038
00F0
00F0
ENDCHAR
STARTCHAR uni0523
ENCODING 1315
SWIDTH 856 0
DWIDTH 12 0
BBX 11 11 1 -3
BITMAP
CC00
CC00
CC00
FDC0
FFC0
CCE0
CCE0
CCE0
00E0
03C0
03C0
ENDCHAR
STARTCHAR uni0524
ENCODING 1316
SWIDTH 693 0
DWIDTH 10 0
BBX 9 12 1 -2
BITMAP
FE00
FE00
C600
C600
C600
C600
C600
C600
C780
C780
0180
0180
ENDCHAR
STARTCHAR uni0525
ENCODING 1317
SWIDTH 600 0
DWIDTH 8 0
BBX 7 10 1 -2
BITMAP
FC
FC
CC
CC
CC
CC
CE
CE
02
02
ENDCHAR
STARTCHAR uni0526
ENCODING 1318
SWIDTH 695 0
DWIDTH 10 0
BBX 9 12 1 -2
BITMAP
C000
C000
C000
DC00
FE00
C600
C600
C600
C780
C780
0180
0180
ENDCHAR
STARTCHAR uni0527
ENCODING 1319
SWIDTH 598 0
DWIDTH 8 0
BBX 7 13 1 -2
BITMAP
C0
C0
C0
C0
DC
FC
CC
CC
CC
CE
CE
02
02
ENDCHAR
STARTCHAR uni0528
ENCODING 1320
SWIDTH 666 0
DWIDTH 9 0
BBX 10 13 -2 -3
BITMAP
18C0
18C0
18C0
18C0
1FC0
1FC0
18C0
18C0
18C0
18C0
1800
7800
F000
ENDCHAR
STARTCHAR uni0529
ENCODING 1321
SWIDTH 586 0
DWIDTH 8 0
BBX 9 11 -2 -3
BITMAP
1980
1980
1980
1F80
1F80
1980
1980
1980
1800
7800
F000
ENDCHAR
STARTCHAR uni052A
ENCODING 1322
SWIDTH 1051 0
DWIDTH 15 0
BBX 15 12 0 -2
BITMAP
3ECE
3ECC
36D8
36D8
77F0
67F8
66D8
66DC
FFCC
FFCE
C300
8300
ENDCHAR
STARTCHAR uni052B
ENCODING 1323
SWIDTH 914 0
DWIDTH 13 0
BBX 13 10 0 -2
BITMAP
3DB8
7DB0
6DB0
6FE0
6FE0
6DB0
FFB0
FFB8
C600
C600
ENDCHAR
STARTCHAR uni052C
ENCODING 1324
SWIDTH 701 0
DWIDTH 10 0
BBX 10 12 0 -2
BITMAP
DF80
DF80
F980
7980
7F80
1F80
3180
3180
FFC0
FFC0
C0C0
C0C0
ENDCHAR
STARTCHAR uni052D
ENCODING 1325
SWIDTH 642 0
DWIDTH 9 0
BBX 9 10 0 -2
BITMAP
DF00
DF00
7B00
7F00
3F00
3300
7F80
7F80
4180
4180
ENDCHAR
STARTCHAR uni052E
ENCODING 1326
SWIDTH 685 0
DWIDTH 10 0
BBX 9 12 0 -2
BITMAP
3F00
3F00
3300
3300
7300
7300
6300
6300
E380
C380
0080
0080
ENDCHAR
STARTCHAR uni052F
ENCODING 1327
SWIDTH 588 0
DWIDTH 8 0
BBX 8 10 0 -2
BITMAP
3E
7E
66
66
66
66
E7
47
03
01
ENDCHAR
STARTCHAR uni0E3F
ENCODING 3647
SWIDTH 601 0
DWIDTH 8 0
BBX 7 14 1 -2
BITMAP
30
30
F8
FC
CE
CC
F8
FE
C6
C6
FE
FC
30
30
ENDCHAR
STARTCHAR uni1D4A
ENCODING 7498
SWIDTH 330 0
DWIDTH 5 0
BBX 4 4 0 6
BITMAP
70
F0
50
70
ENDCHAR
STARTCHAR uni1D6C
ENCODING 7532
SWIDTH 679 0
DWIDTH 10 0
BBX 9 11 0 0
BITMAP
3000
7400
B800
3700
3F80
3180
3180
3180
3180
3F80
3700
ENDCHAR
STARTCHAR uni1D6D
ENCODING 7533
SWIDTH 682 0
DWIDTH 10 0
BBX 9 11 0 0
BITMAP
0600
0E80
1F80
3E00
7E00
6600
E600
E600
6600
7E00
3E00
ENDCHAR
STARTCHAR uni1D6E
ENCODING 7534
SWIDTH 421 0
DWIDTH 6 0
BBX 7 11 0 0
BITMAP
1E
3E
30
7C
7C
30
7E
FC
30
30
30
ENDCHAR
STARTCHAR uni1D6F
ENCODING 7535
SWIDTH 987 0
DWIDTH 14 0
BBX 14 8 0 0
BITMAP
36E0
3FF0
3330
7330
FFFC
B3F8
3330
3330
ENDCHAR
STARTCHAR uni1D70
ENCODING 7536
SWIDTH 718 0
DWIDTH 10 0
BBX 10 8 0 0
BITMAP
3700
3F00
3300
7300
FFC0
B780
3300
3300
ENDCHAR
STARTCHAR uni1D71
ENCODING 7537
SWIDTH 597 0
DWIDTH 8 0
BBX 9 11 -1 -3
BITMAP
3F00
3F00
3380
3180
3180
3380
3F00
3E00
7400
BC00
3000
ENDCHAR
STARTCHAR uni1D72
ENCODING 7538
SWIDTH 503 0
DWIDTH 7 0
BBX 7 8 0 0
BITMAP
36
3E
38
7C
FE
7C
38
38
ENDCHAR
STARTCHAR uni1D73
ENCODING 7539
SWIDTH 505 0
DWIDTH 7 0
BBX 7 8 0 0
BITMAP
1E
1E
38
7C
FE
78
38
38
ENDCHAR
STARTCHAR uni1D74
ENCODING 7540
SWIDTH 483 0
DWIDTH 7 0
BBX 7 8 0 0
BITMAP
3C
7C
E0
7E
FC
0E
FC
78
ENDCHAR
STARTCHAR uni1D75
ENCODING 7541
SWIDTH 460 0
DWIDTH 6 0
BBX 7 10 0 0
BITMAP
30
30
7C
7C
74
FE
BC
30
3C
1E
ENDCHAR
STARTCHAR uni1D76
ENCODING 7542
SWIDTH 496 0
DWIDTH 7 0
BBX 7 8 0 0
BITMAP
7C
7C
0C
7C
FE
7C
7E
7C
ENDCHAR
STARTCHAR uni1D91
ENCODING 7569
SWIDTH 615 0
DWIDTH 9 0
BBX 9 14 1 -3
BITMAP
0780
0700
0E00
7E00
FE00
CE00
CE00
CE00
CE00
FE00
7E00
0E00
0780
0780
ENDCHAR
STARTCHAR uni1DBF
ENCODING 7615
SWIDTH 333 0
DWIDTH 5 0
BBX 4 5 0 6
BITMAP
70
50
F0
50
70
ENDCHAR
STARTCHAR uni1DC4
ENCODING 7620
SWIDTH 0 0
DWIDTH 0 0
BBX 6 3 -6 9
BITMAP
08
FC
F0
ENDCHAR
STARTCHAR uni1DC5
ENCODING 7621
SWIDTH 0 0
DWIDTH 0 0
BBX 6 3 -6 9
BITMAP
C0
FC
3C
ENDCHAR
STARTCHAR uni1DC6
ENCODING 7622
SWIDTH 0 0
DWIDTH 0 0
BBX 6 3 -6 9
BITMAP
F0
F8
1C
ENDCHAR
STARTCHAR uni1DC7
ENCODING 7623
SWIDTH 0 0
DWIDTH 0 0
BBX 6 3 -6 9
BITMAP
3C
7C
C0
ENDCHAR
STARTCHAR uni1DC8
ENCODING 7624
SWIDTH 0 0
DWIDTH 0 0
BBX 7 3 -7 9
BITMAP
48
FE
20
ENDCHAR
STARTCHAR uni1DC9
ENCODING 7625
SWIDTH 0 0
DWIDTH 0 0
BBX 7 3 -7 9
BITMAP
24
FE
08
ENDCHAR
STARTCHAR uni1E02
ENCODING 7682
SWIDTH 617 0
DWIDTH 9 0
BBX 7 14 1 0
BITMAP
30
30
30
00
FC
FE
CE
CE
FC
FE
C6
C6
FE
FC
ENDCHAR
STARTCHAR uni1E03
ENCODING 7683
SWIDTH 597 0
DWIDTH 8 0
BBX 7 15 1 0
BITMAP
10
38
30
00
C0
C0
C0
DC
FC
CE
C6
C6
CE
FC
F8
ENDCHAR
STARTCHAR uni1E04
ENCODING 7684
SWIDTH 617 0
DWIDTH 9 0
BBX 7 13 1 -3
BITMAP
FC
FE
CE
CE
FC
FE
C6
C6
FE
FC
30
38
30
ENDCHAR
STARTCHAR uni1E05
ENCODING 7685
SWIDTH 597 0
DWIDTH 8 0
BBX 7 14 1 -3
BITMAP
C0
C0
C0
DC
FC
CE
C6
C6
CE
FC
F8
30
38
30
ENDCHAR
STARTCHAR uni1E0A
ENCODING 7690
SWIDTH 651 0
DWIDTH 9 0
BBX 8 14 1 0
BITMAP
30
30
30
00
F8
FE
C6
C7
C7
C7
C7
C6
FE
F8
ENDCHAR
STARTCHAR uni1E0B
ENCODING 7691
SWIDTH 600 0
DWIDTH 8 0
BBX 7 15 1 0
BITMAP
30
30
30
00
0E
0E
0E
7E
FE
CE
CE
CE
CE
FE
76
ENDCHAR
STARTCHAR uni1E0C
ENCODING 7692
SWIDTH 651 0
DWIDTH 9 0
BBX 8 13 1 -3
BITMAP
F8
FE
C6
C7
C7
C7
C7
C6
FE
F8
30
38
30
ENDCHAR
STARTCHAR uni1E0D
ENCODING 7693
SWIDTH 600 0
DWIDTH 8 0
BBX 7 14 1 -3
BITMAP
0E
0E
0E
7E
FE
CE
CE
CE
CE
FE
76
30
38
30
ENDCHAR
STARTCHAR uni1E0E
ENCODING 7694
SWIDTH 651 0
DWIDTH 9 0
BBX 8 13 1 -3
BITMAP
F8
FE
C6
C7
C7
C7
C7
C6
FE
F8
00
78
78
ENDCHAR
STARTCHAR uni1E0F
ENCODING 7695
SWIDTH 600 0
DWIDTH 8 0
BBX 7 14 1 -3
BITMAP
0E
0E
0E
7E
FE
CE
CE
CE
CE
FE
76
00
78
78
ENDCHAR
STARTCHAR uni1E12
ENCODING 7698
SWIDTH 651 0
DWIDTH 9 0
BBX 8 14 1 -4
BITMAP
F8
FE
C6
C7
C7
C7
C7
C6
FE
F8
00
30
78
4C
ENDCHAR
STARTCHAR uni1E13
ENCODING 7699
SWIDTH 600 0
DWIDTH 8 0
BBX 7 15 1 -4
BITMAP
0E
0E
0E
7E
FE
CE
CE
CE
CE
FE
76
00
30
78
44
ENDCHAR
STARTCHAR uni1E1E
ENCODING 7710
SWIDTH 487 0
DWIDTH 7 0
BBX 6 14 1 0
BITMAP
30
30
30
00
FC
F8
C0
C0
F8
F8
C0
C0
C0
C0
ENDCHAR
STARTCHAR uni1E1F
ENCODING 7711
SWIDTH 356 0
DWIDTH 5 0
BBX 6 15 0 0
BITMAP
18
38
18
00
3C
7C
60
F8
F8
60
60
60
60
60
60
ENDCHAR
STARTCHAR uni1E24
ENCODING 7716
SWIDTH 666 0
DWIDTH 9 0
BBX 7 13 1 -3
BITMAP
C6
C6
C6
C6
FE
FE
C6
C6
C6
C6
18
38
18
ENDCHAR
STARTCHAR uni1E25
ENCODING 7717
SWIDTH 577 0
DWIDTH 8 0
BBX 6 14 1 -3
BITMAP
C0
C0
C0
DC
FC
CC
CC
CC
CC
CC
CC
30
30
30
ENDCHAR
STARTCHAR uni1E2E
ENCODING 7726
SWIDTH 293 0
DWIDTH 4 0
BBX 6 16 -1 0
BITMAP
08
18
30
CC
CC
00
30
30
30
30
30
30
30
30
30
30
ENDCHAR
STARTCHAR uni1E2F
ENCODING 7727
SWIDTH 282 0
DWIDTH 4 0
BBX 6 14 -1 0
BITMAP
08
18
30
CC
CC
00
30
30
30
30
30
30
30
30
ENDCHAR
STARTCHAR uni1E36
ENCODING 7734
SWIDTH 513 0
DWIDTH 7 0
BBX 6 13 1 -3
BITMAP
C0
C0
C0
C0
C0
C0
C0
C0
FC
FC
30
30
30
ENDCHAR
STARTCHAR uni1E37
ENCODING 7735
SWIDTH 297 0
DWIDTH 4 0
BBX 3 14 1 -3
BITMAP
C0
C0
C0
C0
C0
C0
C0
C0
C0
E0
E0
40
E0
60
ENDCHAR
STARTCHAR uni1E3C
ENCODING 7740
SWIDTH 513 0
DWIDTH 7 0
BBX 6 14 1 -4
BITMAP
C0
C0
C0
C0
C0
C0
C0
C0
FC
FC
00
30
78
C8
ENDCHAR
STARTCHAR uni1E3D
ENCODING 7741
SWIDTH 297 0
DWIDTH 4 0
BBX 5 15 0 -4
BITMAP
60
60
60
60
60
60
60
60
60
70
70
00
70
F8
88
ENDCHAR
STARTCHAR uni1E3E
ENCODING 7742
SWIDTH 786 0
DWIDTH 11 0
BBX 11 14 0 0
BITMAP
0600
0E00
0800
0000
71C0
71C0
7BC0
7BC0
7BC0
6AC0
6AC0
6EC0
6EC0
E0E0
ENDCHAR
STARTCHAR uni1E3F
ENCODING 7743
SWIDTH 845 0
DWIDTH 12 0
BBX 10 12 1 0
BITMAP
0400
1E00
1000
0000
D980
FFC0
CCC0
CCC0
CCC0
CCC0
CCC0
CCC0
ENDCHAR
STARTCHAR uni1E40
ENCODING 7744
SWIDTH 786 0
DWIDTH 11 0
BBX 11 14 0 0
BITMAP
0400
0E00
0E00
0000
71C0
71C0
7BC0
7BC0
7BC0
6AC0
6AC0
6EC0
6EC0
E0E0
ENDCHAR
STARTCHAR uni1E41
ENCODING 7745
SWIDTH 845 0
DWIDTH 12 0
BBX 10 12 1 0
BITMAP
0C00
0C00
0C00
0000
D980
FFC0
CCC0
CCC0
CCC0
CCC0
CCC0
CCC0
ENDCHAR
STARTCHAR uni1E44
ENCODING 7748
SWIDTH 663 0
DWIDTH 9 0
BBX 7 14 1 0
BITMAP
18
38
18
00
E6
E6
F6
F6
F6
DE
DE
CE
CE
CE
ENDCHAR
STARTCHAR uni1E45
ENCODING 7749
SWIDTH 577 0
DWIDTH 8 0
BBX 6 12 1 0
BITMAP
30
30
30
00
DC
FC
CC
CC
CC
CC
CC
CC
ENDCHAR
STARTCHAR uni1E46
ENCODING 7750
SWIDTH 663 0
DWIDTH 9 0
BBX 7 13 1 -3
BITMAP
E6
E6
F6
F6
F6
DE
DE
CE
CE
CE
18
38
18
ENDCHAR
STARTCHAR uni1E47
ENCODING 7751
SWIDTH 577 0
DWIDTH 8 0
BBX 6 11 1 -3
BITMAP
DC
FC
CC
CC
CC
CC
CC
CC
30
30
30
ENDCHAR
STARTCHAR uni1E4A
ENCODING 7754
SWIDTH 663 0
DWIDTH 9 0
BBX 7 14 1 -4
BITMAP
E6
E6
F6
F6
F6
DE
DE
CE
CE
CE
00
38
3C
44
ENDCHAR
STARTCHAR uni1E4B
ENCODING 7755
SWIDTH 577 0
DWIDTH 8 0
BBX 6 12 1 -4
BITMAP
DC
FC
CC
CC
CC
CC
CC
CC
00
30
78
CC
ENDCHAR
STARTCHAR uni1E4C
ENCODING 7756
SWIDTH 691 0
DWIDTH 10 0
BBX 9 16 0 0
BITMAP
0400
1E00
1000
1E00
3E00
0000
1E00
7F00
6380
6180
E180
E180
6180
6380
7F00
1E00
ENDCHAR
STARTCHAR uni1E4D
ENCODING 7757
SWIDTH 584 0
DWIDTH 8 0
BBX 8 14 0 0
BITMAP
0C
3C
10
00
3E
7C
3C
7E
67
E7
E7
67
7E
3C
ENDCHAR
STARTCHAR uni1E50
ENCODING 7760
SWIDTH 691 0
DWIDTH 10 0
BBX 9 16 0 0
BITMAP
1800
0E00
0000
1E00
1E00
0000
1E00
7F00
6380
6180
E180
E180
6180
6380
7F00
1E00
ENDCHAR
STARTCHAR uni1E51
ENCODING 7761
SWIDTH 584 0
DWIDTH 8 0
BBX 8 14 0 0
BITMAP
10
3C
04
3C
3C
00
3C
7E
67
E7
E7
67
7E
3C
ENDCHAR
STARTCHAR uni1E52
ENCODING 7762
SWIDTH 691 0
DWIDTH 10 0
BBX 9 16 0 0
BITMAP
0400
1E00
1000
1E00
1E00
0000
1E00
7F00
6380
6180
E180
E180
6180
6380
7F00
1E00
ENDCHAR
STARTCHAR uni1E53
ENCODING 7763
SWIDTH 584 0
DWIDTH 8 0
BBX 8 14 0 0
BITMAP
0C
3C
10
3C
3C
00
3C
7E
67
E7
E7
67
7E
3C
ENDCHAR
STARTCHAR uni1E54
ENCODING 7764
SWIDTH 600 0
DWIDTH 8 0
BBX 7 14 1 0
BITMAP
18
78
20
00
FC
FE
C6
C6
CE
FC
F8
C0
C0
C0
ENDCHAR
STARTCHAR uni1E55
ENCODING 7765
SWIDTH 597 0
DWIDTH 8 0
BBX 7 15 1 -3
BITMAP
18
78
20
00
FC
FC
CE
C6
C6
CE
FC
F8
C0
C0
C0
ENDCHAR
STARTCHAR uni1E56
ENCODING 7766
SWIDTH 600 0
DWIDTH 8 0
BBX 7 14 1 0
BITMAP
30
38
30
00
FC
FE
C6
C6
CE
FC
F8
C0
C0
C0
ENDCHAR
STARTCHAR uni1E57
ENCODING 7767
SWIDTH 597 0
DWIDTH 8 0
BBX 7 15 1 -3
BITMAP
30
30
30
00
FC
FC
CE
C6
C6
CE
FC
F8
C0
C0
C0
ENDCHAR
STARTCHAR uni1E5A
ENCODING 7770
SWIDTH 617 0
DWIDTH 9 0
BBX 8 13 1 -3
BITMAP
FC
FE
C6
C6
FE
F8
DC
CC
CE
C7
30
38
30
ENDCHAR
STARTCHAR uni1E5B
ENCODING 7771
SWIDTH 401 0
DWIDTH 6 0
BBX 5 11 1 -3
BITMAP
D8
F0
C0
C0
C0
C0
C0
C0
C0
C0
C0
ENDCHAR
STARTCHAR uni1E60
ENCODING 7776
SWIDTH 572 0
DWIDTH 8 0
BBX 8 14 0 0
BITMAP
18
18
18
00
3C
7E
62
70
7C
1E
07
47
FE
7C
ENDCHAR
STARTCHAR uni1E61
ENCODING 7777
SWIDTH 483 0
DWIDTH 7 0
BBX 7 12 0 0
BITMAP
10
38
30
00
7C
7C
E0
78
3C
0E
FC
78
ENDCHAR
STARTCHAR uni1E62
ENCODING 7778
SWIDTH 572 0
DWIDTH 8 0
BBX 8 13 0 -3
BITMAP
3C
7E
62
70
7C
1E
07
47
FE
7C
18
18
18
ENDCHAR
STARTCHAR uni1E63
ENCODING 7779
SWIDTH 483 0
DWIDTH 7 0
BBX 7 11 0 -3
BITMAP
7C
7C
E0
78
3C
0E
FC
78
10
38
30
ENDCHAR
STARTCHAR uni1E6A
ENCODING 7786
SWIDTH 540 0
DWIDTH 8 0
BBX 8 14 0 0
BITMAP
18
38
18
00
FF
FE
18
18
18
18
18
18
18
18
ENDCHAR
STARTCHAR uni1E6B
ENCODING 7787
SWIDTH 386 0
DWIDTH 5 0
BBX 6 13 0 0
BITMAP
60
60
60
60
60
F8
F8
60
60
60
60
78
3C
ENDCHAR
STARTCHAR uni1E6C
ENCODING 7788
SWIDTH 540 0
DWIDTH 8 0
BBX 8 13 0 -3
BITMAP
FF
FE
18
18
18
18
18
18
18
18
18
38
18
ENDCHAR
STARTCHAR uni1E6D
ENCODING 7789
SWIDTH 386 0
DWIDTH 5 0
BBX 6 13 0 -3
BITMAP
60
60
F8
F8
60
60
60
60
78
3C
30
38
30
ENDCHAR
STARTCHAR uni1E6E
ENCODING 7790
SWIDTH 540 0
DWIDTH 8 0
BBX 8 13 0 -3
BITMAP
FF
FE
18
18
18
18
18
18
18
18
00
3C
3C
ENDCHAR
STARTCHAR uni1E6F
ENCODING 7791
SWIDTH 386 0
DWIDTH 5 0
BBX 6 13 0 -3
BITMAP
60
60
F8
F8
60
60
60
60
78
3C
00
78
78
ENDCHAR
STARTCHAR uni1E70
ENCODING 7792
SWIDTH 540 0
DWIDTH 8 0
BBX 8 14 0 -4
BITMAP
FF
FE
18
18
18
18
18
18
18
18
00
18
3C
64
ENDCHAR
STARTCHAR uni1E71
ENCODING 7793
SWIDTH 386 0
DWIDTH 5 0
BBX 6 14 0 -4
BITMAP
60
60
F8
F8
60
60
60
60
78
3C
00
30
78
4C
ENDCHAR
STARTCHAR uni1E78
ENCODING 7800
SWIDTH 651 0
DWIDTH 9 0
BBX 7 16 1 0
BITMAP
08
3C
20
3C
78
00
C6
C6
C6
C6
C6
C6
C6
C6
FE
7C
ENDCHAR
STARTCHAR uni1E79
ENCODING 7801
SWIDTH 572 0
DWIDTH 8 0
BBX 6 14 1 0
BITMAP
10
78
60
00
7C
F8
CC
CC
CC
CC
CC
CC
FC
FC
ENDCHAR
STARTCHAR Wgrave
ENCODING 7808
SWIDTH 847 0
DWIDTH 12 0
BBX 12 14 0 0
BITMAP
0C00
0F00
0200
0000
C670
EE60
6F60
6F60
6F60
6B60
6960
6960
79C0
39C0
ENDCHAR
STARTCHAR wgrave
ENCODING 7809
SWIDTH 749 0
DWIDTH 10 0
BBX 10 12 0 0
BITMAP
0C00
1E00
0200
0000
CCC0
CEC0
6EC0
6EC0
7AC0
7A80
7B80
3380
ENDCHAR
STARTCHAR Wacute
ENCODING 7810
SWIDTH 847 0
DWIDTH 12 0
BBX 12 14 0 0
BITMAP
0200
0F00
0800
0000
C670
EE60
6F60
6F60
6F60
6B60
6960
6960
79C0
39C0
ENDCHAR
STARTCHAR wacute
ENCODING 7811
SWIDTH 749 0
DWIDTH 10 0
BBX 10 12 0 0
BITMAP
0600
1E00
0800
0000
CCC0
CEC0
6EC0
6EC0
7AC0
7A80
7B80
3380
ENDCHAR
STARTCHAR Wdieresis
ENCODING 7812
SWIDTH 847 0
DWIDTH 12 0
BBX 12 13 0 0
BITMAP
1B80
1980
0000
C670
EE60
6F60
6F60
6F60
6B60
6960
6960
79C0
39C0
ENDCHAR
STARTCHAR wdieresis
ENCODING 7813
SWIDTH 749 0
DWIDTH 10 0
BBX 10 11 0 0
BITMAP
3B00
1B00
0000
CCC0
CEC0
6EC0
6EC0
7AC0
7A80
7B80
3380
ENDCHAR
STARTCHAR uni1E92
ENCODING 7826
SWIDTH 544 0
DWIDTH 8 0
BBX 7 13 0 -3
BITMAP
7E
7E
0E
1C
18
38
70
60
FE
FE
18
38
18
ENDCHAR
STARTCHAR uni1E93
ENCODING 7827
SWIDTH 459 0
DWIDTH 6 0
BBX 6 11 0 -3
BITMAP
FC
FC
18
38
30
60
FC
FC
30
30
30
ENDCHAR
STARTCHAR uni1E9E
ENCODING 7838
SWIDTH 669 0
DWIDTH 9 0
BBX 8 10 1 0
BITMAP
7C
FE
C6
CC
DC
DF
C3
C3
DF
DE
ENDCHAR
STARTCHAR uni1EA0
ENCODING 7840
SWIDTH 590 0
DWIDTH 8 0
BBX 8 13 0 -3
BITMAP
1C
3C
3C
36
66
66
7E
7F
E3
C3
18
18
18
ENDCHAR
STARTCHAR uni1EA1
ENCODING 7841
SWIDTH 548 0
DWIDTH 8 0
BBX 7 11 0 -3
BITMAP
7C
7E
06
3E
7E
E6
7E
76
18
38
18
ENDCHAR
STARTCHAR uni1EA2
ENCODING 7842
SWIDTH 590 0
DWIDTH 8 0
BBX 8 14 0 0
BITMAP
1C
1C
18
00
1C
3C
3C
36
66
66
7E
7F
E3
C3
ENDCHAR
STARTCHAR uni1EA3
ENCODING 7843
SWIDTH 548 0
DWIDTH 8 0
BBX 7 13 0 0
BITMAP
38
0C
18
10
00
7C
7E
06
3E
7E
E6
7E
76
ENDCHAR
STARTCHAR uni1EA4
ENCODING 7844
SWIDTH 590 0
DWIDTH 8 0
BBX 9 16 0 0
BITMAP
0180
0300
1A00
7E00
2400
0000
1C00
3C00
3C00
3600
6600
6600
7E00
7F00
E300
C300
ENDCHAR
STARTCHAR uni1EA5
ENCODING 7845
SWIDTH 548 0
DWIDTH 8 0
BBX 8 14 0 0
BITMAP
03
03
1E
3C
44
00
7C
7E
06
3E
7E
E6
7E
76
ENDCHAR
STARTCHAR uni1EA6
ENCODING 7846
SWIDTH 590 0
DWIDTH 8 0
BBX 8 16 0 0
BITMAP
80
C0
78
7E
24
00
1C
3C
3C
36
66
66
7E
7F
E3
C3
ENDCHAR
STARTCHAR uni1EA7
ENCODING 7847
SWIDTH 548 0
DWIDTH 8 0
BBX 8 14 -1 0
BITMAP
C0
60
2C
1E
22
00
3E
3F
03
1F
3F
73
3F
3B
ENDCHAR
STARTCHAR uni1EA8
ENCODING 7848
SWIDTH 590 0
DWIDTH 8 0
BBX 8 15 0 0
BITMAP
07
1B
7E
24
00
1C
3C
3C
36
66
66
7E
7F
E3
C3
ENDCHAR
STARTCHAR uni1EA9
ENCODING 7849
SWIDTH 548 0
DWIDTH 8 0
BBX 8 15 0 0
BITMAP
0E
03
07
1E
3C
44
00
7C
7E
06
3E
7E
E6
7E
76
ENDCHAR
STARTCHAR uni1EAA
ENCODING 7850
SWIDTH 590 0
DWIDTH 8 0
BBX 8 16 0 0
BITMAP
36
7C
18
7E
24
00
1C
3C
3C
36
66
66
7E
7F
E3
C3
ENDCHAR
STARTCHAR uni1EAB
ENCODING 7851
SWIDTH 548 0
DWIDTH 8 0
BBX 7 14 0 0
BITMAP
34
7C
18
3C
44
00
7C
7E
06
3E
7E
E6
7E
76
ENDCHAR
STARTCHAR uni1EAC
ENCODING 7852
SWIDTH 590 0
DWIDTH 8 0
BBX 8 17 0 -3
BITMAP
18
7E
24
00
1C
3C
3C
36
66
66
7E
7F
E3
C3
18
18
18
ENDCHAR
STARTCHAR uni1EAD
ENCODING 7853
SWIDTH 548 0
DWIDTH 8 0
BBX 7 15 0 -3
BITMAP
18
3C
64
00
7C
7E
06
3E
7E
E6
7E
76
18
38
18
ENDCHAR
STARTCHAR uni1EAE
ENCODING 7854
SWIDTH 590 0
DWIDTH 8 0
BBX 8 16 0 0
BITMAP
04
0C
3E
3C
1C
00
1C
3C
3C
36
66
66
7E
7F
E3
C3
ENDCHAR
STARTCHAR uni1EAF
ENCODING 7855
SWIDTH 548 0
DWIDTH 8 0
BBX 7 14 0 0
BITMAP
0C
08
74
3C
38
00
7C
7E
06
3E
7E
E6
7E
76
ENDCHAR
STARTCHAR uni1EB0
ENCODING 7856
SWIDTH 590 0
DWIDTH 8 0
BBX 8 16 0 0
BITMAP
30
30
2E
3C
1C
00
1C
3C
3C
36
66
66
7E
7F
E3
C3
ENDCHAR
STARTCHAR uni1EB1
ENCODING 7857
SWIDTH 548 0
DWIDTH 8 0
BBX 7 14 0 0
BITMAP
20
30
7C
3C
38
00
7C
7E
06
3E
7E
E6
7E
76
ENDCHAR
STARTCHAR uni1EB2
ENCODING 7858
SWIDTH 590 0
DWIDTH 8 0
BBX 8 16 0 0
BITMAP
1C
1C
3E
3C
1C
00
1C
3C
3C
36
66
66
7E
7F
E3
C3
ENDCHAR
STARTCHAR uni1EB3
ENCODING 7859
SWIDTH 548 0
DWIDTH 8 0
BBX 7 15 0 0
BITMAP
38
0C
18
74
3C
38
00
7C
7E
06
3E
7E
E6
7E
76
ENDCHAR
STARTCHAR uni1EB4
ENCODING 7860
SWIDTH 590 0
DWIDTH 8 0
BBX 8 16 0 0
BITMAP
14
3E
26
3C
1C
00
1C
3C
3C
36
66
66
7E
7F
E3
C3
ENDCHAR
STARTCHAR uni1EB5
ENCODING 7861
SWIDTH 548 0
DWIDTH 8 0
BBX 7 14 0 0
BITMAP
34
7C
64
3C
38
00
7C
7E
06
3E
7E
E6
7E
76
ENDCHAR
STARTCHAR uni1EB6
ENCODING 7862
SWIDTH 590 0
DWIDTH 8 0
BBX 8 17 0 -3
BITMAP
26
3C
1C
00
1C
3C
3C
36
66
66
7E
7F
E3
C3
18
18
18
ENDCHAR
STARTCHAR uni1EB7
ENCODING 7863
SWIDTH 548 0
DWIDTH 8 0
BBX 7 15 0 -3
BITMAP
64
3C
38
00
7C
7E
06
3E
7E
E6
7E
76
18
38
18
ENDCHAR
STARTCHAR uni1EB8
ENCODING 7864
SWIDTH 526 0
DWIDTH 7 0
BBX 6 13 1 -3
BITMAP
FC
FC
C0
C0
F8
F8
C0
C0
FC
FC
30
30
30
ENDCHAR
STARTCHAR uni1EB9
ENCODING 7865
SWIDTH 552 0
DWIDTH 8 0
BBX 7 11 0 -3
BITMAP
3C
7E
66
FE
FE
60
7E
3C
18
18
18
ENDCHAR
STARTCHAR uni1EBA
ENCODING 7866
SWIDTH 526 0
DWIDTH 7 0
BBX 6 14 1 0
BITMAP
70
38
30
00
FC
FC
C0
C0
F8
F8
C0
C0
FC
FC
ENDCHAR
STARTCHAR uni1EBB
ENCODING 7867
SWIDTH 552 0
DWIDTH 8 0
BBX 7 13 0 0
BITMAP
18
0C
1C
18
00
3C
7E
66
FE
FE
60
7E
3C
ENDCHAR
STARTCHAR uni1EBC
ENCODING 7868
SWIDTH 526 0
DWIDTH 7 0
BBX 6 13 1 0
BITMAP
7C
F8
00
FC
FC
C0
C0
F8
F8
C0
C0
FC
FC
ENDCHAR
STARTCHAR uni1EBD
ENCODING 7869
SWIDTH 552 0
DWIDTH 8 0
BBX 7 11 0 0
BITMAP
3E
7C
00
3C
7E
66
FE
FE
60
7E
3C
ENDCHAR
STARTCHAR uni1EBE
ENCODING 7870
SWIDTH 526 0
DWIDTH 7 0
BBX 7 16 1 0
BITMAP
02
06
3C
FC
48
00
FC
FC
C0
C0
F8
F8
C0
C0
FC
FC
ENDCHAR
STARTCHAR uni1EBF
ENCODING 7871
SWIDTH 552 0
DWIDTH 8 0
BBX 8 14 0 0
BITMAP
01
03
1E
7E
24
00
3C
7E
66
FE
FE
60
7E
3C
ENDCHAR
STARTCHAR uni1EC0
ENCODING 7872
SWIDTH 526 0
DWIDTH 7 0
BBX 8 16 -1 0
BITMAP
C0
60
2C
3F
12
00
3F
3F
30
30
3E
3E
30
30
3F
3F
ENDCHAR
STARTCHAR uni1EC1
ENCODING 7873
SWIDTH 552 0
DWIDTH 8 0
BBX 8 14 -1 0
BITMAP
C0
60
3C
3F
12
00
1E
3F
33
7F
7F
30
3F
1E
ENDCHAR
STARTCHAR uni1EC2
ENCODING 7874
SWIDTH 526 0
DWIDTH 7 0
BBX 7 15 1 0
BITMAP
0E
36
FC
48
00
FC
FC
C0
C0
F8
F8
C0
C0
FC
FC
ENDCHAR
STARTCHAR uni1EC3
ENCODING 7875
SWIDTH 552 0
DWIDTH 8 0
BBX 8 15 0 0
BITMAP
06
03
07
1E
7E
24
00
3C
7E
66
FE
FE
60
7E
3C
ENDCHAR
STARTCHAR uni1EC4
ENCODING 7876
SWIDTH 526 0
DWIDTH 7 0
BBX 6 16 1 0
BITMAP
6C
F8
30
FC
48
00
FC
FC
C0
C0
F8
F8
C0
C0
FC
FC
ENDCHAR
STARTCHAR uni1EC5
ENCODING 7877
SWIDTH 552 0
DWIDTH 8 0
BBX 7 14 0 0
BITMAP
36
7C
18
7E
24
00
3C
7E
66
FE
FE
60
7E
3C
ENDCHAR
STARTCHAR uni1EC6
ENCODING 7878
SWIDTH 526 0
DWIDTH 7 0
BBX 6 17 1 -3
BITMAP
30
FC
48
00
FC
FC
C0
C0
F8
F8
C0
C0
FC
FC
30
30
30
ENDCHAR
STARTCHAR uni1EC7
ENCODING 7879
SWIDTH 552 0
DWIDTH 8 0
BBX 7 15 0 -3
BITMAP
18
3C
66
00
3C
7E
66
FE
FE
60
7E
3C
18
18
18
ENDCHAR
STARTCHAR uni1EC8
ENCODING 7880
SWIDTH 293 0
DWIDTH 4 0
BBX 3 14 1 0
BITMAP
E0
E0
C0
00
C0
C0
C0
C0
C0
C0
C0
C0
C0
C0
ENDCHAR
STARTCHAR uni1EC9
ENCODING 7881
SWIDTH 282 0
DWIDTH 4 0
BBX 3 13 1 0
BITMAP
C0
60
E0
C0
00
C0
C0
C0
C0
C0
C0
C0
C0
ENDCHAR
STARTCHAR uni1ECA
ENCODING 7882
SWIDTH 293 0
DWIDTH 4 0
BBX 2 13 1 -3
BITMAP
C0
C0
C0
C0
C0
C0
C0
C0
C0
C0
C0
C0
C0
ENDCHAR
STARTCHAR uni1ECB
ENCODING 7883
SWIDTH 282 0
DWIDTH 4 0
BBX 2 15 1 -3
BITMAP
C0
C0
C0
00
C0
C0
C0
C0
C0
C0
C0
C0
C0
C0
C0
ENDCHAR
STARTCHAR uni1ECC
ENCODING 7884
SWIDTH 691 0
DWIDTH 10 0
BBX 9 13 0 -3
BITMAP
1E00
7F00
6380
6180
E180
E180
6180
6380
7F00
1E00
0C00
0C00
0C00
ENDCHAR
STARTCHAR uni1ECD
ENCODING 7885
SWIDTH 584 0
DWIDTH 8 0
BBX 8 11 0 -3
BITMAP
3C
7E
67
E7
E7
67
7E
3C
18
18
18
ENDCHAR
STARTCHAR uni1ECE
ENCODING 7886
SWIDTH 691 0
DWIDTH 10 0
BBX 9 14 0 0
BITMAP
1C00
0E00
0800
0000
1E00
7F00
6380
6180
E180
E180
6180
6380
7F00
1E00
ENDCHAR
STARTCHAR uni1ECF
ENCODING 7887
SWIDTH 584 0
DWIDTH 8 0
BBX 8 13 0 0
BITMAP
1C
0C
1C
18
00
3C
7E
67
E7
E7
67
7E
3C
ENDCHAR
STARTCHAR uni1ED0
ENCODING 7888
SWIDTH 691 0
DWIDTH 10 0
BBX 9 16 0 0
BITMAP
0080
0180
0F00
3E00
1200
0000
1E00
7F00
6380
6180
E180
E180
6180
6380
7F00
1E00
ENDCHAR
STARTCHAR uni1ED1
ENCODING 7889
SWIDTH 584 0
DWIDTH 8 0
BBX 9 14 0 0
BITMAP
0180
0300
1E00
7E00
2400
0000
3C00
7E00
6700
E700
E700
6700
7E00
3C00
ENDCHAR
STARTCHAR uni1ED2
ENCODING 7890
SWIDTH 691 0
DWIDTH 10 0
BBX 9 16 0 0
BITMAP
C000
6000
2C00
3E00
1200
0000
1E00
7F00
6380
6180
E180
E180
6180
6380
7F00
1E00
ENDCHAR
STARTCHAR uni1ED3
ENCODING 7891
SWIDTH 584 0
DWIDTH 8 0
BBX 8 14 0 0
BITMAP
80
C0
78
7E
24
00
3C
7E
67
E7
E7
67
7E
3C
ENDCHAR
STARTCHAR uni1ED4
ENCODING 7892
SWIDTH 691 0
DWIDTH 10 0
BBX 9 15 0 0
BITMAP
0380
0D80
3F00
1200
0000
1E00
7F00
6380
6180
E180
E180
6180
6380
7F00
1E00
ENDCHAR
STARTCHAR uni1ED5
ENCODING 7893
SWIDTH 584 0
DWIDTH 8 0
BBX 8 15 0 0
BITMAP
07
01
03
1A
7E
24
00
3C
7E
67
E7
E7
67
7E
3C
ENDCHAR
STARTCHAR uni1ED6
ENCODING 7894
SWIDTH 691 0
DWIDTH 10 0
BBX 9 16 0 0
BITMAP
1A00
3E00
0C00
3E00
1200
0000
1E00
7F00
6380
6180
E180
E180
6180
6380
7F00
1E00
ENDCHAR
STARTCHAR uni1ED7
ENCODING 7895
SWIDTH 584 0
DWIDTH 8 0
BBX 8 14 0 0
BITMAP
36
7C
18
7E
24
00
3C
7E
67
E7
E7
67
7E
3C
ENDCHAR
STARTCHAR uni1ED8
ENCODING 7896
SWIDTH 691 0
DWIDTH 10 0
BBX 9 17 0 -3
BITMAP
0C00
3E00
1200
0000
1E00
7F00
6380
6180
E180
E180
6180
6380
7F00
1E00
0C00
0C00
0C00
ENDCHAR
STARTCHAR uni1ED9
ENCODING 7897
SWIDTH 584 0
DWIDTH 8 0
BBX 8 15 0 -3
BITMAP
18
3C
66
00
3C
7E
67
E7
E7
67
7E
3C
18
18
18
ENDCHAR
STARTCHAR uni1EDA
ENCODING 7898
SWIDTH 715 0
DWIDTH 10 0
BBX 10 14 0 0
BITMAP
0400
0E00
1C00
00C0
1EC0
7FC0
6380
6180
E180
E180
6180
6380
7F00
1E00
ENDCHAR
STARTCHAR uni1EDB
ENCODING 7899
SWIDTH 625 0
DWIDTH 9 0
BBX 9 12 0 0
BITMAP
0800
3C00
3000
0180
3D80
7F80
6700
E700
E700
6700
7E00
3C00
ENDCHAR
STARTCHAR uni1EDC
ENCODING 7900
SWIDTH 715 0
DWIDTH 10 0
BBX 10 14 0 0
BITMAP
1000
1800
0E00
00C0
1EC0
7FC0
6380
6180
E180
E180
6180
6380
7F00
1E00
ENDCHAR
STARTCHAR uni1EDD
ENCODING 7901
SWIDTH 625 0
DWIDTH 9 0
BBX 9 12 0 0
BITMAP
1000
3C00
0400
0180
3D80
7F80
6700
E700
E700
6700
7E00
3C00
ENDCHAR
STARTCHAR uni1EDE
ENCODING 7902
SWIDTH 715 0
DWIDTH 10 0
BBX 10 15 0 0
BITMAP
1C00
0600
0C00
0800
00C0
1EC0
7FC0
6380
6180
E180
E180
6180
6380
7F00
1E00
ENDCHAR
STARTCHAR uni1EDF
ENCODING 7903
SWIDTH 625 0
DWIDTH 9 0
BBX 9 13 0 0
BITMAP
1800
0C00
0C00
1800
1800
3D80
7F80
6700
E700
E700
6700
7E00
3C00
ENDCHAR
STARTCHAR uni1EE0
ENCODING 7904
SWIDTH 715 0
DWIDTH 10 0
BBX 10 14 0 0
BITMAP
1A00
3E00
1440
00C0
1EC0
7FC0
6380
6180
E180
E180
6180
6380
7F00
1E00
ENDCHAR
STARTCHAR uni1EE1
ENCODING 7905
SWIDTH 625 0
DWIDTH 9 0
BBX 9 12 0 0
BITMAP
1400
3E00
6C00
0180
3D80
7F80
6700
E700
E700
6700
7E00
3C00
ENDCHAR
STARTCHAR uni1EE2
ENCODING 7906
SWIDTH 715 0
DWIDTH 10 0
BBX 10 14 0 -3
BITMAP
00C0
1EC0
7FC0
6380
6180
E180
E180
6180
6380
7F00
1E00
0C00
0C00
0C00
ENDCHAR
STARTCHAR uni1EE3
ENCODING 7907
SWIDTH 625 0
DWIDTH 9 0
BBX 9 12 0 -3
BITMAP
0180
3D80
7F80
6700
E700
E700
6700
7E00
3C00
1800
1800
1800
ENDCHAR
STARTCHAR uni1EE4
ENCODING 7908
SWIDTH 651 0
DWIDTH 9 0
BBX 7 13 1 -3
BITMAP
C6
C6
C6
C6
C6
C6
C6
C6
FE
7C
10
38
18
ENDCHAR
STARTCHAR uni1EE5
ENCODING 7909
SWIDTH 572 0
DWIDTH 8 0
BBX 6 11 1 -3
BITMAP
CC
CC
CC
CC
CC
CC
FC
FC
30
30
30
ENDCHAR
STARTCHAR uni1EE6
ENCODING 7910
SWIDTH 651 0
DWIDTH 9 0
BBX 7 14 1 0
BITMAP
38
18
10
00
C6
C6
C6
C6
C6
C6
C6
C6
FE
7C
ENDCHAR
STARTCHAR uni1EE7
ENCODING 7911
SWIDTH 572 0
DWIDTH 8 0
BBX 6 13 1 0
BITMAP
30
18
38
30
00
CC
CC
CC
CC
CC
CC
FC
FC
ENDCHAR
STARTCHAR uni1EE8
ENCODING 7912
SWIDTH 725 0
DWIDTH 10 0
BBX 9 14 1 0
BITMAP
0800
3C00
3000
0080
C680
C780
C600
C600
C600
C600
C600
C600
FE00
7C00
ENDCHAR
STARTCHAR uni1EE9
ENCODING 7913
SWIDTH 643 0
DWIDTH 9 0
BBX 8 12 1 0
BITMAP
10
78
40
01
CD
CF
CC
CC
CC
CC
FC
FC
ENDCHAR
STARTCHAR uni1EEA
ENCODING 7914
SWIDTH 725 0
DWIDTH 10 0
BBX 9 14 1 0
BITMAP
2000
3800
1800
0080
C680
C780
C600
C600
C600
C600
C600
C600
FE00
7C00
ENDCHAR
STARTCHAR uni1EEB
ENCODING 7915
SWIDTH 643 0
DWIDTH 9 0
BBX 8 12 1 0
BITMAP
20
78
08
01
CD
CF
CC
CC
CC
CC
FC
FC
ENDCHAR
STARTCHAR uni1EEC
ENCODING 7916
SWIDTH 725 0
DWIDTH 10 0
BBX 9 15 1 0
BITMAP
3800
0800
1800
1000
0080
C680
C780
C600
C600
C600
C600
C600
C600
FE00
7C00
ENDCHAR
STARTCHAR uni1EED
ENCODING 7917
SWIDTH 643 0
DWIDTH 9 0
BBX 8 13 1 0
BITMAP
30
18
18
30
30
CD
CF
CC
CC
CC
CC
FC
FC
ENDCHAR
STARTCHAR uni1EEE
ENCODING 7918
SWIDTH 725 0
DWIDTH 10 0
BBX 9 14 1 0
BITMAP
2400
7C00
4880
0080
C680
C780
C600
C600
C600
C600
C600
C600
FE00
7C00
ENDCHAR
STARTCHAR uni1EEF
ENCODING 7919
SWIDTH 643 0
DWIDTH 9 0
BBX 8 12 1 0
BITMAP
68
FC
50
01
CD
CF
CC
CC
CC
CC
FC
FC
ENDCHAR
STARTCHAR uni1EF0
ENCODING 7920
SWIDTH 725 0
DWIDTH 10 0
BBX 9 14 1 -3
BITMAP
0080
C680
C780
C600
C600
C600
C600
C600
C600
FE00
7C00
1000
3800
1800
ENDCHAR
STARTCHAR uni1EF1
ENCODING 7921
SWIDTH 643 0
DWIDTH 9 0
BBX 8 12 1 -3
BITMAP
01
CD
CF
CC
CC
CC
CC
FC
FC
30
30
30
ENDCHAR
STARTCHAR Ygrave
ENCODING 7922
SWIDTH 594 0
DWIDTH 8 0
BBX 8 14 0 0
BITMAP
10
3C
04
00
E3
67
66
36
3C
1C
18
18
18
18
ENDCHAR
STARTCHAR ygrave
ENCODING 7923
SWIDTH 518 0
DWIDTH 7 0
BBX 7 15 0 -3
BITMAP
30
3C
08
00
C6
E6
6E
6C
6C
6C
38
38
18
70
60
ENDCHAR
STARTCHAR uni1EF4
ENCODING 7924
SWIDTH 594 0
DWIDTH 8 0
BBX 8 13 0 -3
BITMAP
E3
67
66
36
3C
1C
18
18
18
18
18
18
18
ENDCHAR
STARTCHAR uni1EF5
ENCODING 7925
SWIDTH 518 0
DWIDTH 7 0
BBX 7 11 0 -3
BITMAP
C6
E6
6E
6C
6C
6C
38
38
1E
76
66
ENDCHAR
STARTCHAR uni1EF6
ENCODING 7926
SWIDTH 594 0
DWIDTH 8 0
BBX 8 14 0 0
BITMAP
1C
1C
18
00
E3
67
66
36
3C
1C
18
18
18
18
ENDCHAR
STARTCHAR uni1EF7
ENCODING 7927
SWIDTH 518 0
DWIDTH 7 0
BBX 7 16 0 -3
BITMAP
38
08
18
10
00
C6
E6
6E
6C
6C
6C
38
38
18
70
60
ENDCHAR
STARTCHAR uni1EF8
ENCODING 7928
SWIDTH 594 0
DWIDTH 8 0
BBX 8 13 0 0
BITMAP
3E
3C
00
E3
67
66
36
3C
1C
18
18
18
18
ENDCHAR
STARTCHAR uni1EF9
ENCODING 7929
SWIDTH 518 0
DWIDTH 7 0
BBX 7 14 0 -3
BITMAP
3C
7C
00
C6
E6
6E
6C
6C
6C
38
38
18
70
60
ENDCHAR
STARTCHAR uni1F00
ENCODING 7936
SWIDTH 599 0
DWIDTH 8 0
BBX 8 12 0 0
BITMAP
18
18
08
18
3B
7E
66
E6
E6
66
7B
3B
ENDCHAR
STARTCHAR uni1F01
ENCODING 7937
SWIDTH 599 0
DWIDTH 8 0
BBX 8 12 0 0
BITMAP
10
38
10
10
3B
7E
66
E6
E6
66
7B
3B
ENDCHAR
STARTCHAR uni1F02
ENCODING 7938
SWIDTH 599 0
DWIDTH 8 0
BBX 8 12 0 0
BITMAP
2C
7C
2C
24
3B
7E
66
E6
E6
66
7B
3B
ENDCHAR
STARTCHAR uni1F03
ENCODING 7939
SWIDTH 599 0
DWIDTH 8 0
BBX 8 12 0 0
BITMAP
68
6C
2C
24
3B
7E
66
E6
E6
66
7B
3B
ENDCHAR
STARTCHAR uni1F04
ENCODING 7940
SWIDTH 599 0
DWIDTH 8 0
BBX 8 12 0 0
BITMAP
36
34
3C
2C
3B
7E
66
E6
E6
66
7B
3B
ENDCHAR
STARTCHAR uni1F05
ENCODING 7941
SWIDTH 599 0
DWIDTH 8 0
BBX 8 12 0 0
BITMAP
34
3C
2C
38
3B
7E
66
E6
E6
66
7B
3B
ENDCHAR
STARTCHAR uni1F06
ENCODING 7942
SWIDTH 599 0
DWIDTH 8 0
BBX 8 14 0 0
BITMAP
14
3E
6C
18
18
18
3B
7E
66
E6
E6
66
7B
3B
ENDCHAR
STARTCHAR uni1F07
ENCODING 7943
SWIDTH 599 0
DWIDTH 8 0
BBX 8 14 0 0
BITMAP
34
3E
6C
18
18
18
3B
7E
66
E6
E6
66
7B
3B
ENDCHAR
STARTCHAR uni1F08
ENCODING 7944
SWIDTH 722 0
DWIDTH 10 0
BBX 9 10 1 0
BITMAP
DE00
DE00
DE00
9E00
3300
3300
3F00
7F80
6180
6180
ENDCHAR
STARTCHAR uni1F09
ENCODING 7945
SWIDTH 730 0
DWIDTH 10 0
BBX 9 10 1 0
BITMAP
CE00
DE00
DE00
5F00
3300
3300
3F00
7F80
6180
6180
ENDCHAR
STARTCHAR uni1F0A
ENCODING 7946
SWIDTH 920 0
DWIDTH 13 0
BBX 12 10 1 0
BITMAP
F380
D3C0
DBC0
9EC0
06C0
0660
0FE0
0FE0
0C70
1C30
ENDCHAR
STARTCHAR uni1F0B
ENCODING 7947
SWIDTH 909 0
DWIDTH 13 0
BBX 12 10 1 0
BITMAP
F380
D380
DEC0
5EC0
06C0
06E0
0FE0
0FE0
0C60
1C70
ENDCHAR
STARTCHAR uni1F0C
ENCODING 7948
SWIDTH 900 0
DWIDTH 13 0
BBX 12 10 1 0
BITMAP
DB80
D380
D6C0
B6C0
06C0
0EC0
0FE0
0FE0
0C60
1C70
ENDCHAR
STARTCHAR uni1F0D
ENCODING 7949
SWIDTH 901 0
DWIDTH 13 0
BBX 12 10 1 0
BITMAP
D380
DB80
D6C0
76C0
06C0
0EC0
0FE0
0FE0
0C60
1C70
ENDCHAR
STARTCHAR uni1F0E
ENCODING 7950
SWIDTH 879 0
DWIDTH 12 0
BBX 12 10 1 0
BITMAP
7B80
F780
2780
76C0
2CC0
0CC0
0FC0
0FE0
1C60
1870
ENDCHAR
STARTCHAR uni1F0F
ENCODING 7951
SWIDTH 879 0
DWIDTH 12 0
BBX 12 10 1 0
BITMAP
7B80
F780
2780
76C0
2CC0
0CC0
0FC0
0FE0
1C60
1870
ENDCHAR
STARTCHAR uni1F10
ENCODING 7952
SWIDTH 480 0
DWIDTH 7 0
BBX 7 12 0 0
BITMAP
18
18
18
10
3C
7C
60
38
78
E0
7C
3E
ENDCHAR
STARTCHAR uni1F11
ENCODING 7953
SWIDTH 480 0
DWIDTH 7 0
BBX 7 12 0 0
BITMAP
30
30
30
10
3C
7C
60
38
78
E0
7C
3E
ENDCHAR
STARTCHAR uni1F12
ENCODING 7954
SWIDTH 480 0
DWIDTH 7 0
BBX 7 12 0 0
BITMAP
68
6C
2C
64
3C
7C
60
38
78
E0
7C
3E
ENDCHAR
STARTCHAR uni1F13
ENCODING 7955
SWIDTH 480 0
DWIDTH 7 0
BBX 7 12 0 0
BITMAP
78
68
6C
2C
3C
7C
60
38
78
E0
7C
3E
ENDCHAR
STARTCHAR uni1F14
ENCODING 7956
SWIDTH 480 0
DWIDTH 7 0
BBX 7 12 0 0
BITMAP
34
3C
2C
28
3C
7C
60
38
78
E0
7C
3E
ENDCHAR
STARTCHAR uni1F15
ENCODING 7957
SWIDTH 480 0
DWIDTH 7 0
BBX 7 12 0 0
BITMAP
6C
6C
2C
28
3C
7C
60
38
78
E0
7C
3E
ENDCHAR
STARTCHAR uni1F18
ENCODING 7960
SWIDTH 729 0
DWIDTH 10 0
BBX 9 10 1 0
BITMAP
DF80
DF00
D800
9800
1F00
1F00
1800
1800
1F80
1F80
ENDCHAR
STARTCHAR uni1F19
ENCODING 7961
SWIDTH 733 0
DWIDTH 10 0
BBX 9 10 1 0
BITMAP
DF80
DF80
D800
5800
1F00
1F00
1800
1800
1F80
1F80
ENDCHAR
STARTCHAR uni1F1A
ENCODING 7962
SWIDTH 920 0
DWIDTH 13 0
BBX 11 10 1 0
BITMAP
F7E0
D7E0
DF00
9F00
07E0
07E0
0700
0700
07E0
07E0
ENDCHAR
STARTCHAR uni1F1B
ENCODING 7963
SWIDTH 920 0
DWIDTH 13 0
BBX 11 10 1 0
BITMAP
F7E0
DFE0
DF00
5F00
07E0
07E0
0700
0700
07E0
07E0
ENDCHAR
STARTCHAR uni1F1C
ENCODING 7964
SWIDTH 908 0
DWIDTH 13 0
BBX 11 10 1 0
BITMAP
D7E0
DFE0
D700
B700
07E0
07E0
0700
0700
07E0
07E0
ENDCHAR
STARTCHAR uni1F1D
ENCODING 7965
SWIDTH 914 0
DWIDTH 13 0
BBX 11 10 1 0
BITMAP
DFE0
DFE0
D700
7700
07E0
07E0
0700
0700
07E0
07E0
ENDCHAR
STARTCHAR uni1F20
ENCODING 7968
SWIDTH 580 0
DWIDTH 8 0
BBX 6 15 1 -3
BITMAP
10
38
10
10
FC
FC
CC
CC
CC
CC
CC
CC
0C
0C
0C
ENDCHAR
STARTCHAR uni1F21
ENCODING 7969
SWIDTH 580 0
DWIDTH 8 0
BBX 6 15 1 -3
BITMAP
20
70
20
20
DC
FC
CC
CC
CC
CC
CC
CC
0C
0C
0C
ENDCHAR
STARTCHAR uni1F22
ENCODING 7970
SWIDTH 580 0
DWIDTH 8 0
BBX 6 15 1 -3
BITMAP
78
78
48
48
DC
FC
CC
CC
CC
CC
CC
CC
0C
0C
0C
ENDCHAR
STARTCHAR uni1F23
ENCODING 7971
SWIDTH 580 0
DWIDTH 8 0
BBX 6 15 1 -3
BITMAP
58
F8
58
48
DC
FC
CC
CC
CC
CC
CC
CC
0C
0C
0C
ENDCHAR
STARTCHAR uni1F24
ENCODING 7972
SWIDTH 580 0
DWIDTH 8 0
BBX 6 15 1 -3
BITMAP
6C
6C
68
58
DC
FC
CC
CC
CC
CC
CC
CC
0C
0C
0C
ENDCHAR
STARTCHAR uni1F25
ENCODING 7973
SWIDTH 580 0
DWIDTH 8 0
BBX 6 15 1 -3
BITMAP
6C
68
58
78
DC
FC
CC
CC
CC
CC
CC
CC
0C
0C
0C
ENDCHAR
STARTCHAR uni1F26
ENCODING 7974
SWIDTH 580 0
DWIDTH 8 0
BBX 6 17 1 -3
BITMAP
28
7C
58
30
30
10
FC
FC
CC
CC
CC
CC
CC
CC
0C
0C
0C
ENDCHAR
STARTCHAR uni1F27
ENCODING 7975
SWIDTH 580 0
DWIDTH 8 0
BBX 6 17 1 -3
BITMAP
28
7C
D8
30
30
30
DC
FC
CC
CC
CC
CC
CC
CC
0C
0C
0C
ENDCHAR
STARTCHAR uni1F28
ENCODING 7976
SWIDTH 869 0
DWIDTH 12 0
BBX 10 10 1 0
BITMAP
D8C0
D8C0
D8C0
98C0
1FC0
1FC0
18C0
18C0
18C0
18C0
ENDCHAR
STARTCHAR uni1F29
ENCODING 7977
SWIDTH 873 0
DWIDTH 12 0
BBX 10 10 1 0
BITMAP
D8C0
D8C0
D8C0
58C0
1FC0
1FC0
18C0
18C0
18C0
18C0
ENDCHAR
STARTCHAR uni1F2A
ENCODING 7978
SWIDTH 1060 0
DWIDTH 15 0
BBX 13 10 1 0
BITMAP
F718
D718
DF18
9F18
07F8
07F8
0718
0718
0718
0718
ENDCHAR
STARTCHAR uni1F2B
ENCODING 7979
SWIDTH 1060 0
DWIDTH 15 0
BBX 13 10 1 0
BITMAP
F718
DF18
DF18
5F18
07F8
07F8
0718
0718
0718
0718
ENDCHAR
STARTCHAR uni1F2C
ENCODING 7980
SWIDTH 1048 0
DWIDTH 15 0
BBX 13 10 1 0
BITMAP
D738
DF38
D738
B738
07F8
07F8
0738
0738
0738
0738
ENDCHAR
STARTCHAR uni1F2D
ENCODING 7981
SWIDTH 1054 0
DWIDTH 15 0
BBX 13 10 1 0
BITMAP
DF18
DF18
D718
7718
07F8
07F8
0718
0718
0718
0718
ENDCHAR
STARTCHAR uni1F2E
ENCODING 7982
SWIDTH 1064 0
DWIDTH 15 0
BBX 13 10 1 0
BITMAP
7F18
FF18
3718
3718
27F8
07F8
0718
0718
0718
0718
ENDCHAR
STARTCHAR uni1F2F
ENCODING 7983
SWIDTH 1064 0
DWIDTH 15 0
BBX 13 10 1 0
BITMAP
7F18
FF18
3718
3718
27F8
07F8
0718
0718
0718
0718
ENDCHAR
STARTCHAR uni1F30
ENCODING 7984
SWIDTH 282 0
DWIDTH 4 0
BBX 3 12 1 0
BITMAP
C0
C0
40
C0
C0
C0
C0
C0
C0
C0
E0
40
ENDCHAR
STARTCHAR uni1F31
ENCODING 7985
SWIDTH 282 0
DWIDTH 4 0
BBX 4 12 0 0
BITMAP
40
E0
40
40
60
60
60
60
60
60
70
20
ENDCHAR
STARTCHAR uni1F32
ENCODING 7986
SWIDTH 282 0
DWIDTH 4 0
BBX 5 12 -1 0
BITMAP
58
F8
58
48
30
30
30
30
30
30
38
10
ENDCHAR
STARTCHAR uni1F33
ENCODING 7987
SWIDTH 282 0
DWIDTH 4 0
BBX 5 12 -1 0
BITMAP
D0
D8
58
48
30
30
30
30
30
30
38
10
ENDCHAR
STARTCHAR uni1F34
ENCODING 7988
SWIDTH 282 0
DWIDTH 4 0
BBX 5 12 0 0
BITMAP
D8
D0
F0
B0
60
60
60
60
60
60
70
20
ENDCHAR
STARTCHAR uni1F35
ENCODING 7989
SWIDTH 282 0
DWIDTH 4 0
BBX 4 12 0 0
BITMAP
D0
F0
B0
E0
60
60
60
60
60
60
70
20
ENDCHAR
STARTCHAR uni1F36
ENCODING 7990
SWIDTH 282 0
DWIDTH 4 0
BBX 6 14 -1 0
BITMAP
28
7C
D8
30
30
30
30
30
30
30
30
30
38
10
ENDCHAR
STARTCHAR uni1F37
ENCODING 7991
SWIDTH 282 0
DWIDTH 4 0
BBX 6 14 -1 0
BITMAP
68
FC
58
30
30
30
30
30
30
30
30
30
38
10
ENDCHAR
STARTCHAR uni1F38
ENCODING 7992
SWIDTH 496 0
DWIDTH 7 0
BBX 5 10 1 0
BITMAP
D8
D8
D8
98
18
18
18
18
18
18
ENDCHAR
STARTCHAR uni1F39
ENCODING 7993
SWIDTH 501 0
DWIDTH 7 0
BBX 5 10 1 0
BITMAP
D8
D8
D8
58
18
18
18
18
18
18
ENDCHAR
STARTCHAR uni1F3A
ENCODING 7994
SWIDTH 687 0
DWIDTH 10 0
BBX 8 10 1 0
BITMAP
F7
D7
DF
9F
07
07
07
07
07
07
ENDCHAR
STARTCHAR uni1F3B
ENCODING 7995
SWIDTH 687 0
DWIDTH 10 0
BBX 8 10 1 0
BITMAP
F7
DF
DF
5F
07
07
07
07
07
07
ENDCHAR
STARTCHAR uni1F3C
ENCODING 7996
SWIDTH 675 0
DWIDTH 9 0
BBX 8 10 1 0
BITMAP
D7
DF
D7
B7
07
07
07
07
07
07
ENDCHAR
STARTCHAR uni1F3D
ENCODING 7997
SWIDTH 681 0
DWIDTH 10 0
BBX 8 10 1 0
BITMAP
DF
DF
D7
77
07
07
07
07
07
07
ENDCHAR
STARTCHAR uni1F3E
ENCODING 7998
SWIDTH 691 0
DWIDTH 10 0
BBX 8 10 1 0
BITMAP
7F
FF
37
37
27
07
07
07
07
07
ENDCHAR
STARTCHAR uni1F3F
ENCODING 7999
SWIDTH 691 0
DWIDTH 10 0
BBX 8 10 1 0
BITMAP
7F
FF
37
37
27
07
07
07
07
07
ENDCHAR
STARTCHAR uni1F40
ENCODING 8000
SWIDTH 584 0
DWIDTH 8 0
BBX 8 12 0 0
BITMAP
08
1C
08
08
3C
7E
67
E7
E7
67
7E
3C
ENDCHAR
STARTCHAR uni1F41
ENCODING 8001
SWIDTH 584 0
DWIDTH 8 0
BBX 8 12 0 0
BITMAP
18
38
10
18
3C
7E
67
E7
E7
67
7E
3C
ENDCHAR
STARTCHAR uni1F42
ENCODING 8002
SWIDTH 584 0
DWIDTH 8 0
BBX 8 12 0 0
BITMAP
3C
3C
24
24
3C
7E
67
E7
E7
67
7E
3C
ENDCHAR
STARTCHAR uni1F43
ENCODING 8003
SWIDTH 584 0
DWIDTH 8 0
BBX 8 12 0 0
BITMAP
2C
7C
2C
24
3C
7E
67
E7
E7
67
7E
3C
ENDCHAR
STARTCHAR uni1F44
ENCODING 8004
SWIDTH 584 0
DWIDTH 8 0
BBX 8 12 0 0
BITMAP
36
36
34
2C
3C
7E
67
E7
E7
67
7E
3C
ENDCHAR
STARTCHAR uni1F45
ENCODING 8005
SWIDTH 584 0
DWIDTH 8 0
BBX 8 12 0 0
BITMAP
36
34
3C
1C
3C
7E
67
E7
E7
67
7E
3C
ENDCHAR
STARTCHAR uni1F48
ENCODING 8008
SWIDTH 874 0
DWIDTH 12 0
BBX 11 10 1 0
BITMAP
CF80
DFC0
F8C0
B8E0
30E0
30E0
38E0
38C0
1FC0
0F80
ENDCHAR
STARTCHAR uni1F49
ENCODING 8009
SWIDTH 899 0
DWIDTH 13 0
BBX 11 10 1 0
BITMAP
C780
DFC0
D8E0
5860
3860
3860
1860
18E0
1FC0
0780
ENDCHAR
STARTCHAR uni1F4A
ENCODING 8010
SWIDTH 1092 0
DWIDTH 15 0
BBX 14 10 1 0
BITMAP
F1F0
D3F8
DB18
9F1C
061C
061C
071C
0318
03F8
01F0
ENDCHAR
STARTCHAR uni1F4B
ENCODING 8011
SWIDTH 1094 0
DWIDTH 15 0
BBX 14 10 1 0
BITMAP
F1F0
D3F8
DB18
5F1C
071C
071C
071C
0318
03F8
01F0
ENDCHAR
STARTCHAR uni1F4C
ENCODING 8012
SWIDTH 1023 0
DWIDTH 14 0
BBX 13 10 1 0
BITMAP
DBE0
D7F0
D630
BE38
0E38
0E38
0E38
0630
07F0
03E0
ENDCHAR
STARTCHAR uni1F4D
ENCODING 8013
SWIDTH 1029 0
DWIDTH 14 0
BBX 13 10 1 0
BITMAP
D3E0
DFF0
D638
7E38
0E18
0E18
0E38
0630
07F0
03E0
ENDCHAR
STARTCHAR uni1F50
ENCODING 8016
SWIDTH 565 0
DWIDTH 8 0
BBX 6 12 1 0
BITMAP
30
30
10
30
CC
CC
CC
CC
CC
CC
FC
78
ENDCHAR
STARTCHAR uni1F51
ENCODING 8017
SWIDTH 565 0
DWIDTH 8 0
BBX 6 12 1 0
BITMAP
20
70
20
20
CC
CC
CC
CC
CC
CC
FC
78
ENDCHAR
STARTCHAR uni1F52
ENCODING 8018
SWIDTH 565 0
DWIDTH 8 0
BBX 6 12 1 0
BITMAP
58
F8
58
48
CC
CC
CC
CC
CC
CC
FC
78
ENDCHAR
STARTCHAR uni1F53
ENCODING 8019
SWIDTH 565 0
DWIDTH 8 0
BBX 6 12 1 0
BITMAP
D0
D8
58
48
CC
CC
CC
CC
CC
CC
FC
78
ENDCHAR
STARTCHAR uni1F54
ENCODING 8020
SWIDTH 565 0
DWIDTH 8 0
BBX 6 12 1 0
BITMAP
6C
68
78
58
CC
CC
CC
CC
CC
CC
FC
78
ENDCHAR
STARTCHAR uni1F55
ENCODING 8021
SWIDTH 565 0
DWIDTH 8 0
BBX 6 12 1 0
BITMAP
68
78
58
70
CC
CC
CC
CC
CC
CC
FC
78
ENDCHAR
STARTCHAR uni1F56
ENCODING 8022
SWIDTH 565 0
DWIDTH 8 0
BBX 6 14 1 0
BITMAP
28
7C
D8
30
30
30
CC
CC
CC
CC
CC
CC
FC
78
ENDCHAR
STARTCHAR uni1F57
ENCODING 8023
SWIDTH 565 0
DWIDTH 8 0
BBX 6 14 1 0
BITMAP
68
7C
D8
30
30
30
CC
CC
CC
CC
CC
CC
FC
78
ENDCHAR
STARTCHAR uni1F59
ENCODING 8025
SWIDTH 855 0
DWIDTH 12 0
BBX 11 10 1 0
BITMAP
D8E0
DCC0
CCC0
4D80
0780
0700
0300
0300
0300
0300
ENDCHAR
STARTCHAR uni1F5B
ENCODING 8027
SWIDTH 1019 0
DWIDTH 14 0
BBX 13 10 1 0
BITMAP
F718
D338
DB30
59B0
01E0
00E0
00C0
00C0
00C0
00C0
ENDCHAR
STARTCHAR uni1F5D
ENCODING 8029
SWIDTH 1037 0
DWIDTH 15 0
BBX 14 10 1 0
BITMAP
D71C
DB18
D3B0
71B0
01E0
00E0
00E0
00E0
00E0
00E0
ENDCHAR
STARTCHAR uni1F5F
ENCODING 8031
SWIDTH 1051 0
DWIDTH 15 0
BBX 14 10 1 0
BITMAP
7F1C
FB18
31B8
31B0
20F0
00E0
00E0
00E0
00E0
00E0
ENDCHAR
STARTCHAR uni1F60
ENCODING 8032
SWIDTH 774 0
DWIDTH 11 0
BBX 9 12 1 0
BITMAP
0C00
0C00
0C00
0800
C380
C180
C980
D980
D980
D980
FF80
7700
ENDCHAR
STARTCHAR uni1F61
ENCODING 8033
SWIDTH 774 0
DWIDTH 11 0
BBX 9 12 1 0
BITMAP
1800
1800
1800
0800
C380
C180
C980
D980
D980
D980
FF80
7700
ENDCHAR
STARTCHAR uni1F62
ENCODING 8034
SWIDTH 774 0
DWIDTH 11 0
BBX 9 12 1 0
BITMAP
3C00
3400
3600
2600
C180
C180
C980
D980
D980
D980
FF80
7700
ENDCHAR
STARTCHAR uni1F63
ENCODING 8035
SWIDTH 774 0
DWIDTH 11 0
BBX 9 12 1 0
BITMAP
3C00
3C00
2400
3600
C180
C180
C980
D980
D980
D980
FF80
7700
ENDCHAR
STARTCHAR uni1F64
ENCODING 8036
SWIDTH 774 0
DWIDTH 11 0
BBX 9 12 1 0
BITMAP
1600
3E00
1600
3400
C380
C180
C980
D980
D980
D980
FF80
7700
ENDCHAR
STARTCHAR uni1F65
ENCODING 8037
SWIDTH 774 0
DWIDTH 11 0
BBX 9 12 1 0
BITMAP
3600
3600
3400
1C00
C380
C180
C980
D980
D980
D980
FF80
7700
ENDCHAR
STARTCHAR uni1F66
ENCODING 8038
SWIDTH 774 0
DWIDTH 11 0
BBX 9 14 1 0
BITMAP
1200
3E00
2C00
0800
1C00
0800
C380
C180
C980
D980
D980
D980
FF80
7700
ENDCHAR
STARTCHAR uni1F67
ENCODING 8039
SWIDTH 774 0
DWIDTH 11 0
BBX 9 14 1 0
BITMAP
1400
3E00
2C00
1800
1C00
0800
C380
C180
C980
D980
D980
D980
FF80
7700
ENDCHAR
STARTCHAR uni1F68
ENCODING 8040
SWIDTH 875 0
DWIDTH 12 0
BBX 11 10 1 0
BITMAP
CF80
DFC0
F8C0
B8E0
30E0
30E0
38C0
18C0
3DC0
3DC0
ENDCHAR
STARTCHAR uni1F69
ENCODING 8041
SWIDTH 906 0
DWIDTH 13 0
BBX 11 10 1 0
BITMAP
C780
DFC0
D8E0
5860
3860
1860
1860
18C0
1DE0
1DE0
ENDCHAR
STARTCHAR uni1F6A
ENCODING 8042
SWIDTH 1092 0
DWIDTH 15 0
BBX 14 10 1 0
BITMAP
F1F0
D3F8
DF18
9F1C
061C
071C
071C
0318
07BC
07BC
ENDCHAR
STARTCHAR uni1F6B
ENCODING 8043
SWIDTH 1082 0
DWIDTH 15 0
BBX 14 10 1 0
BITMAP
F1E0
D3F8
DF18
5E1C
061C
061C
0618
0318
07B8
07B8
ENDCHAR
STARTCHAR uni1F6C
ENCODING 8044
SWIDTH 1055 0
DWIDTH 15 0
BBX 13 10 1 0
BITMAP
D9E0
D3F0
F638
B618
0618
0618
0618
0630
0778
0778
ENDCHAR
STARTCHAR uni1F6D
ENCODING 8045
SWIDTH 1061 0
DWIDTH 15 0
BBX 13 10 1 0
BITMAP
D1E0
DBF0
D718
7618
0618
0618
0618
0218
0738
0738
ENDCHAR
STARTCHAR uni1F6E
ENCODING 8046
SWIDTH 1031 0
DWIDTH 14 0
BBX 13 10 1 0
BITMAP
7BE0
F7F0
2638
7E38
2E18
0E18
0638
0630
0778
0778
ENDCHAR
STARTCHAR uni1F6F
ENCODING 8047
SWIDTH 1027 0
DWIDTH 14 0
BBX 13 10 1 0
BITMAP
7BE0
F7F0
2638
7E38
2E38
0E38
0E38
0630
0F78
0F78
ENDCHAR
STARTCHAR uni1F70
ENCODING 8048
SWIDTH 599 0
DWIDTH 8 0
BBX 8 13 0 0
BITMAP
10
30
10
18
00
3B
7E
66
E6
E6
66
7B
3B
ENDCHAR
STARTCHAR uni1F71
ENCODING 8049
SWIDTH 599 0
DWIDTH 8 0
BBX 8 13 0 0
BITMAP
10
0C
18
18
00
3B
7E
66
E6
E6
66
7B
3B
ENDCHAR
STARTCHAR uni1F72
ENCODING 8050
SWIDTH 480 0
DWIDTH 7 0
BBX 7 13 0 0
BITMAP
10
30
30
10
00
3C
7C
60
38
78
E0
7C
3E
ENDCHAR
STARTCHAR uni1F73
ENCODING 8051
SWIDTH 480 0
DWIDTH 7 0
BBX 7 13 0 0
BITMAP
10
1C
18
18
00
3C
7C
60
38
78
E0
7C
3E
ENDCHAR
STARTCHAR uni1F74
ENCODING 8052
SWIDTH 580 0
DWIDTH 8 0
BBX 6 16 1 -3
BITMAP
10
60
30
30
00
DC
FC
CC
CC
CC
CC
CC
CC
0C
0C
0C
ENDCHAR
STARTCHAR uni1F75
ENCODING 8053
SWIDTH 580 0
DWIDTH 8 0
BBX 6 16 1 -3
BITMAP
10
18
10
30
00
DC
FC
CC
CC
CC
CC
CC
CC
0C
0C
0C
ENDCHAR
STARTCHAR uni1F76
ENCODING 8054
SWIDTH 282 0
DWIDTH 4 0
BBX 4 13 0 0
BITMAP
40
C0
40
60
00
60
60
60
60
60
60
70
20
ENDCHAR
STARTCHAR uni1F77
ENCODING 8055
SWIDTH 282 0
DWIDTH 4 0
BBX 3 13 1 0
BITMAP
80
60
C0
C0
00
C0
C0
C0
C0
C0
C0
E0
40
ENDCHAR
STARTCHAR uni1F78
ENCODING 8056
SWIDTH 584 0
DWIDTH 8 0
BBX 8 13 0 0
BITMAP
08
30
18
18
00
3C
7E
67
E7
E7
67
7E
3C
ENDCHAR
STARTCHAR uni1F79
ENCODING 8057
SWIDTH 584 0
DWIDTH 8 0
BBX 8 13 0 0
BITMAP
08
0C
08
18
00
3C
7E
67
E7
E7
67
7E
3C
ENDCHAR
STARTCHAR uni1F7A
ENCODING 8058
SWIDTH 565 0
DWIDTH 8 0
BBX 6 13 1 0
BITMAP
20
60
20
30
00
CC
CC
CC
CC
CC
CC
FC
78
ENDCHAR
STARTCHAR uni1F7B
ENCODING 8059
SWIDTH 565 0
DWIDTH 8 0
BBX 6 13 1 0
BITMAP
20
18
30
30
00
CC
CC
CC
CC
CC
CC
FC
78
ENDCHAR
STARTCHAR uni1F7C
ENCODING 8060
SWIDTH 774 0
DWIDTH 11 0
BBX 9 13 1 0
BITMAP
2800
1800
1800
1800
0000
C380
C180
C980
D980
D980
D980
FF80
7700
ENDCHAR
STARTCHAR uni1F7D
ENCODING 8061
SWIDTH 774 0
DWIDTH 11 0
BBX 9 13 1 0
BITMAP
0800
0C00
0C00
0800
0000
C380
C180
C980
D980
D980
D980
FF80
7700
ENDCHAR
STARTCHAR uni1F80
ENCODING 8064
SWIDTH 599 0
DWIDTH 8 0
BBX 8 15 0 -3
BITMAP
18
18
08
18
3B
7E
66
E6
E6
66
7B
3B
00
1C
1C
ENDCHAR
STARTCHAR uni1F81
ENCODING 8065
SWIDTH 599 0
DWIDTH 8 0
BBX 8 15 0 -3
BITMAP
10
38
10
10
3B
7E
66
E6
E6
66
7B
3B
00
1C
1C
ENDCHAR
STARTCHAR uni1F82
ENCODING 8066
SWIDTH 599 0
DWIDTH 8 0
BBX 8 15 0 -3
BITMAP
2C
7C
2C
24
3B
7E
66
E6
E6
66
7B
3B
00
1C
1C
ENDCHAR
STARTCHAR uni1F83
ENCODING 8067
SWIDTH 599 0
DWIDTH 8 0
BBX 8 15 0 -3
BITMAP
68
6C
2C
24
3B
7E
66
E6
E6
66
7B
3B
00
1C
1C
ENDCHAR
STARTCHAR uni1F84
ENCODING 8068
SWIDTH 599 0
DWIDTH 8 0
BBX 8 15 0 -3
BITMAP
36
34
3C
2C
3B
7E
66
E6
E6
66
7B
3B
00
1C
1C
ENDCHAR
STARTCHAR uni1F85
ENCODING 8069
SWIDTH 599 0
DWIDTH 8 0
BBX 8 15 0 -3
BITMAP
34
3C
2C
38
3B
7E
66
E6
E6
66
7B
3B
00
1C
1C
ENDCHAR
STARTCHAR uni1F86
ENCODING 8070
SWIDTH 599 0
DWIDTH 8 0
BBX 8 17 0 -3
BITMAP
14
3E
6C
18
18
18
3B
7E
66
E6
E6
66
7B
3B
00
1C
1C
ENDCHAR
STARTCHAR uni1F87
ENCODING 8071
SWIDTH 599 0
DWIDTH 8 0
BBX 8 17 0 -3
BITMAP
34
3E
6C
18
18
18
3B
7E
66
E6
E6
66
7B
3B
00
1C
1C
ENDCHAR
STARTCHAR uni1F88
ENCODING 8072
SWIDTH 722 0
DWIDTH 10 0
BBX 9 13 1 -3
BITMAP
DE00
DE00
DE00
9E00
3300
3300
3F00
7F80
6180
6180
0000
0E00
0700
ENDCHAR
STARTCHAR uni1F89
ENCODING 8073
SWIDTH 730 0
DWIDTH 10 0
BBX 9 13 1 -3
BITMAP
CE00
DE00
DE00
5F00
3300
3300
3F00
7F80
6180
6180
0000
0D00
0700
ENDCHAR
STARTCHAR uni1F8A
ENCODING 8074
SWIDTH 920 0
DWIDTH 13 0
BBX 12 13 1 -3
BITMAP
F380
D3C0
DBC0
9EC0
06C0
0660
0FE0
0FE0
0C70
1C30
0000
01C0
01C0
ENDCHAR
STARTCHAR uni1F8B
ENCODING 8075
SWIDTH 909 0
DWIDTH 13 0
BBX 12 13 1 -3
BITMAP
F380
D380
DEC0
5EC0
06C0
06E0
0FE0
0FE0
0C60
1C70
0000
01C0
01C0
ENDCHAR
STARTCHAR uni1F8C
ENCODING 8076
SWIDTH 900 0
DWIDTH 13 0
BBX 12 13 1 -3
BITMAP
DB80
D380
D6C0
B6C0
06C0
0EC0
0FE0
0FE0
0C60
1C70
0000
01C0
01C0
ENDCHAR
STARTCHAR uni1F8D
ENCODING 8077
SWIDTH 901 0
DWIDTH 13 0
BBX 12 13 1 -3
BITMAP
D380
DB80
D6C0
76C0
06C0
0EC0
0FE0
0FE0
0C60
1C70
0000
01C0
01C0
ENDCHAR
STARTCHAR uni1F8E
ENCODING 8078
SWIDTH 879 0
DWIDTH 12 0
BBX 12 13 1 -3
BITMAP
7B80
F780
2780
76C0
2CC0
0CC0
0FC0
0FE0
1C60
1860
0010
0340
01C0
ENDCHAR
STARTCHAR uni1F8F
ENCODING 8079
SWIDTH 879 0
DWIDTH 12 0
BBX 12 13 1 -3
BITMAP
7B80
F780
2780
76C0
2CC0
0CC0
0FC0
0FE0
1C60
1860
0010
0340
01C0
ENDCHAR
STARTCHAR uni1F90
ENCODING 8080
SWIDTH 580 0
DWIDTH 8 0
BBX 6 15 1 -3
BITMAP
10
38
10
10
FC
FC
CC
CC
CC
CC
CC
CC
0C
EC
EC
ENDCHAR
STARTCHAR uni1F91
ENCODING 8081
SWIDTH 580 0
DWIDTH 8 0
BBX 6 15 1 -3
BITMAP
20
70
20
20
DC
FC
CC
CC
CC
CC
CC
CC
0C
EC
EC
ENDCHAR
STARTCHAR uni1F92
ENCODING 8082
SWIDTH 580 0
DWIDTH 8 0
BBX 6 15 1 -3
BITMAP
78
78
48
48
DC
FC
CC
CC
CC
CC
CC
CC
0C
EC
EC
ENDCHAR
STARTCHAR uni1F93
ENCODING 8083
SWIDTH 580 0
DWIDTH 8 0
BBX 6 15 1 -3
BITMAP
58
F8
58
48
DC
FC
CC
CC
CC
CC
CC
CC
0C
EC
EC
ENDCHAR
STARTCHAR uni1F94
ENCODING 8084
SWIDTH 580 0
DWIDTH 8 0
BBX 6 15 1 -3
BITMAP
6C
6C
68
58
DC
FC
CC
CC
CC
CC
CC
CC
0C
EC
EC
ENDCHAR
STARTCHAR uni1F95
ENCODING 8085
SWIDTH 580 0
DWIDTH 8 0
BBX 6 15 1 -3
BITMAP
6C
68
58
78
DC
FC
CC
CC
CC
CC
CC
CC
0C
EC
EC
ENDCHAR
STARTCHAR uni1F96
ENCODING 8086
SWIDTH 580 0
DWIDTH 8 0
BBX 6 17 1 -3
BITMAP
28
7C
58
30
30
10
FC
FC
CC
CC
CC
CC
CC
CC
0C
EC
EC
ENDCHAR
STARTCHAR uni1F97
ENCODING 8087
SWIDTH 580 0
DWIDTH 8 0
BBX 6 17 1 -3
BITMAP
28
7C
D8
30
30
30
DC
FC
CC
CC
CC
CC
CC
CC
0C
EC
EC
ENDCHAR
STARTCHAR uni1F98
ENCODING 8088
SWIDTH 869 0
DWIDTH 12 0
BBX 10 13 1 -3
BITMAP
D8C0
D8C0
D8C0
98C0
1FC0
1FC0
18C0
18C0
18C0
18C0
0000
0380
0380
ENDCHAR
STARTCHAR uni1F99
ENCODING 8089
SWIDTH 873 0
DWIDTH 12 0
BBX 10 13 1 -3
BITMAP
D8C0
D8C0
D8C0
58C0
1FC0
1FC0
18C0
18C0
18C0
18C0
0000
0380
0380
ENDCHAR
STARTCHAR uni1F9A
ENCODING 8090
SWIDTH 1060 0
DWIDTH 15 0
BBX 13 13 1 -3
BITMAP
F718
D718
DF18
9F18
07F8
07F8
0718
0718
0718
0718
0000
00D0
0070
ENDCHAR
STARTCHAR uni1F9B
ENCODING 8091
SWIDTH 1060 0
DWIDTH 15 0
BBX 13 13 1 -3
BITMAP
F718
DF18
DF18
5F18
07F8
07F8
0718
0718
0718
0718
0000
00D0
0070
ENDCHAR
STARTCHAR uni1F9C
ENCODING 8092
SWIDTH 1048 0
DWIDTH 15 0
BBX 13 13 1 -3
BITMAP
D738
DF38
D738
B738
07F8
07F8
0738
0738
0738
0738
0000
00E0
0070
ENDCHAR
STARTCHAR uni1F9D
ENCODING 8093
SWIDTH 1054 0
DWIDTH 15 0
BBX 13 13 1 -3
BITMAP
DF18
DF18
D718
7718
07F8
07F8
0718
0718
0718
0718
0000
00E0
0070
ENDCHAR
STARTCHAR uni1F9E
ENCODING 8094
SWIDTH 1064 0
DWIDTH 15 0
BBX 13 13 1 -3
BITMAP
7F18
FF18
3718
3718
27F8
07F8
0718
0718
0718
0718
0000
00D0
0070
ENDCHAR
STARTCHAR uni1F9F
ENCODING 8095
SWIDTH 1064 0
DWIDTH 15 0
BBX 13 13 1 -3
BITMAP
7F18
FF18
3718
3718
27F8
07F8
0718
0718
0718
0718
0000
00D0
0070
ENDCHAR
STARTCHAR uni1FA0
ENCODING 8096
SWIDTH 774 0
DWIDTH 11 0
BBX 9 15 1 -3
BITMAP
0C00
0C00
0C00
0800
C380
C180
C980
D980
D980
D980
FF80
7700
0000
0A00
0E00
ENDCHAR
STARTCHAR uni1FA1
ENCODING 8097
SWIDTH 774 0
DWIDTH 11 0
BBX 9 15 1 -3
BITMAP
1800
1800
1800
0800
C380
C180
C980
D980
D980
D980
FF80
7700
0000
0A00
0E00
ENDCHAR
STARTCHAR uni1FA2
ENCODING 8098
SWIDTH 774 0
DWIDTH 11 0
BBX 9 15 1 -3
BITMAP
3C00
3400
3600
2600
C180
C180
C980
D980
D980
D980
FF80
7700
0000
0A00
0E00
ENDCHAR
STARTCHAR uni1FA3
ENCODING 8099
SWIDTH 774 0
DWIDTH 11 0
BBX 9 15 1 -3
BITMAP
3C00
3C00
2400
3600
C180
C180
C980
D980
D980
D980
FF80
7700
0000
0A00
0E00
ENDCHAR
STARTCHAR uni1FA4
ENCODING 8100
SWIDTH 774 0
DWIDTH 11 0
BBX 9 15 1 -3
BITMAP
1600
3E00
1600
3400
C380
C180
C980
D980
D980
D980
FF80
7700
0000
0A00
0E00
ENDCHAR
STARTCHAR uni1FA5
ENCODING 8101
SWIDTH 774 0
DWIDTH 11 0
BBX 9 15 1 -3
BITMAP
3600
3600
3400
1C00
C380
C180
C980
D980
D980
D980
FF80
7700
0000
0A00
0E00
ENDCHAR
STARTCHAR uni1FA6
ENCODING 8102
SWIDTH 774 0
DWIDTH 11 0
BBX 9 17 1 -3
BITMAP
1200
3E00
2C00
0800
1C00
0800
C380
C180
C980
D980
D980
D980
FF80
7700
0000
0A00
0E00
ENDCHAR
STARTCHAR uni1FA7
ENCODING 8103
SWIDTH 774 0
DWIDTH 11 0
BBX 9 17 1 -3
BITMAP
1400
3E00
2C00
1800
1C00
0800
C380
C180
C980
D980
D980
D980
FF80
7700
0000
0A00
0E00
ENDCHAR
STARTCHAR uni1FA8
ENCODING 8104
SWIDTH 875 0
DWIDTH 12 0
BBX 11 13 1 -3
BITMAP
CF80
DFC0
F8C0
B8E0
30E0
30E0
38C0
18C0
3DC0
3DC0
0000
0280
0380
ENDCHAR
STARTCHAR uni1FA9
ENCODING 8105
SWIDTH 906 0
DWIDTH 13 0
BBX 11 13 1 -3
BITMAP
C780
DFC0
D8E0
5860
3860
1860
1860
18C0
1DE0
1DE0
0000
0380
0380
ENDCHAR
STARTCHAR uni1FAA
ENCODING 8106
SWIDTH 1092 0
DWIDTH 15 0
BBX 14 13 1 -3
BITMAP
F1F0
D3F8
DF18
9F1C
061C
071C
071C
0318
07BC
07BC
0000
0050
0070
ENDCHAR
STARTCHAR uni1FAB
ENCODING 8107
SWIDTH 1082 0
DWIDTH 15 0
BBX 14 13 1 -3
BITMAP
F1E0
D3F8
DF18
5E1C
061C
061C
0618
0318
07B8
07B8
0080
0050
0070
ENDCHAR
STARTCHAR uni1FAC
ENCODING 8108
SWIDTH 1055 0
DWIDTH 15 0
BBX 13 13 1 -3
BITMAP
D9E0
D3F0
F638
B618
0618
0618
0618
0630
0778
0778
0000
00E0
0070
ENDCHAR
STARTCHAR uni1FAD
ENCODING 8109
SWIDTH 1061 0
DWIDTH 15 0
BBX 13 13 1 -3
BITMAP
D1E0
DBF0
D718
7618
0618
0618
0618
0218
0738
0738
0000
00E0
0070
ENDCHAR
STARTCHAR uni1FAE
ENCODING 8110
SWIDTH 1031 0
DWIDTH 14 0
BBX 13 13 1 -3
BITMAP
7BE0
F7F0
2638
7E38
2E18
0E18
0638
0630
0778
0778
0000
00E0
00E0
ENDCHAR
STARTCHAR uni1FAF
ENCODING 8111
SWIDTH 1027 0
DWIDTH 14 0
BBX 13 13 1 -3
BITMAP
7BE0
F7F0
2638
7E38
2E38
0E38
0E38
0630
0F78
0F78
0000
00E0
00E0
ENDCHAR
STARTCHAR uni1FB0
ENCODING 8112
SWIDTH 599 0
DWIDTH 8 0
BBX 8 12 0 0
BITMAP
64
3C
38
00
3B
7E
66
E6
E6
66
7B
3B
ENDCHAR
STARTCHAR uni1FB1
ENCODING 8113
SWIDTH 599 0
DWIDTH 8 0
BBX 8 12 0 0
BITMAP
3C
3C
00
00
3B
7E
66
E6
E6
66
7B
3B
ENDCHAR
STARTCHAR uni1FB2
ENCODING 8114
SWIDTH 599 0
DWIDTH 8 0
BBX 8 16 0 -3
BITMAP
10
30
10
18
00
3B
7E
66
E6
E6
66
7B
3B
00
1C
1C
ENDCHAR
STARTCHAR uni1FB3
ENCODING 8115
SWIDTH 599 0
DWIDTH 8 0
BBX 8 11 0 -3
BITMAP
3B
7E
66
E6
E6
66
7B
3B
00
1C
1C
ENDCHAR
STARTCHAR uni1FB4
ENCODING 8116
SWIDTH 599 0
DWIDTH 8 0
BBX 8 16 0 -3
BITMAP
10
0C
18
18
00
3B
7E
66
E6
E6
66
7B
3B
00
1C
1C
ENDCHAR
STARTCHAR uni1FB6
ENCODING 8118
SWIDTH 599 0
DWIDTH 8 0
BBX 8 11 0 0
BITMAP
3E
7C
00
3B
7E
66
E6
E6
66
7B
3B
ENDCHAR
STARTCHAR uni1FB7
ENCODING 8119
SWIDTH 599 0
DWIDTH 8 0
BBX 8 14 0 -3
BITMAP
3E
7C
00
3B
7E
66
E6
E6
66
7B
3B
00
1C
1C
ENDCHAR
STARTCHAR uni1FB8
ENCODING 8120
SWIDTH 590 0
DWIDTH 8 0
BBX 8 14 0 0
BITMAP
26
3C
1C
00
1C
3C
3C
36
66
66
7E
7F
E3
C3
ENDCHAR
STARTCHAR uni1FB9
ENCODING 8121
SWIDTH 590 0
DWIDTH 8 0
BBX 8 13 0 0
BITMAP
3C
3C
00
1C
3C
3C
36
66
66
7E
7F
E3
C3
ENDCHAR
STARTCHAR uni1FBA
ENCODING 8122
SWIDTH 736 0
DWIDTH 10 0
BBX 9 11 1 0
BITMAP
4000
CE00
5E00
7E00
1B00
3300
3300
3F00
3F80
7180
6180
ENDCHAR
STARTCHAR uni1FBB
ENCODING 8123
SWIDTH 705 0
DWIDTH 10 0
BBX 9 11 1 0
BITMAP
E000
DC00
DE00
DE00
3600
3600
3300
7F00
7F00
6380
E380
ENDCHAR
STARTCHAR uni1FBC
ENCODING 8124
SWIDTH 590 0
DWIDTH 8 0
BBX 8 13 0 -3
BITMAP
1C
3C
3C
36
66
66
7E
7F
E3
C3
00
1A
0E
ENDCHAR
STARTCHAR uni1FBD
ENCODING 8125
SWIDTH 220 0
DWIDTH 3 0
BBX 3 4 0 9
BITMAP
40
E0
40
40
ENDCHAR
STARTCHAR uni1FBE
ENCODING 8126
SWIDTH 362 0
DWIDTH 5 0
BBX 4 2 0 -3
BITMAP
D0
70
ENDCHAR
STARTCHAR uni1FBF
ENCODING 8127
SWIDTH 210 0
DWIDTH 3 0
BBX 3 4 0 8
BITMAP
40
E0
40
C0
ENDCHAR
STARTCHAR uni1FC0
ENCODING 8128
SWIDTH 436 0
DWIDTH 6 0
BBX 6 2 0 9
BITMAP
7C
F8
ENDCHAR
STARTCHAR uni1FC1
ENCODING 8129
SWIDTH 457 0
DWIDTH 6 0
BBX 6 5 0 9
BITMAP
68
7C
58
EC
6C
ENDCHAR
STARTCHAR uni1FC2
ENCODING 8130
SWIDTH 580 0
DWIDTH 8 0
BBX 6 16 1 -3
BITMAP
10
60
30
30
00
DC
FC
CC
CC
CC
CC
CC
CC
0C
EC
EC
ENDCHAR
STARTCHAR uni1FC3
ENCODING 8131
SWIDTH 580 0
DWIDTH 8 0
BBX 6 11 1 -3
BITMAP
DC
FC
CC
CC
CC
CC
CC
CC
0C
EC
EC
ENDCHAR
STARTCHAR uni1FC4
ENCODING 8132
SWIDTH 580 0
DWIDTH 8 0
BBX 6 16 1 -3
BITMAP
10
18
10
30
00
DC
FC
CC
CC
CC
CC
CC
CC
0C
EC
EC
ENDCHAR
STARTCHAR uni1FC6
ENCODING 8134
SWIDTH 580 0
DWIDTH 8 0
BBX 6 14 1 -3
BITMAP
7C
F8
00
DC
FC
CC
CC
CC
CC
CC
CC
0C
0C
0C
ENDCHAR
STARTCHAR uni1FC7
ENCODING 8135
SWIDTH 580 0
DWIDTH 8 0
BBX 6 14 1 -3
BITMAP
7C
F8
00
DC
FC
CC
CC
CC
CC
CC
CC
0C
EC
EC
ENDCHAR
STARTCHAR uni1FC8
ENCODING 8136
SWIDTH 758 0
DWIDTH 11 0
BBX 9 11 1 0
BITMAP
4000
DF80
7F80
7800
1800
1F00
1F00
1800
1800
1F80
1F80
ENDCHAR
STARTCHAR uni1FC9
ENCODING 8137
SWIDTH 750 0
DWIDTH 11 0
BBX 9 11 1 0
BITMAP
6000
DF80
DF80
D800
1800
1F00
1F00
1800
1800
1F80
1F80
ENDCHAR
STARTCHAR uni1FCA
ENCODING 8138
SWIDTH 898 0
DWIDTH 13 0
BBX 11 11 1 0
BITMAP
4000
D8E0
78E0
78E0
18E0
1FE0
1FE0
18E0
18E0
18E0
18E0
ENDCHAR
STARTCHAR uni1FCB
ENCODING 8139
SWIDTH 890 0
DWIDTH 12 0
BBX 11 11 1 0
BITMAP
6000
D8E0
D8E0
D8E0
18E0
1FE0
1FE0
18E0
18E0
18E0
18E0
ENDCHAR
STARTCHAR uni1FCC
ENCODING 8140
SWIDTH 666 0
DWIDTH 9 0
BBX 7 13 1 -3
BITMAP
C6
C6
C6
C6
FE
FE
C6
C6
C6
C6
00
1C
1C
ENDCHAR
STARTCHAR uni1FCD
ENCODING 8141
SWIDTH 408 0
DWIDTH 6 0
BBX 5 4 0 8
BITMAP
58
F8
58
48
ENDCHAR
STARTCHAR uni1FCE
ENCODING 8142
SWIDTH 408 0
DWIDTH 6 0
BBX 5 4 0 8
BITMAP
58
F8
58
50
ENDCHAR
STARTCHAR uni1FCF
ENCODING 8143
SWIDTH 436 0
DWIDTH 6 0
BBX 6 6 0 8
BITMAP
28
7C
D8
30
30
30
ENDCHAR
STARTCHAR uni1FD0
ENCODING 8144
SWIDTH 282 0
DWIDTH 4 0
BBX 5 12 -1 0
BITMAP
C8
78
70
00
30
30
30
30
30
30
38
10
ENDCHAR
STARTCHAR uni1FD1
ENCODING 8145
SWIDTH 282 0
DWIDTH 4 0
BBX 4 12 0 0
BITMAP
F0
F0
00
00
60
60
60
60
60
60
70
20
ENDCHAR
STARTCHAR uni1FD2
ENCODING 8146
SWIDTH 282 0
DWIDTH 4 0
BBX 6 14 -1 0
BITMAP
40
60
30
DC
CC
00
30
30
30
30
30
30
38
10
ENDCHAR
STARTCHAR uni1FD3
ENCODING 8147
SWIDTH 282 0
DWIDTH 4 0
BBX 6 14 -1 0
BITMAP
10
18
30
DC
CC
00
30
30
30
30
30
30
38
10
ENDCHAR
STARTCHAR uni1FD6
ENCODING 8150
SWIDTH 282 0
DWIDTH 4 0
BBX 6 11 -1 0
BITMAP
7C
F8
00
30
30
30
30
30
30
38
10
ENDCHAR
STARTCHAR uni1FD7
ENCODING 8151
SWIDTH 282 0
DWIDTH 4 0
BBX 6 14 -1 0
BITMAP
7C
F8
00
C8
DC
00
30
30
30
30
30
30
38
10
ENDCHAR
STARTCHAR uni1FD8
ENCODING 8152
SWIDTH 293 0
DWIDTH 4 0
BBX 4 14 0 0
BITMAP
90
F0
70
00
60
60
60
60
60
60
60
60
60
60
ENDCHAR
STARTCHAR uni1FD9
ENCODING 8153
SWIDTH 293 0
DWIDTH 4 0
BBX 4 13 0 0
BITMAP
F0
F0
00
60
60
60
60
60
60
60
60
60
60
ENDCHAR
STARTCHAR uni1FDA
ENCODING 8154
SWIDTH 525 0
DWIDTH 7 0
BBX 5 11 1 0
BITMAP
40
D8
78
78
18
18
18
18
18
18
18
ENDCHAR
STARTCHAR uni1FDB
ENCODING 8155
SWIDTH 517 0
DWIDTH 7 0
BBX 5 11 1 0
BITMAP
60
D8
D8
D8
18
18
18
18
18
18
18
ENDCHAR
STARTCHAR uni1FDD
ENCODING 8157
SWIDTH 409 0
DWIDTH 6 0
BBX 5 4 0 8
BITMAP
58
F8
48
68
ENDCHAR
STARTCHAR uni1FDE
ENCODING 8158
SWIDTH 413 0
DWIDTH 6 0
BBX 5 4 0 8
BITMAP
58
F8
58
70
ENDCHAR
STARTCHAR uni1FDF
ENCODING 8159
SWIDTH 436 0
DWIDTH 6 0
BBX 6 6 0 8
BITMAP
28
7C
D8
30
30
30
ENDCHAR
STARTCHAR uni1FE0
ENCODING 8160
SWIDTH 565 0
DWIDTH 8 0
BBX 6 12 1 0
BITMAP
C8
78
70
00
CC
CC
CC
CC
CC
CC
FC
78
ENDCHAR
STARTCHAR uni1FE1
ENCODING 8161
SWIDTH 565 0
DWIDTH 8 0
BBX 6 12 1 0
BITMAP
78
78
00
00
CC
CC
CC
CC
CC
CC
FC
78
ENDCHAR
STARTCHAR uni1FE2
ENCODING 8162
SWIDTH 565 0
DWIDTH 8 0
BBX 6 14 1 0
BITMAP
40
60
30
DC
CC
00
CC
CC
CC
CC
CC
CC
FC
78
ENDCHAR
STARTCHAR uni1FE3
ENCODING 8163
SWIDTH 565 0
DWIDTH 8 0
BBX 6 14 1 0
BITMAP
10
18
30
DC
CC
00
CC
CC
CC
CC
CC
CC
FC
78
ENDCHAR
STARTCHAR uni1FE4
ENCODING 8164
SWIDTH 587 0
DWIDTH 8 0
BBX 7 15 1 -3
BITMAP
18
18
10
10
78
FC
CE
CE
CE
CE
FC
F8
C0
C0
C0
ENDCHAR
STARTCHAR uni1FE5
ENCODING 8165
SWIDTH 587 0
DWIDTH 8 0
BBX 7 15 1 -3
BITMAP
30
30
20
30
78
FC
CE
CE
CE
CE
FC
F8
C0
C0
C0
ENDCHAR
STARTCHAR uni1FE6
ENCODING 8166
SWIDTH 565 0
DWIDTH 8 0
BBX 6 11 1 0
BITMAP
7C
F8
00
CC
CC
CC
CC
CC
CC
FC
78
ENDCHAR
STARTCHAR uni1FE7
ENCODING 8167
SWIDTH 565 0
DWIDTH 8 0
BBX 6 14 1 0
BITMAP
6C
F8
50
C8
DC
00
CC
CC
CC
CC
CC
CC
FC
78
ENDCHAR
STARTCHAR uni1FE8
ENCODING 8168
SWIDTH 594 0
DWIDTH 8 0
BBX 8 14 0 0
BITMAP
26
3C
1C
00
E3
67
66
36
3C
1C
18
18
18
18
ENDCHAR
STARTCHAR uni1FE9
ENCODING 8169
SWIDTH 594 0
DWIDTH 8 0
BBX 8 13 0 0
BITMAP
3C
3C
00
E3
67
66
36
3C
1C
18
18
18
18
ENDCHAR
STARTCHAR uni1FEA
ENCODING 8170
SWIDTH 857 0
DWIDTH 12 0
BBX 11 11 1 0
BITMAP
4000
D8E0
5CC0
6CC0
0F80
0780
0700
0300
0300
0300
0300
ENDCHAR
STARTCHAR uni1FEB
ENCODING 8171
SWIDTH 877 0
DWIDTH 12 0
BBX 11 11 1 0
BITMAP
6000
DC60
CCE0
CCC0
06C0
0780
0380
0300
0300
0300
0300
ENDCHAR
STARTCHAR uni1FEC
ENCODING 8172
SWIDTH 813 0
DWIDTH 11 0
BBX 10 10 1 0
BITMAP
DF80
DFC0
D8C0
58C0
19C0
1F80
1F00
1800
1800
1800
ENDCHAR
STARTCHAR uni1FED
ENCODING 8173
SWIDTH 466 0
DWIDTH 7 0
BBX 6 5 0 9
BITMAP
20
60
30
EC
6C
ENDCHAR
STARTCHAR uni1FEE
ENCODING 8174
SWIDTH 466 0
DWIDTH 7 0
BBX 6 5 0 9
BITMAP
08
18
30
EC
6C
ENDCHAR
STARTCHAR uni1FEF
ENCODING 8175
SWIDTH 252 0
DWIDTH 4 0
BBX 3 4 0 9
BITMAP
A0
60
60
60
ENDCHAR
STARTCHAR uni1FF2
ENCODING 8178
SWIDTH 774 0
DWIDTH 11 0
BBX 9 16 1 -3
BITMAP
2800
1800
1800
1800
0000
C380
C180
C980
D980
D980
D980
FF80
7700
0000
0A00
0E00
ENDCHAR
STARTCHAR uni1FF3
ENCODING 8179
SWIDTH 774 0
DWIDTH 11 0
BBX 9 11 1 -3
BITMAP
C380
C180
C980
D980
D980
D980
FF80
7700
0000
0A00
0E00
ENDCHAR
STARTCHAR uni1FF4
ENCODING 8180
SWIDTH 774 0
DWIDTH 11 0
BBX 9 16 1 -3
BITMAP
0800
0C00
0C00
0800
0000
C380
C180
C980
D980
D980
D980
FF80
7700
0000
0A00
0E00
ENDCHAR
STARTCHAR uni1FF6
ENCODING 8182
SWIDTH 774 0
DWIDTH 11 0
BBX 9 11 1 0
BITMAP
1E00
3C00
0000
C380
C180
C980
D980
D980
D980
FF80
7700
ENDCHAR
STARTCHAR uni1FF7
ENCODING 8183
SWIDTH 774 0
DWIDTH 11 0
BBX 9 14 1 -3
BITMAP
1E00
3C00
0000
C380
C180
C980
D980
D980
D980
FF80
7700
0000
0A00
0E00
ENDCHAR
STARTCHAR uni1FF8
ENCODING 8184
SWIDTH 914 0
DWIDTH 13 0
BBX 11 11 1 0
BITMAP
4000
C780
4FC0
78E0
1860
1860
1860
1860
18E0
0FC0
0780
ENDCHAR
STARTCHAR uni1FF9
ENCODING 8185
SWIDTH 865 0
DWIDTH 12 0
BBX 11 11 1 0
BITMAP
E000
CF00
DFC0
F8C0
30E0
30E0
30E0
30E0
38C0
1FC0
0F00
ENDCHAR
STARTCHAR uni1FFA
ENCODING 8186
SWIDTH 914 0
DWIDTH 13 0
BBX 11 11 1 0
BITMAP
4000
C780
4FC0
78E0
1860
1860
1860
1860
1840
1DE0
1DE0
ENDCHAR
STARTCHAR uni1FFB
ENCODING 8187
SWIDTH 864 0
DWIDTH 12 0
BBX 11 11 1 0
BITMAP
E000
CF00
DFC0
F8C0
30E0
30E0
30E0
30C0
18C0
3DC0
3DC0
ENDCHAR
STARTCHAR uni1FFC
ENCODING 8188
SWIDTH 691 0
DWIDTH 10 0
BBX 9 13 0 -3
BITMAP
1E00
7F00
6380
6180
E180
6180
6180
6300
7780
7780
0000
0E00
0E00
ENDCHAR
STARTCHAR uni1FFD
ENCODING 8189
SWIDTH 252 0
DWIDTH 4 0
BBX 3 4 0 9
BITMAP
40
60
60
C0
ENDCHAR
STARTCHAR uni1FFE
ENCODING 8190
SWIDTH 212 0
DWIDTH 3 0
BBX 3 4 0 8
BITMAP
40
E0
40
40
ENDCHAR
STARTCHAR uni2007
ENCODING 8199
SWIDTH 560 0
DWIDTH 8 0
BBX 1 1 0 0
BITMAP
00
ENDCHAR
STARTCHAR uni2008
ENCODING 8200
SWIDTH 249 0
DWIDTH 3 0
BBX 1 1 0 0
BITMAP
00
ENDCHAR
STARTCHAR uni200B
ENCODING 8203
SWIDTH 0 0
DWIDTH 0 0
BBX 1 1 0 0
BITMAP
00
ENDCHAR
STARTCHAR uni200C
ENCODING 8204
SWIDTH 0 0
DWIDTH 0 0
BBX 1 13 0 -2
BITMAP
80
80
80
80
80
80
80
80
80
80
80
80
80
ENDCHAR
STARTCHAR uni200D
ENCODING 8205
SWIDTH 0 0
DWIDTH 0 0
BBX 2 14 -1 -2
BITMAP
C0
C0
80
80
80
80
80
80
80
80
80
80
80
80
ENDCHAR
STARTCHAR uni200E
ENCODING 8206
SWIDTH 0 0
DWIDTH 0 0
BBX 2 15 0 -3
BITMAP
40
C0
80
80
80
80
80
80
80
80
80
80
80
80
80
ENDCHAR
STARTCHAR uni200F
ENCODING 8207
SWIDTH 0 0
DWIDTH 0 0
BBX 2 15 -2 -3
BITMAP
80
C0
C0
40
40
40
40
40
40
40
40
40
40
40
40
ENDCHAR
STARTCHAR figuredash
ENCODING 8210
SWIDTH 560 0
DWIDTH 8 0
BBX 8 2 0 4
BITMAP
FF
FF
ENDCHAR
STARTCHAR endash
ENCODING 8211
SWIDTH 520 0
DWIDTH 7 0
BBX 7 2 0 4
BITMAP
FE
FE
ENDCHAR
STARTCHAR emdash
ENCODING 8212
SWIDTH 796 0
DWIDTH 11 0
BBX 11 2 0 4
BITMAP
FFE0
FFE0
ENDCHAR
STARTCHAR uni2015
ENCODING 8213
SWIDTH 520 0
DWIDTH 7 0
BBX 7 2 0 4
BITMAP
FE
FE
ENDCHAR
STARTCHAR uni2016
ENCODING 8214
SWIDTH 594 0
DWIDTH 8 0
BBX 5 13 2 -1
BITMAP
D8
D8
D8
D8
D8
D8
D8
D8
D8
D8
D8
D8
D8
ENDCHAR
STARTCHAR quoteleft
ENCODING 8216
SWIDTH 243 0
DWIDTH 3 0
BBX 2 4 1 7
BITMAP
40
C0
C0
C0
ENDCHAR
STARTCHAR quoteright
ENCODING 8217
SWIDTH 243 0
DWIDTH 3 0
BBX 3 4 0 8
BITMAP
60
E0
40
C0
ENDCHAR
STARTCHAR quotesinglbase
ENCODING 8218
SWIDTH 243 0
DWIDTH 3 0
BBX 3 4 0 -2
BITMAP
60
E0
40
C0
ENDCHAR
STARTCHAR quotedblleft
ENCODING 8220
SWIDTH 448 0
DWIDTH 6 0
BBX 5 4 1 7
BITMAP
58
D0
F8
D8
ENDCHAR
STARTCHAR quotedblright
ENCODING 8221
SWIDTH 448 0
DWIDTH 6 0
BBX 6 4 0 8
BITMAP
6C
FC
48
D8
ENDCHAR
STARTCHAR quotedblbase
ENCODING 8222
SWIDTH 448 0
DWIDTH 6 0
BBX 6 4 0 -2
BITMAP
6C
FC
48
D8
ENDCHAR
STARTCHAR dagger
ENCODING 8224
SWIDTH 529 0
DWIDTH 7 0
BBX 7 10 0 0
BITMAP
18
18
FE
FE
18
18
18
18
18
18
ENDCHAR
STARTCHAR daggerdbl
ENCODING 8225
SWIDTH 529 0
DWIDTH 7 0
BBX 7 10 0 0
BITMAP
18
18
FE
FE
18
18
FE
FE
18
18
ENDCHAR
STARTCHAR bullet
ENCODING 8226
SWIDTH 346 0
DWIDTH 5 0
BBX 4 4 0 3
BITMAP
70
70
F0
70
ENDCHAR
STARTCHAR ellipsis
ENCODING 8230
SWIDTH 727 0
DWIDTH 10 0
BBX 10 3 0 0
BITMAP
6C80
EDC0
6C80
ENDCHAR
STARTCHAR perthousand
ENCODING 8240
SWIDTH 1245 0
DWIDTH 17 0
BBX 17 10 0 0
BITMAP
70C000
798000
C98000
7B0000
760000
06E700
0DEF80
193D80
19EF80
30E700
ENDCHAR
STARTCHAR guilsinglleft
ENCODING 8249
SWIDTH 359 0
DWIDTH 5 0
BBX 5 8 0 0
BITMAP
18
30
60
E0
E0
70
38
10
ENDCHAR
STARTCHAR guilsinglright
ENCODING 8250
SWIDTH 359 0
DWIDTH 5 0
BBX 5 8 0 0
BITMAP
C0
60
30
38
38
70
E0
40
ENDCHAR
STARTCHAR uni203F
ENCODING 8255
SWIDTH 682 0
DWIDTH 10 0
BBX 10 3 0 -3
BITMAP
8080
FFC0
3F00
ENDCHAR
STARTCHAR fraction
ENCODING 8260
SWIDTH 169 0
DWIDTH 2 0
BBX 7 12 -2 -1
BITMAP
06
04
0C
08
18
10
30
20
60
40
C0
80
ENDCHAR
STARTCHAR uni204A
ENCODING 8266
SWIDTH 546 0
DWIDTH 8 0
BBX 6 11 1 -3
BITMAP
FC
FC
18
18
38
30
30
70
60
E0
40
ENDCHAR
STARTCHAR uni2070
ENCODING 8304
SWIDTH 400 0
DWIDTH 6 0
BBX 5 7 0 5
BITMAP
30
78
D8
C8
C8
58
70
ENDCHAR
STARTCHAR uni2074
ENCODING 8308
SWIDTH 400 0
DWIDTH 6 0
BBX 5 6 0 5
BITMAP
20
60
58
F8
F8
18
ENDCHAR
STARTCHAR uni2075
ENCODING 8309
SWIDTH 400 0
DWIDTH 6 0
BBX 5 7 0 5
BITMAP
78
78
40
78
18
F8
70
ENDCHAR
STARTCHAR uni2076
ENCODING 8310
SWIDTH 400 0
DWIDTH 6 0
BBX 5 6 0 5
BITMAP
38
40
F8
D8
58
70
ENDCHAR
STARTCHAR uni2077
ENCODING 8311
SWIDTH 400 0
DWIDTH 6 0
BBX 4 7 1 5
BITMAP
F0
F0
30
20
60
40
C0
ENDCHAR
STARTCHAR uni2078
ENCODING 8312
SWIDTH 400 0
DWIDTH 6 0
BBX 5 6 0 5
BITMAP
78
58
78
58
C8
78
ENDCHAR
STARTCHAR uni2079
ENCODING 8313
SWIDTH 400 0
DWIDTH 6 0
BBX 5 6 0 5
BITMAP
70
D8
D8
78
18
70
ENDCHAR
STARTCHAR uni207A
ENCODING 8314
SWIDTH 400 0
DWIDTH 6 0
BBX 4 4 1 5
BITMAP
60
F0
F0
60
ENDCHAR
STARTCHAR uni207B
ENCODING 8315
SWIDTH 400 0
DWIDTH 6 0
BBX 4 2 1 6
BITMAP
F0
F0
ENDCHAR
STARTCHAR uni207C
ENCODING 8316
SWIDTH 400 0
DWIDTH 6 0
BBX 4 4 1 5
BITMAP
F0
F0
F0
F0
ENDCHAR
STARTCHAR uni207D
ENCODING 8317
SWIDTH 397 0
DWIDTH 6 0
BBX 3 10 1 2
BITMAP
20
60
40
40
C0
C0
40
40
60
20
ENDCHAR
STARTCHAR uni207E
ENCODING 8318
SWIDTH 397 0
DWIDTH 6 0
BBX 3 10 1 2
BITMAP
C0
40
60
60
20
20
60
60
40
C0
ENDCHAR
STARTCHAR uni207F
ENCODING 8319
SWIDTH 308 0
DWIDTH 4 0
BBX 4 4 0 6
BITMAP
B0
D0
D0
D0
ENDCHAR
STARTCHAR uni2080
ENCODING 8320
SWIDTH 400 0
DWIDTH 6 0
BBX 5 7 0 -3
BITMAP
30
78
D8
C8
C8
58
70
ENDCHAR
STARTCHAR uni2081
ENCODING 8321
SWIDTH 400 0
DWIDTH 6 0
BBX 3 6 1 -3
BITMAP
60
E0
20
20
20
20
ENDCHAR
STARTCHAR uni2082
ENCODING 8322
SWIDTH 400 0
DWIDTH 6 0
BBX 5 7 0 -3
BITMAP
30
F8
58
10
30
78
78
ENDCHAR
STARTCHAR uni2083
ENCODING 8323
SWIDTH 400 0
DWIDTH 6 0
BBX 5 7 0 -3
BITMAP
30
78
18
30
18
58
F0
ENDCHAR
STARTCHAR uni2084
ENCODING 8324
SWIDTH 400 0
DWIDTH 6 0
BBX 5 6 0 -3
BITMAP
20
60
58
F8
F8
18
ENDCHAR
STARTCHAR uni2085
ENCODING 8325
SWIDTH 400 0
DWIDTH 6 0
BBX 5 7 0 -3
BITMAP
78
78
40
78
18
F8
70
ENDCHAR
STARTCHAR uni2086
ENCODING 8326
SWIDTH 400 0
DWIDTH 6 0
BBX 5 6 0 -3
BITMAP
38
40
F8
D8
58
70
ENDCHAR
STARTCHAR uni2087
ENCODING 8327
SWIDTH 400 0
DWIDTH 6 0
BBX 4 7 1 -3
BITMAP
F0
F0
30
20
60
40
C0
ENDCHAR
STARTCHAR uni2088
ENCODING 8328
SWIDTH 400 0
DWIDTH 6 0
BBX 5 6 0 -3
BITMAP
78
58
78
58
C8
78
ENDCHAR
STARTCHAR uni2089
ENCODING 8329
SWIDTH 400 0
DWIDTH 6 0
BBX 5 6 0 -3
BITMAP
70
D8
D8
78
18
70
ENDCHAR
STARTCHAR uni208A
ENCODING 8330
SWIDTH 400 0
DWIDTH 6 0
BBX 4 4 1 -2
BITMAP
60
F0
F0
60
ENDCHAR
STARTCHAR uni208B
ENCODING 8331
SWIDTH 400 0
DWIDTH 6 0
BBX 4 2 1 -1
BITMAP
F0
F0
ENDCHAR
STARTCHAR uni208C
ENCODING 8332
SWIDTH 400 0
DWIDTH 6 0
BBX 4 4 1 -2
BITMAP
F0
F0
F0
F0
ENDCHAR
STARTCHAR uni208D
ENCODING 8333
SWIDTH 397 0
DWIDTH 6 0
BBX 3 10 1 -5
BITMAP
20
60
40
40
C0
C0
40
40
60
20
ENDCHAR
STARTCHAR uni208E
ENCODING 8334
SWIDTH 397 0
DWIDTH 6 0
BBX 3 10 1 -5
BITMAP
C0
40
60
60
20
20
60
60
40
C0
ENDCHAR
STARTCHAR colonmonetary
ENCODING 8353
SWIDTH 559 0
DWIDTH 8 0
BBX 8 14 0 -2
BITMAP
0A
0A
1C
3F
7E
6C
6C
F4
74
74
7A
3F
18
18
ENDCHAR
STARTCHAR uni20A6
ENCODING 8358
SWIDTH 656 0
DWIDTH 9 0
BBX 9 10 0 0
BITMAP
7300
7300
7300
7B00
FF80
FF80
FF80
6D00
6700
6700
ENDCHAR
STARTCHAR uni20A9
ENCODING 8361
SWIDTH 844 0
DWIDTH 12 0
BBX 12 10 0 0
BITMAP
E670
6660
6E60
6F60
FFF0
FFF0
69C0
69C0
39C0
39C0
ENDCHAR
STARTCHAR uni20AA
ENCODING 8362
SWIDTH 929 0
DWIDTH 13 0
BBX 11 8 1 0
BITMAP
FE60
FF60
C360
DB60
DB60
D860
DFE0
DFC0
ENDCHAR
STARTCHAR dong
ENCODING 8363
SWIDTH 608 0
DWIDTH 9 0
BBX 7 14 1 -3
BITMAP
0C
3E
3E
7E
FE
CE
CE
CE
CE
FE
76
00
78
78
ENDCHAR
STARTCHAR Euro
ENCODING 8364
SWIDTH 591 0
DWIDTH 8 0
BBX 8 10 0 0
BITMAP
1F
3F
30
FE
FE
FC
FC
30
3F
1F
ENDCHAR
STARTCHAR uni20AF
ENCODING 8367
SWIDTH 1279 0
DWIDTH 18 0
BBX 17 13 0 -3
BITMAP
7E0000
FF8000
C18F00
D9DF80
19D980
19F980
19F980
19B980
3FBF80
3E3F00
003800
003800
003800
ENDCHAR
STARTCHAR uni20B4
ENCODING 8372
SWIDTH 575 0
DWIDTH 8 0
BBX 8 10 0 0
BITMAP
3C
7E
06
FF
FF
FF
FF
60
7F
3E
ENDCHAR
STARTCHAR uni20B9
ENCODING 8377
SWIDTH 542 0
DWIDTH 8 0
BBX 6 10 1 0
BITMAP
FC
38
FC
FC
18
F0
70
30
18
1C
ENDCHAR
STARTCHAR uni20BA
ENCODING 8378
SWIDTH 582 0
DWIDTH 8 0
BBX 8 10 0 0
BITMAP
30
30
3C
38
F4
38
70
B3
3F
3C
ENDCHAR
STARTCHAR uni20BD
ENCODING 8381
SWIDTH 595 0
DWIDTH 8 0
BBX 8 10 0 0
BITMAP
7C
7F
73
73
77
FE
FC
FC
FC
70
ENDCHAR
STARTCHAR uni210A
ENCODING 8458
SWIDTH 600 0
DWIDTH 8 0
BBX 7 11 1 -3
BITMAP
76
FE
CE
CE
CE
CE
FE
7E
0C
7C
F8
ENDCHAR
STARTCHAR uni2113
ENCODING 8467
SWIDTH 470 0
DWIDTH 7 0
BBX 6 11 0 0
BITMAP
3C
34
34
34
38
30
30
F0
30
38
38
ENDCHAR
STARTCHAR uni2116
ENCODING 8470
SWIDTH 1133 0
DWIDTH 16 0
BBX 14 10 1 0
BITMAP
E638
E67C
F6CC
F6CC
F67C
DE38
DE00
CE00
CEFC
CEFC
ENDCHAR
STARTCHAR trademark
ENCODING 8482
SWIDTH 906 0
DWIDTH 13 0
BBX 12 6 0 4
BITMAP
FB70
3370
33F0
32F0
32F0
3230
ENDCHAR
STARTCHAR uni2126
ENCODING 8486
SWIDTH 691 0
DWIDTH 10 0
BBX 9 10 0 0
BITMAP
1E00
7F00
6380
6180
E180
6180
6180
6300
7780
7780
ENDCHAR
STARTCHAR estimated
ENCODING 8494
SWIDTH 946 0
DWIDTH 13 0
BBX 11 11 1 0
BITMAP
0F00
3080
4040
4060
C060
FFE0
C000
C000
4000
4040
3F80
ENDCHAR
STARTCHAR uni2153
ENCODING 8531
SWIDTH 969 0
DWIDTH 14 0
BBX 12 12 1 -1
BITMAP
0080
6180
E100
2300
2260
26F0
2430
0C60
0830
18B0
11E0
3000
ENDCHAR
STARTCHAR uni2154
ENCODING 8532
SWIDTH 969 0
DWIDTH 14 0
BBX 13 12 0 -1
BITMAP
0040
70C0
F880
1980
1130
2378
7A18
7E30
0418
0C58
08F0
1800
ENDCHAR
STARTCHAR uni2155
ENCODING 8533
SWIDTH 969 0
DWIDTH 14 0
BBX 12 12 1 -1
BITMAP
0080
6180
E100
2300
22F0
26F0
2480
0CF0
0830
19F0
10E0
3000
ENDCHAR
STARTCHAR uni2156
ENCODING 8534
SWIDTH 969 0
DWIDTH 14 0
BBX 13 12 0 -1
BITMAP
0040
70C0
F880
1980
1178
2378
7A40
7E78
0418
0CF8
0870
1800
ENDCHAR
STARTCHAR uni2157
ENCODING 8535
SWIDTH 969 0
DWIDTH 14 0
BBX 13 12 0 -1
BITMAP
0040
78C0
7880
3180
1978
5B78
FA40
0678
0418
0CF8
0870
1800
ENDCHAR
STARTCHAR uni2158
ENCODING 8536
SWIDTH 969 0
DWIDTH 14 0
BBX 13 12 0 -1
BITMAP
0040
20C0
6080
5980
F978
FB78
1A40
0678
0418
0CF8
0870
1800
ENDCHAR
STARTCHAR uni2159
ENCODING 8537
SWIDTH 969 0
DWIDTH 14 0
BBX 12 12 1 -1
BITMAP
0080
6180
E100
2300
2200
2670
2480
0DF0
09B0
18B0
10E0
3000
ENDCHAR
STARTCHAR uni215A
ENCODING 8538
SWIDTH 969 0
DWIDTH 14 0
BBX 13 12 0 -1
BITMAP
0040
78C0
7880
7980
1900
5B38
FA40
36F8
04D8
0C58
0870
1800
ENDCHAR
ENDFONT
